<svg width="213" height="213" viewBox="0 0 213 213" fill="none" xmlns="http://www.w3.org/2000/svg">
<g id="Icon">
<g id="Border" opacity="0.2">
<rect id="Shape" x="3" y="3" width="206.989" height="206.989" rx="17.2491" stroke="#EDAE40" stroke-width="1.07807"/>
</g>
<g id="Icon_Fast file">
<path id="Path" fill-rule="evenodd" clip-rule="evenodd" d="M154.826 60.2297C158.339 79.0856 150.466 99.0844 134.651 111.596L92.7457 144.746C91.716 145.561 90.2393 145.475 89.3109 144.547L68.4395 123.675C67.511 122.747 67.4252 121.27 68.2398 120.241L101.391 78.3357C113.902 62.5205 133.901 54.6469 152.757 58.16C153.808 58.3559 154.63 59.1784 154.826 60.2297ZM118.041 76.6475C112.989 81.6997 112.989 89.8908 118.041 94.943C123.093 99.9951 131.284 99.9951 136.337 94.943C141.389 89.8908 141.389 81.6997 136.337 76.6475C131.284 71.5954 123.093 71.5954 118.041 76.6475ZM132.682 91.283C129.651 94.3143 124.736 94.3143 121.705 91.283C118.674 88.2517 118.674 83.337 121.705 80.3057C124.736 77.2744 129.651 77.2744 132.682 80.3057C135.714 83.337 135.714 88.2517 132.682 91.283Z" fill="#EDAE40"/>
<path id="Path_2" opacity="0.3" fill-rule="evenodd" clip-rule="evenodd" d="M83.2068 146.115L80.9084 148.413C78.1548 151.167 73.6904 151.167 70.9368 148.413L64.573 142.049C61.8194 139.296 61.8194 134.831 64.573 132.078L66.8713 129.779L83.2068 146.115ZM69.6115 109.081L58.5223 101.709C57.0196 100.71 56.9252 98.5417 58.3355 97.4167L78.356 81.511C82.67 78.0836 88.4114 77.1356 93.5513 78.904L69.6115 109.081ZM134.006 119.43C135.89 124.672 134.932 130.564 131.405 134.946L115.546 154.651C114.423 156.062 112.259 155.968 111.262 154.464L103.904 143.369L134.006 119.43Z" fill="#EDAE40"/>
</g>
</g>
</svg>
