<svg width="71" height="71" viewBox="0 0 71 71" fill="none" xmlns="http://www.w3.org/2000/svg">
<g id="Icon">
<g id="Border" opacity="0.2">
<rect id="Shape" x="1" y="1" width="68.9965" height="68.9965" rx="17.2491" stroke="#EDAE40" stroke-width="1.07807"/>
</g>
<g id="Icon_Fast file">
<path id="Path" fill-rule="evenodd" clip-rule="evenodd" d="M51.6088 20.0766C52.7798 26.3619 50.1553 33.0281 44.8835 37.1986L30.9152 48.2488C30.572 48.5204 30.0798 48.4918 29.7703 48.1823L22.8132 41.2252C22.5037 40.9157 22.4751 40.4235 22.7466 40.0802L33.7969 26.1119C37.9673 20.8402 44.6336 18.2156 50.9189 19.3867C51.2693 19.452 51.5435 19.7261 51.6088 20.0766ZM39.347 25.5492C37.663 27.2332 37.663 29.9636 39.347 31.6477C41.0311 33.3317 43.7615 33.3317 45.4455 31.6477C47.1296 29.9636 47.1296 27.2332 45.4455 25.5492C43.7615 23.8651 41.0311 23.8651 39.347 25.5492ZM44.2275 30.4277C43.217 31.4381 41.5788 31.4381 40.5684 30.4277C39.5579 29.4172 39.5579 27.779 40.5684 26.7686C41.5788 25.7581 43.217 25.7581 44.2275 26.7686C45.2379 27.779 45.2379 29.4172 44.2275 30.4277Z" fill="#EDAE40"/>
<path id="Path_2" opacity="0.3" fill-rule="evenodd" clip-rule="evenodd" d="M27.7356 48.7049L26.9695 49.471C26.0516 50.3889 24.5635 50.3889 23.6456 49.471L21.5243 47.3498C20.6065 46.4319 20.6065 44.9437 21.5243 44.0259L22.2904 43.2598L27.7356 48.7049ZM23.2038 36.3602L19.5074 33.9029C19.0065 33.5699 18.9751 32.8472 19.4452 32.4722L26.1187 27.1703C27.5567 26.0279 29.4705 25.7119 31.1838 26.3013L23.2038 36.3602ZM44.6686 39.8101C45.2965 41.5573 44.9774 43.5215 43.8018 44.9821L38.5153 51.5504C38.141 52.0208 37.4198 51.9893 37.0874 51.4881L34.6348 47.7897L44.6686 39.8101Z" fill="#EDAE40"/>
</g>
</g>
</svg>
