<svg width="343" height="200" viewBox="0 0 343 200" fill="none" xmlns="http://www.w3.org/2000/svg">
<g filter="url(#filter0_d_475_4517)">
<rect x="0.327778" y="-0.327778" width="261.567" height="117.344" rx="9.69849" transform="matrix(1 0 0 -1 40.4131 130.344)" fill="white" stroke="#FAFAFA" stroke-width="0.655556"/>
<path opacity="0.7" d="M56.2194 62.375V52.1932H60.2365C61.0087 52.1932 61.6666 52.3407 62.2102 52.6357C62.7537 52.9273 63.168 53.3333 63.4531 53.8537C63.7414 54.3707 63.8856 54.9673 63.8856 55.6435C63.8856 56.3196 63.7398 56.9162 63.4481 57.4332C63.1564 57.9503 62.7339 58.353 62.1804 58.6413C61.6302 58.9297 60.964 59.0739 60.1818 59.0739H57.6214V57.3487H59.8338C60.2481 57.3487 60.5894 57.2775 60.8579 57.1349C61.1297 56.9891 61.3319 56.7886 61.4644 56.5334C61.6003 56.2749 61.6683 55.9782 61.6683 55.6435C61.6683 55.3054 61.6003 55.0104 61.4644 54.7585C61.3319 54.5033 61.1297 54.3061 60.8579 54.1669C60.5861 54.0244 60.2414 53.9531 59.8238 53.9531H58.3721V62.375H56.2194ZM65.2441 62.375V54.7386H67.2974V56.071H67.3769C67.5161 55.5971 67.7498 55.2391 68.0779 54.9972C68.406 54.7519 68.7839 54.6293 69.2114 54.6293C69.3175 54.6293 69.4318 54.6359 69.5545 54.6491C69.6771 54.6624 69.7848 54.6806 69.8776 54.7038V56.5831C69.7782 56.5533 69.6406 56.5268 69.465 56.5035C69.2893 56.4803 69.1286 56.4687 68.9827 56.4687C68.6712 56.4687 68.3928 56.5367 68.1475 56.6726C67.9056 56.8052 67.7133 56.9908 67.5708 57.2294C67.4316 57.468 67.362 57.7431 67.362 58.0547V62.375H65.2441ZM74.0674 62.5241C73.2952 62.5241 72.6273 62.3601 72.0639 62.032C71.5037 61.7005 71.0712 61.2398 70.7663 60.6499C70.4614 60.0566 70.3089 59.3688 70.3089 58.5866C70.3089 57.7978 70.4614 57.1084 70.7663 56.5185C71.0712 55.9252 71.5037 55.4645 72.0639 55.1364C72.6273 54.8049 73.2952 54.6392 74.0674 54.6392C74.8397 54.6392 75.5059 54.8049 76.066 55.1364C76.6295 55.4645 77.0636 55.9252 77.3686 56.5185C77.6735 57.1084 77.8259 57.7978 77.8259 58.5866C77.8259 59.3688 77.6735 60.0566 77.3686 60.6499C77.0636 61.2398 76.6295 61.7005 76.066 62.032C75.5059 62.3601 74.8397 62.5241 74.0674 62.5241ZM74.0774 60.8835C74.4287 60.8835 74.722 60.7841 74.9573 60.5852C75.1927 60.383 75.37 60.108 75.4893 59.7599C75.6119 59.4119 75.6732 59.0159 75.6732 58.5717C75.6732 58.1276 75.6119 57.7315 75.4893 57.3835C75.37 57.0355 75.1927 56.7604 74.9573 56.5582C74.722 56.3561 74.4287 56.255 74.0774 56.255C73.7227 56.255 73.4244 56.3561 73.1825 56.5582C72.9438 56.7604 72.7632 57.0355 72.6406 57.3835C72.5213 57.7315 72.4616 58.1276 72.4616 58.5717C72.4616 59.0159 72.5213 59.4119 72.6406 59.7599C72.7632 60.108 72.9438 60.383 73.1825 60.5852C73.4244 60.7841 73.7227 60.8835 74.0774 60.8835ZM82.017 62.4993C81.437 62.4993 80.9116 62.3501 80.441 62.0518C79.9737 61.7502 79.6025 61.3078 79.3274 60.7244C79.0556 60.1378 78.9197 59.4186 78.9197 58.5668C78.9197 57.6918 79.0606 56.9643 79.3423 56.3842C79.624 55.8009 79.9985 55.3651 80.4659 55.0767C80.9365 54.785 81.4519 54.6392 82.012 54.6392C82.4396 54.6392 82.7959 54.7121 83.0809 54.858C83.3693 55.0005 83.6013 55.1794 83.7769 55.3949C83.9559 55.607 84.0918 55.8158 84.1846 56.0213H84.2492V52.1932H86.3622V62.375H84.2741V61.152H84.1846C84.0852 61.3641 83.9443 61.5746 83.762 61.7834C83.583 61.9889 83.3494 62.1596 83.061 62.2955C82.776 62.4313 82.428 62.4993 82.017 62.4993ZM82.6882 60.8139C83.0295 60.8139 83.3179 60.7211 83.5532 60.5355C83.7919 60.3466 83.9741 60.0831 84.1001 59.745C84.2294 59.407 84.294 59.0109 84.294 58.5568C84.294 58.1027 84.231 57.7083 84.1051 57.3736C83.9791 57.0388 83.7968 56.7803 83.5582 56.598C83.3196 56.4157 83.0295 56.3246 82.6882 56.3246C82.3401 56.3246 82.0468 56.419 81.8082 56.608C81.5696 56.7969 81.3889 57.0587 81.2663 57.3935C81.1437 57.7282 81.0823 58.116 81.0823 58.5568C81.0823 59.0009 81.1437 59.3937 81.2663 59.7351C81.3922 60.0732 81.5729 60.3383 81.8082 60.5305C82.0468 60.7195 82.3401 60.8139 82.6882 60.8139ZM93.0005 59.1236V54.7386H95.1184V62.375H93.085V60.9879H93.0055C92.8331 61.4354 92.5464 61.795 92.1454 62.0668C91.7476 62.3385 91.2621 62.4744 90.6887 62.4744C90.1783 62.4744 89.7292 62.3584 89.3414 62.1264C88.9536 61.8944 88.6503 61.5646 88.4316 61.1371C88.2162 60.7095 88.1068 60.1974 88.1035 59.6009V54.7386H90.2214V59.223C90.2247 59.6738 90.3457 60.0301 90.5843 60.2919C90.8229 60.5537 91.1428 60.6847 91.5438 60.6847C91.799 60.6847 92.0377 60.6267 92.2597 60.5107C92.4818 60.3913 92.6608 60.2157 92.7966 59.9837C92.9359 59.7517 93.0038 59.465 93.0005 59.1236ZM100.263 62.5241C99.4805 62.5241 98.8077 62.3584 98.2443 62.027C97.6841 61.6922 97.2533 61.2282 96.9517 60.6349C96.6534 60.0417 96.5042 59.3589 96.5042 58.5866C96.5042 57.8044 96.655 57.1184 96.9566 56.5284C97.2615 55.9351 97.6941 55.4728 98.2542 55.1413C98.8143 54.8066 99.4805 54.6392 100.253 54.6392C100.919 54.6392 101.502 54.7602 102.003 55.0021C102.503 55.2441 102.899 55.5838 103.191 56.0213C103.483 56.4588 103.643 56.9725 103.673 57.5625H101.675C101.618 57.1813 101.469 56.8748 101.227 56.6428C100.989 56.4074 100.675 56.2898 100.288 56.2898C99.9595 56.2898 99.6728 56.3793 99.4275 56.5582C99.1856 56.7339 98.9966 56.9908 98.8607 57.3288C98.7249 57.6669 98.6569 58.0762 98.6569 58.5568C98.6569 59.044 98.7232 59.4583 98.8558 59.7997C98.9917 60.1411 99.1822 60.4013 99.4275 60.5803C99.6728 60.7592 99.9595 60.8487 100.288 60.8487C100.53 60.8487 100.747 60.799 100.939 60.6996C101.134 60.6001 101.295 60.456 101.421 60.267C101.55 60.0748 101.635 59.8445 101.675 59.576H103.673C103.64 60.1593 103.481 60.6731 103.196 61.1172C102.914 61.558 102.525 61.9027 102.028 62.1513C101.53 62.3999 100.942 62.5241 100.263 62.5241ZM109.091 54.7386V56.3295H104.492V54.7386H109.091ZM105.536 52.9091H107.654V60.0284C107.654 60.224 107.684 60.3764 107.744 60.4858C107.803 60.5919 107.886 60.6664 107.992 60.7095C108.102 60.7526 108.228 60.7741 108.37 60.7741C108.47 60.7741 108.569 60.7659 108.668 60.7493C108.768 60.7294 108.844 60.7145 108.897 60.7045L109.23 62.2805C109.124 62.3137 108.975 62.3518 108.783 62.3949C108.591 62.4413 108.357 62.4695 108.082 62.4794C107.571 62.4993 107.124 62.4313 106.739 62.2756C106.358 62.1198 106.062 61.8778 105.85 61.5497C105.637 61.2216 105.533 60.8073 105.536 60.3068V52.9091ZM113.751 62.375V52.1932H117.768C118.54 52.1932 119.198 52.3407 119.741 52.6357C120.285 52.9273 120.699 53.3333 120.984 53.8537C121.273 54.3707 121.417 54.9673 121.417 55.6435C121.417 56.3196 121.271 56.9162 120.979 57.4332C120.688 57.9503 120.265 58.353 119.712 58.6413C119.161 58.9297 118.495 59.0739 117.713 59.0739H115.153V57.3487H117.365C117.779 57.3487 118.121 57.2775 118.389 57.1349C118.661 56.9891 118.863 56.7886 118.996 56.5334C119.132 56.2749 119.2 55.9782 119.2 55.6435C119.2 55.3054 119.132 55.0104 118.996 54.7585C118.863 54.5033 118.661 54.3061 118.389 54.1669C118.117 54.0244 117.773 53.9531 117.355 53.9531H115.903V62.375H113.751ZM122.775 62.375V54.7386H124.829V56.071H124.908C125.047 55.5971 125.281 55.2391 125.609 54.9972C125.937 54.7519 126.315 54.6293 126.743 54.6293C126.849 54.6293 126.963 54.6359 127.086 54.6491C127.208 54.6624 127.316 54.6806 127.409 54.7038V56.5831C127.309 56.5533 127.172 56.5268 126.996 56.5035C126.821 56.4803 126.66 56.4687 126.514 56.4687C126.202 56.4687 125.924 56.5367 125.679 56.6726C125.437 56.8052 125.245 56.9908 125.102 57.2294C124.963 57.468 124.893 57.7431 124.893 58.0547V62.375H122.775ZM131.599 62.5241C130.826 62.5241 130.159 62.3601 129.595 62.032C129.035 61.7005 128.602 61.2398 128.298 60.6499C127.993 60.0566 127.84 59.3688 127.84 58.5866C127.84 57.7978 127.993 57.1084 128.298 56.5185C128.602 55.9252 129.035 55.4645 129.595 55.1364C130.159 54.8049 130.826 54.6392 131.599 54.6392C132.371 54.6392 133.037 54.8049 133.597 55.1364C134.161 55.4645 134.595 55.9252 134.9 56.5185C135.205 57.1084 135.357 57.7978 135.357 58.5866C135.357 59.3688 135.205 60.0566 134.9 60.6499C134.595 61.2398 134.161 61.7005 133.597 62.032C133.037 62.3601 132.371 62.5241 131.599 62.5241ZM131.609 60.8835C131.96 60.8835 132.253 60.7841 132.489 60.5852C132.724 60.383 132.901 60.108 133.021 59.7599C133.143 59.4119 133.204 59.0159 133.204 58.5717C133.204 58.1276 133.143 57.7315 133.021 57.3835C132.901 57.0355 132.724 56.7604 132.489 56.5582C132.253 56.3561 131.96 56.255 131.609 56.255C131.254 56.255 130.956 56.3561 130.714 56.5582C130.475 56.7604 130.294 57.0355 130.172 57.3835C130.052 57.7315 129.993 58.1276 129.993 58.5717C129.993 59.0159 130.052 59.4119 130.172 59.7599C130.294 60.108 130.475 60.383 130.714 60.5852C130.956 60.7841 131.254 60.8835 131.609 60.8835ZM140.175 65.3977C139.489 65.3977 138.9 65.3033 138.41 65.1143C137.923 64.9287 137.535 64.6752 137.246 64.3537C136.958 64.0322 136.771 63.6709 136.685 63.2699L138.643 63.0064C138.703 63.1589 138.798 63.3014 138.927 63.4339C139.056 63.5665 139.227 63.6726 139.439 63.7521C139.654 63.835 139.916 63.8764 140.224 63.8764C140.685 63.8764 141.065 63.7637 141.363 63.5383C141.664 63.3163 141.815 62.9434 141.815 62.4197V61.0227H141.726C141.633 61.2348 141.494 61.4354 141.308 61.6243C141.123 61.8132 140.884 61.9673 140.592 62.0866C140.301 62.206 139.953 62.2656 139.548 62.2656C138.975 62.2656 138.453 62.133 137.982 61.8679C137.515 61.5994 137.142 61.1901 136.864 60.6399C136.588 60.0864 136.451 59.3871 136.451 58.5419C136.451 57.6768 136.592 56.9543 136.874 56.3743C137.155 55.7943 137.53 55.3601 137.997 55.0717C138.468 54.7834 138.983 54.6392 139.543 54.6392C139.971 54.6392 140.329 54.7121 140.617 54.858C140.905 55.0005 141.137 55.1794 141.313 55.3949C141.492 55.607 141.63 55.8158 141.726 56.0213H141.805V54.7386H143.908V62.4496C143.908 63.0992 143.749 63.6428 143.431 64.0803C143.113 64.5178 142.672 64.8459 142.109 65.0646C141.548 65.2867 140.904 65.3977 140.175 65.3977ZM140.219 60.6747C140.561 60.6747 140.849 60.5902 141.084 60.4212C141.323 60.2488 141.505 60.0035 141.631 59.6854C141.761 59.3639 141.825 58.9794 141.825 58.532C141.825 58.0845 141.762 57.6967 141.636 57.3686C141.51 57.0372 141.328 56.7803 141.089 56.598C140.851 56.4157 140.561 56.3246 140.219 56.3246C139.871 56.3246 139.578 56.419 139.339 56.608C139.101 56.7936 138.92 57.0521 138.798 57.3835C138.675 57.715 138.614 58.0978 138.614 58.532C138.614 58.9728 138.675 59.3539 138.798 59.6754C138.923 59.9936 139.104 60.2405 139.339 60.4162C139.578 60.5885 139.871 60.6747 140.219 60.6747ZM145.594 62.375V54.7386H147.647V56.071H147.727C147.866 55.5971 148.099 55.2391 148.427 54.9972C148.756 54.7519 149.133 54.6293 149.561 54.6293C149.667 54.6293 149.781 54.6359 149.904 54.6491C150.027 54.6624 150.134 54.6806 150.227 54.7038V56.5831C150.128 56.5533 149.99 56.5268 149.815 56.5035C149.639 56.4803 149.478 56.4687 149.332 56.4687C149.021 56.4687 148.742 56.5367 148.497 56.6726C148.255 56.8052 148.063 56.9908 147.92 57.2294C147.781 57.468 147.712 57.7431 147.712 58.0547V62.375H145.594ZM154.447 62.5241C153.661 62.5241 152.985 62.3651 152.418 62.0469C151.855 61.7254 151.421 61.2713 151.116 60.6847C150.811 60.0947 150.658 59.397 150.658 58.5916C150.658 57.8061 150.811 57.1167 151.116 56.5234C151.421 55.9302 151.85 55.4678 152.404 55.1364C152.96 54.8049 153.613 54.6392 154.362 54.6392C154.866 54.6392 155.335 54.7204 155.769 54.8828C156.207 55.0419 156.588 55.2822 156.913 55.6037C157.241 55.9252 157.496 56.3295 157.678 56.8168C157.861 57.3007 157.952 57.8674 157.952 58.517V59.0987H151.504V57.7862H155.958C155.958 57.4813 155.892 57.2112 155.759 56.9759C155.627 56.7405 155.443 56.5566 155.208 56.424C154.975 56.2881 154.705 56.2202 154.397 56.2202C154.076 56.2202 153.791 56.2947 153.542 56.4439C153.297 56.5897 153.105 56.7869 152.965 57.0355C152.826 57.2808 152.755 57.5542 152.752 57.8558V59.1037C152.752 59.4815 152.821 59.808 152.96 60.0831C153.103 60.3582 153.303 60.5703 153.562 60.7195C153.82 60.8686 154.127 60.9432 154.482 60.9432C154.717 60.9432 154.932 60.91 155.128 60.8437C155.324 60.7775 155.491 60.678 155.63 60.5455C155.769 60.4129 155.875 60.2505 155.948 60.0582L157.907 60.1875C157.808 60.6581 157.604 61.0691 157.296 61.4205C156.991 61.7685 156.596 62.0402 156.112 62.2358C155.632 62.428 155.077 62.5241 154.447 62.5241ZM165.688 56.9162L163.749 57.0355C163.716 56.8698 163.644 56.7206 163.535 56.5881C163.426 56.4522 163.281 56.3445 163.102 56.2649C162.927 56.1821 162.716 56.1406 162.471 56.1406C162.143 56.1406 161.866 56.2102 161.641 56.3494C161.415 56.4853 161.303 56.6676 161.303 56.8963C161.303 57.0786 161.376 57.2327 161.521 57.3587C161.667 57.4846 161.917 57.5857 162.272 57.6619L163.654 57.9403C164.397 58.0928 164.95 58.3381 165.315 58.6761C165.679 59.0142 165.862 59.4583 165.862 60.0085C165.862 60.509 165.714 60.9482 165.419 61.326C165.127 61.7038 164.726 61.9988 164.216 62.2109C163.709 62.4197 163.124 62.5241 162.461 62.5241C161.45 62.5241 160.645 62.3137 160.045 61.8928C159.448 61.4685 159.099 60.8918 158.996 60.1626L161.079 60.0533C161.142 60.3615 161.294 60.5968 161.536 60.7592C161.778 60.9183 162.088 60.9979 162.466 60.9979C162.837 60.9979 163.136 60.9266 163.361 60.7841C163.59 60.6383 163.706 60.451 163.709 60.2223C163.706 60.0301 163.624 59.8726 163.465 59.75C163.306 59.6241 163.061 59.5279 162.73 59.4616L161.407 59.1982C160.661 59.049 160.106 58.7905 159.742 58.4226C159.38 58.0547 159.2 57.5857 159.2 57.0156C159.2 56.5251 159.332 56.1025 159.597 55.7479C159.866 55.3932 160.242 55.1198 160.726 54.9276C161.213 54.7353 161.783 54.6392 162.436 54.6392C163.401 54.6392 164.16 54.843 164.713 55.2507C165.27 55.6584 165.595 56.2135 165.688 56.9162ZM173.549 56.9162L171.61 57.0355C171.577 56.8698 171.506 56.7206 171.396 56.5881C171.287 56.4522 171.143 56.3445 170.964 56.2649C170.788 56.1821 170.578 56.1406 170.332 56.1406C170.004 56.1406 169.727 56.2102 169.502 56.3494C169.277 56.4853 169.164 56.6676 169.164 56.8963C169.164 57.0786 169.237 57.2327 169.383 57.3587C169.529 57.4846 169.779 57.5857 170.133 57.6619L171.516 57.9403C172.258 58.0928 172.811 58.3381 173.176 58.6761C173.541 59.0142 173.723 59.4583 173.723 60.0085C173.723 60.509 173.575 60.9482 173.28 61.326C172.989 61.7038 172.588 61.9988 172.077 62.2109C171.57 62.4197 170.985 62.5241 170.322 62.5241C169.311 62.5241 168.506 62.3137 167.906 61.8928C167.31 61.4685 166.96 60.8918 166.857 60.1626L168.94 60.0533C169.003 60.3615 169.156 60.5968 169.398 60.7592C169.64 60.9183 169.95 60.9979 170.327 60.9979C170.699 60.9979 170.997 60.9266 171.222 60.7841C171.451 60.6383 171.567 60.451 171.57 60.2223C171.567 60.0301 171.486 59.8726 171.327 59.75C171.168 59.6241 170.922 59.5279 170.591 59.4616L169.268 59.1982C168.523 59.049 167.968 58.7905 167.603 58.4226C167.242 58.0547 167.061 57.5857 167.061 57.0156C167.061 56.5251 167.194 56.1025 167.459 55.7479C167.727 55.3932 168.103 55.1198 168.587 54.9276C169.075 54.7353 169.645 54.6392 170.298 54.6392C171.262 54.6392 172.021 54.843 172.575 55.2507C173.131 55.6584 173.456 56.2135 173.549 56.9162Z" fill="#12141D"/>
<path d="M59.2285 87.3679C57.7495 86.5813 57.0101 85.3462 57.0101 83.6627C57.0101 82.8131 57.2303 82.0422 57.6709 81.3499C58.1114 80.6419 58.7801 80.0834 59.6769 79.6743C60.5737 79.2495 61.675 79.0371 62.9809 79.0371C64.2867 79.0371 65.3802 79.2495 66.2613 79.6743C67.1581 80.0834 67.8267 80.6419 68.2673 81.3499C68.7078 82.0422 68.9281 82.8131 68.9281 83.6627C68.9281 84.5123 68.7235 85.2518 68.3145 85.8811C67.9211 86.5105 67.3862 87.0061 66.7097 87.3679C67.5593 87.777 68.2122 88.3434 68.6685 89.0671C69.1247 89.7751 69.3529 90.609 69.3529 91.5687C69.3529 92.6858 69.0697 93.6534 68.5033 94.4715C67.9369 95.2739 67.1659 95.8875 66.1905 96.3123C65.2307 96.7371 64.1609 96.9495 62.9809 96.9495C61.8009 96.9495 60.7231 96.7371 59.7477 96.3123C58.7879 95.8875 58.0249 95.2739 57.4585 94.4715C56.8921 93.6534 56.6089 92.6858 56.6089 91.5687C56.6089 90.5933 56.837 89.7515 57.2933 89.0435C57.7495 88.3198 58.3946 87.7613 59.2285 87.3679ZM65.0105 84.2763C65.0105 83.6313 64.8217 83.1357 64.4441 82.7895C64.0822 82.4277 63.5945 82.2467 62.9809 82.2467C62.3673 82.2467 61.8717 82.4277 61.4941 82.7895C61.1322 83.1514 60.9513 83.6549 60.9513 84.2999C60.9513 84.9135 61.1401 85.4013 61.5177 85.7631C61.8953 86.1093 62.383 86.2823 62.9809 86.2823C63.5787 86.2823 64.0665 86.1014 64.4441 85.7395C64.8217 85.3777 65.0105 84.8899 65.0105 84.2763ZM62.9809 89.1143C62.2414 89.1143 61.6435 89.3189 61.1873 89.7279C60.731 90.1213 60.5029 90.6719 60.5029 91.3799C60.5029 92.0407 60.7231 92.5835 61.1637 93.0083C61.6199 93.4331 62.2257 93.6455 62.9809 93.6455C63.7361 93.6455 64.3261 93.4331 64.7509 93.0083C65.1914 92.5835 65.4117 92.0407 65.4117 91.3799C65.4117 90.6877 65.1835 90.137 64.7273 89.7279C64.2867 89.3189 63.7046 89.1143 62.9809 89.1143ZM71.794 93.5511V90.2943L79.2516 79.6271H83.7592V90.0583H85.6944V93.5511H83.7592V96.6191H79.7236V93.5511H71.794ZM80.0068 84.0639L76.042 90.0583H80.0068V84.0639Z" fill="#333333"/>
<path d="M96.0822 89.4061V87.7226H99.0401V85.0007H100.755V87.7226H103.697V89.4061H100.755V92.1279H99.0401V89.4061H96.0822ZM106.855 93.1191V84.4029L105.045 84.8277V83.2858L107.704 82.1058H108.947V93.1191H106.855ZM110.815 93.1191V91.6559C111.486 91.1 112.137 90.5494 112.766 90.0039C113.406 89.4585 113.972 88.9183 114.465 88.3834C114.969 87.8485 115.367 87.3293 115.661 86.8258C115.965 86.3118 116.117 85.8136 116.117 85.3311C116.117 84.8801 115.991 84.4815 115.74 84.1354C115.498 83.7893 115.094 83.6162 114.528 83.6162C113.951 83.6162 113.516 83.805 113.222 84.1826C112.929 84.5602 112.782 85.0165 112.782 85.5514H110.831C110.852 84.7438 111.03 84.0725 111.366 83.5375C111.701 82.9921 112.147 82.5883 112.703 82.3261C113.259 82.0534 113.883 81.917 114.575 81.917C115.698 81.917 116.568 82.2264 117.187 82.8453C117.816 83.4536 118.131 84.2455 118.131 85.221C118.131 85.8294 117.989 86.422 117.706 86.9989C117.434 87.5758 117.072 88.1317 116.621 88.6666C116.17 89.2015 115.682 89.705 115.157 90.177C114.633 90.6385 114.124 91.0686 113.631 91.4671H118.398V93.1191H110.815ZM122.336 87.5181C121.833 87.5181 121.377 87.4079 120.968 87.1877C120.559 86.9569 120.233 86.6318 119.992 86.2122C119.751 85.7926 119.63 85.2944 119.63 84.7175C119.63 84.1406 119.751 83.6424 119.992 83.2229C120.233 82.8033 120.559 82.4834 120.968 82.2631C121.377 82.0324 121.838 81.917 122.352 81.917C122.856 81.917 123.307 82.0324 123.705 82.2631C124.114 82.4834 124.439 82.8033 124.681 83.2229C124.922 83.6424 125.043 84.1406 125.043 84.7175C125.043 85.2944 124.922 85.7926 124.681 86.2122C124.439 86.6318 124.114 86.9569 123.705 87.1877C123.296 87.4079 122.84 87.5181 122.336 87.5181ZM121.739 93.1191L127.953 82.1058H129.92L123.705 93.1191H121.739ZM122.336 86.1178C122.641 86.1178 122.903 86.0024 123.123 85.7717C123.343 85.5304 123.453 85.179 123.453 84.7175C123.453 84.256 123.343 83.9046 123.123 83.6634C122.913 83.4222 122.651 83.3015 122.336 83.3015C122.022 83.3015 121.754 83.4222 121.534 83.6634C121.324 83.9046 121.219 84.256 121.219 84.7175C121.219 85.179 121.324 85.5304 121.534 85.7717C121.754 86.0024 122.022 86.1178 122.336 86.1178ZM129.385 93.3079C128.881 93.3079 128.425 93.1978 128.016 92.9775C127.607 92.7468 127.282 92.4216 127.041 92.0021C126.799 91.5825 126.679 91.0843 126.679 90.5074C126.679 89.9305 126.799 89.4375 127.041 89.0285C127.282 88.6089 127.607 88.289 128.016 88.0687C128.425 87.838 128.887 87.7226 129.401 87.7226C129.904 87.7226 130.355 87.838 130.754 88.0687C131.163 88.289 131.488 88.6089 131.729 89.0285C131.97 89.4375 132.091 89.9305 132.091 90.5074C132.091 91.0843 131.97 91.5825 131.729 92.0021C131.488 92.4216 131.163 92.7468 130.754 92.9775C130.355 93.1978 129.899 93.3079 129.385 93.3079ZM129.385 91.9077C129.7 91.9077 129.962 91.7923 130.172 91.5615C130.392 91.3203 130.502 90.9689 130.502 90.5074C130.502 90.0459 130.392 89.6945 130.172 89.4533C129.962 89.212 129.7 89.0914 129.385 89.0914C129.07 89.0914 128.803 89.212 128.583 89.4533C128.373 89.6945 128.268 90.0459 128.268 90.5074C128.268 90.9689 128.373 91.3203 128.583 91.5615C128.803 91.7923 129.07 91.9077 129.385 91.9077Z" fill="#73DC8A"/>
<rect x="208.235" y="33.3203" width="7.86667" height="76.7" rx="3.93333" fill="#D6D7E3" fill-opacity="0.4"/>
<rect x="208.413" y="33" width="8" height="77" rx="4" fill="#007EFF"/>
<rect x="208.413" y="33" width="8" height="77" rx="4" fill="url(#paint0_linear_475_4517)"/>
<rect x="229.212" y="33.3203" width="7.86667" height="76.7" rx="3.93333" fill="#D6D7E3" fill-opacity="0.4"/>
<rect x="229.413" y="34" width="8" height="76" rx="4" fill="#007EFF"/>
<rect x="229.413" y="34" width="8" height="76" rx="4" fill="url(#paint1_linear_475_4517)"/>
<rect x="250.191" y="33.3203" width="7.86667" height="76.7" rx="3.93333" fill="#D6D7E3" fill-opacity="0.4"/>
<rect x="250.413" y="34" width="8" height="76" rx="4" fill="#007EFF"/>
<rect x="250.413" y="34" width="8" height="76" rx="4" fill="url(#paint2_linear_475_4517)"/>
<rect x="271.168" y="33.3203" width="7.86667" height="76.7" rx="3.93333" fill="#D6D7E3" fill-opacity="0.4"/>
<rect x="271.168" y="78.8047" width="7.86667" height="31.2151" rx="3.93333" fill="#007EFF"/>
<rect x="271.168" y="78.8047" width="7.86667" height="31.2151" rx="3.93333" fill="url(#paint3_linear_475_4517)"/>
</g>
<defs>
<filter id="filter0_d_475_4517" x="0.222141" y="0.633558" width="342.604" height="198.382" filterUnits="userSpaceOnUse" color-interpolation-filters="sRGB">
<feFlood flood-opacity="0" result="BackgroundImageFix"/>
<feColorMatrix in="SourceAlpha" type="matrix" values="0 0 0 0 0 0 0 0 0 0 0 0 0 0 0 0 0 0 127 0" result="hardAlpha"/>
<feOffset dy="27.8245"/>
<feGaussianBlur stdDeviation="20.0955"/>
<feComposite in2="hardAlpha" operator="out"/>
<feColorMatrix type="matrix" values="0 0 0 0 0 0 0 0 0 0 0 0 0 0 0 0 0 0 0.08 0"/>
<feBlend mode="normal" in2="BackgroundImageFix" result="effect1_dropShadow_475_4517"/>
<feBlend mode="normal" in="SourceGraphic" in2="effect1_dropShadow_475_4517" result="shape"/>
</filter>
<linearGradient id="paint0_linear_475_4517" x1="208.413" y1="33" x2="224.242" y2="34.6446" gradientUnits="userSpaceOnUse">
<stop stop-color="#FFE57A"/>
<stop offset="1" stop-color="#FFB800"/>
</linearGradient>
<linearGradient id="paint1_linear_475_4517" x1="229.413" y1="34" x2="245.238" y2="35.6658" gradientUnits="userSpaceOnUse">
<stop stop-color="#FFE57A"/>
<stop offset="1" stop-color="#FFB800"/>
</linearGradient>
<linearGradient id="paint2_linear_475_4517" x1="250.413" y1="34" x2="266.238" y2="35.6658" gradientUnits="userSpaceOnUse">
<stop stop-color="#FFE57A"/>
<stop offset="1" stop-color="#FFB800"/>
</linearGradient>
<linearGradient id="paint3_linear_475_4517" x1="271.168" y1="78.8047" x2="285.962" y2="82.5329" gradientUnits="userSpaceOnUse">
<stop stop-color="#FFE57A"/>
<stop offset="1" stop-color="#FFB800"/>
</linearGradient>
</defs>
</svg>
