<svg width="49" height="53" viewBox="0 0 49 53" fill="none" xmlns="http://www.w3.org/2000/svg">
<path d="M36.1794 51.0004C41.5274 51.0004 45.8628 46.0681 45.8628 39.9838C45.8628 33.8996 41.5274 28.9673 36.1794 28.9673C30.8315 28.9673 26.4961 33.8996 26.4961 39.9838C26.4961 46.0681 30.8315 51.0004 36.1794 51.0004Z" stroke="#F5692D" stroke-width="2.15185" stroke-miterlimit="10" stroke-linecap="round" stroke-linejoin="round"/>
<path d="M46.9389 14.2783H1.75" stroke="#F5692D" stroke-width="2.15185" stroke-miterlimit="10" stroke-linecap="round" stroke-linejoin="round"/>
<path d="M21.1167 46.1038H4.97778C4.12172 46.1038 3.30072 45.7169 2.69539 45.0282C2.09007 44.3395 1.75 43.4055 1.75 42.4316V5.70978C1.75 4.73586 2.09007 3.80182 2.69539 3.11315C3.30072 2.42449 4.12172 2.0376 4.97778 2.0376H43.7111C44.5671 2.0376 45.3881 2.42449 45.9935 3.11315C46.5988 3.80182 46.9389 4.73586 46.9389 5.70978V25.3094" stroke="#F5692D" stroke-width="2.15185" stroke-miterlimit="10" stroke-linecap="round" stroke-linejoin="round"/>
</svg>
