<svg width="44" height="51" viewBox="0 0 44 51" fill="none" xmlns="http://www.w3.org/2000/svg">
<path fill-rule="evenodd" clip-rule="evenodd" d="M32.556 31.9766C31.9114 31.7275 31.316 31.3372 30.8033 30.8278C30.8033 30.8152 30.8033 30.8152 30.7922 30.8152C30.7256 30.7521 30.6702 30.6763 30.6036 30.6132C30.5936 30.6083 30.5856 30.5993 30.5814 30.5879C29.6718 29.5517 29.1239 28.1749 29.0396 26.7136C31.1513 23.5346 32.2648 19.6416 32.202 15.6575C32.2036 14.0401 32.0286 12.4287 31.681 10.8604V10.8515C32.2334 9.80642 32.4522 8.57662 32.3006 7.36938C32.1491 6.16213 31.6363 5.05124 30.8488 4.2239C28.6815 1.9947 25.9026 0.688146 22.9843 0.526321C22.6407 0.500992 22.296 0.500992 21.9523 0.526321C15.0421 0.829298 9.62881 7.48027 9.62881 15.6588C9.6296 15.8409 9.66467 16.0208 9.73166 16.1863C9.79865 16.3518 9.896 16.4991 10.0172 16.6182C10.6516 17.2253 11.4411 17.5836 12.2686 17.6401C12.4984 21.1255 13.677 24.4429 15.6408 27.1309C15.7475 27.2651 15.8776 27.3725 16.0227 27.4464C16.1679 27.5203 16.3251 27.559 16.4841 27.5601C16.7507 27.5607 17.0078 27.4481 17.2054 27.2445C17.4273 27.0251 17.5636 26.7145 17.5844 26.3809C17.6052 26.0473 17.5088 25.7179 17.3163 25.4651C15.6577 23.1534 14.6693 20.3139 14.4868 17.3371C17.0156 16.5424 20.3323 14.1811 24.8585 9.97921L28.3638 13.6522C28.481 13.7706 28.618 13.8607 28.7667 13.9171C28.9154 13.9735 29.0726 13.9951 29.2287 13.9804C29.4714 13.9545 29.6987 13.8341 29.8723 13.6395C29.9483 14.3093 29.9854 14.9841 29.9833 15.6594C29.9833 19.4832 28.918 23.0444 27.0766 25.4531V25.4657L27.0544 25.491C26.4696 26.3274 25.7325 27.0098 24.8938 27.4913C24.0551 27.9728 23.1347 28.2419 22.1959 28.2803C21.9016 28.2803 21.6194 28.4133 21.4113 28.65C21.2032 28.8868 21.0863 29.2079 21.0863 29.5427C21.0863 29.8775 21.2032 30.1986 21.4113 30.4353C21.6194 30.6721 21.9016 30.8051 22.1959 30.8051C23.9904 30.7855 25.7292 30.0936 27.1432 28.8364C27.4107 29.8454 27.8437 30.7878 28.4193 31.6136L22.5177 38.3277C22.3088 38.5637 22.1908 38.8844 22.1897 39.2194C22.1886 39.5543 22.3045 39.876 22.5119 40.1137C22.7193 40.3514 23.0012 40.4857 23.2956 40.4869C23.59 40.4882 23.8728 40.3563 24.0817 40.1203L30.0388 33.3425C30.6013 33.7795 31.2133 34.1278 31.858 34.3777C40.6651 37.7231 41.6194 39.8553 41.6194 40.6121C41.6194 43.2 35.2635 46.5693 27.7313 47.97C25.3007 48.4161 22.8354 48.5684 20.3767 48.4244C20.0836 48.4129 19.798 48.5317 19.5805 48.7555C19.363 48.9794 19.2307 49.2908 19.2116 49.6237C19.1977 49.9583 19.3007 50.2855 19.4983 50.5339C19.6958 50.7823 19.9717 50.9316 20.2657 50.9493C20.8982 50.9871 21.5529 50.9998 22.2076 50.9998C24.1805 51.0075 26.1507 50.8301 28.098 50.4695C33.9435 49.3719 43.8381 46.065 43.8381 40.6127C43.837 37.6056 40.3544 34.942 32.556 31.9766ZM29.6709 9.71284L28.9497 10.8364L25.6552 7.36477C25.4564 7.15812 25.1985 7.04042 24.9293 7.03345C24.6601 7.02649 24.3978 7.13074 24.191 7.3269C18.7111 12.5028 14.8291 15.1267 12.6326 15.1267C12.3711 15.1345 12.1108 15.083 11.8669 14.9752C12.1443 8.4738 16.5152 3.28846 22.0833 3.04545C22.2053 3.03282 22.3163 3.03283 22.4384 3.03283C22.5604 3.03283 22.6936 3.03282 22.86 3.04545C25.2764 3.15553 27.5799 4.23795 29.3602 6.09984C29.7912 6.55527 30.0609 7.17437 30.1183 7.84039C30.1758 8.50641 30.017 9.17332 29.672 9.71537L29.6709 9.71284ZM30.7911 30.8152C30.7245 30.7521 30.669 30.6763 30.6025 30.6132C30.6532 30.6558 30.7014 30.7021 30.7467 30.7521C30.7589 30.7773 30.7811 30.7899 30.7922 30.8152H30.7911ZM9.99 50.5794C8.01456 50.5801 6.0833 49.9143 4.44051 48.6662C2.79771 47.4181 1.51718 45.6437 0.760882 43.5675C0.00458681 41.4914 -0.193493 39.2066 0.191693 37.0023C0.576879 34.7981 1.52803 32.7733 2.92483 31.1841C4.32164 29.5949 6.10135 28.5127 8.03884 28.0743C9.97634 27.636 11.9846 27.8612 13.8096 28.7215C15.6345 29.5818 17.1942 31.0385 18.2914 32.9075C19.3886 34.7764 19.9739 36.9735 19.9733 39.2209C19.9704 42.2322 18.9176 45.1193 17.0461 47.2486C15.1745 49.378 12.6369 50.5759 9.99 50.5794ZM9.99 30.386C8.45363 30.3853 6.95161 30.9031 5.67391 31.8737C4.3962 32.8443 3.4002 34.2242 2.81187 35.8389C2.22355 37.4536 2.06934 39.2304 2.36873 40.9448C2.66813 42.6592 3.40768 44.2341 4.49386 45.4703C5.58004 46.7064 6.96405 47.5484 8.47085 47.8896C9.97766 48.2308 11.5396 48.056 12.959 47.3872C14.3785 46.7185 15.5918 45.5859 16.4454 44.1326C17.299 42.6793 17.7546 40.9707 17.7546 39.2228C17.7527 36.8803 16.9341 34.6344 15.4785 32.9777C14.0228 31.3211 12.049 30.389 9.99 30.386ZM8.73611 44.1411C8.44184 44.1411 8.15966 44.008 7.95161 43.7712L4.76863 40.15C4.57143 39.9109 4.46372 39.594 4.4683 39.2661C4.47288 38.9383 4.58939 38.6254 4.79317 38.3935C4.99695 38.1617 5.27201 38.0291 5.56017 38.0239C5.84832 38.0187 6.12695 38.1413 6.3371 38.3656L8.73611 41.0943L13.6429 35.5113C13.8534 35.2874 14.1322 35.1654 14.4204 35.1712C14.7085 35.1769 14.9834 35.31 15.1868 35.5423C15.3902 35.7745 15.5063 36.0877 15.5103 36.4156C15.5144 36.7434 15.4062 37.0602 15.2086 37.2989L9.51729 43.7738C9.30991 44.009 9.02898 44.1411 8.73611 44.1411Z" fill="#4732BA"/>
</svg>
