<svg width="45" height="51" viewBox="0 0 45 51" fill="none" xmlns="http://www.w3.org/2000/svg">
<path fill-rule="evenodd" clip-rule="evenodd" d="M44.3161 8.13164C44.3026 7.3822 44.03 6.66899 43.5574 6.14674C43.0847 5.62449 42.4501 5.33532 41.7913 5.34195C41.2628 5.34573 40.7484 5.53532 40.3184 5.88474C38.867 6.9559 37.166 7.50567 35.4364 7.46262C33.0109 7.45 29.8443 6.42753 28.9028 3.52423C28.6459 2.65832 28.1601 1.90381 27.512 1.36381C26.8639 0.823822 26.0851 0.524698 25.2819 0.507324H19.0684C18.2638 0.524395 17.4834 0.82321 16.8335 1.36306C16.1836 1.90291 15.6957 2.65756 15.4364 3.52423C14.4932 6.42753 11.3277 7.46262 8.90226 7.46262C7.17289 7.50353 5.47244 6.95393 4.02028 5.88474C3.5905 5.53526 3.07619 5.34566 2.54792 5.34195C1.88897 5.33515 1.25423 5.62424 0.781455 6.14651C0.308681 6.66878 0.0360164 7.38209 0.0226069 8.13164C-0.464482 33.3399 6.92171 47.7554 21.9715 50.9869C22.0375 50.9973 22.1041 51.0016 22.1707 50.9995C22.2411 51.0013 22.3116 50.997 22.3815 50.9869C26.0439 50.2642 29.5197 48.6259 32.5582 46.1901C33.1498 46.3168 33.7504 46.3802 34.3524 46.3795C36.997 46.3721 39.5312 45.1721 41.3994 43.0425C43.2677 40.9129 44.3175 38.0275 44.3188 35.0187C44.3232 32.6759 43.6845 30.39 42.492 28.48C43.8633 22.7491 44.4714 15.9663 44.3161 8.13164ZM35.0586 43.8044C34.8236 43.8404 34.5867 43.8573 34.3496 43.8548C33.5561 43.8591 32.7672 43.7185 32.0129 43.4383C30.9975 43.0755 30.0596 42.4763 29.2589 41.6787C28.4581 40.8811 27.812 39.9027 27.3617 38.8056C27.0223 38.0279 26.7974 37.1921 26.696 36.3315C26.6292 35.898 26.5958 35.4588 26.5961 35.0187C26.5978 33.1385 27.1256 31.3078 28.1031 29.7917C29.0806 28.2756 30.457 27.153 32.0329 26.5865H32.044C32.7888 26.3175 33.5659 26.1812 34.3474 26.1826H34.4472C35.4984 26.1989 36.5357 26.4592 37.4953 26.9476C38.455 27.4359 39.3169 28.1421 40.0282 29.0228C40.6994 29.8365 41.2226 30.7931 41.5677 31.8377C41.9202 32.8502 42.1006 33.9297 42.0992 35.0187C42.0997 37.2182 41.378 39.3385 40.0755 40.9639C38.773 42.5892 36.9837 43.6023 35.0586 43.8044ZM40.684 26.2583C39.0664 24.7344 37.0659 23.8328 34.9698 23.6832C35.3042 21.904 35.5481 20.1043 35.7004 18.2932C35.719 18.1229 35.7048 17.9501 35.6589 17.7867C35.613 17.6232 35.5365 17.473 35.4347 17.3465C35.3381 17.2144 35.2183 17.1068 35.0829 17.0307C34.9475 16.9546 34.7995 16.9116 34.6486 16.9047C29.8776 16.6774 25.6452 14.4179 23.0317 10.6941C22.9253 10.5517 22.7929 10.4374 22.6437 10.3589C22.4946 10.2805 22.3322 10.2399 22.1679 10.2399C22.0036 10.2399 21.8413 10.2805 21.6922 10.3589C21.543 10.4374 21.4106 10.5517 21.3042 10.6941C18.6907 14.4179 14.4605 16.6774 9.68782 16.9047C9.39355 16.918 9.11598 17.0637 8.91617 17.3099C8.71636 17.556 8.61067 17.8823 8.62236 18.2171C8.63406 18.5519 8.76219 18.8677 8.97854 19.095C9.19489 19.3223 9.48176 19.4426 9.77603 19.4293C14.7041 19.202 19.145 17.0183 22.1679 13.3954C25.1553 16.8409 29.1335 18.947 33.3743 19.3283C33.214 20.8345 32.9849 22.3303 32.688 23.8095C30.3642 24.2638 28.2563 25.6379 26.7365 27.689C25.2168 29.7401 24.383 32.3361 24.3826 35.0187C24.3819 35.9416 24.4786 36.8612 24.6705 37.7579C24.8452 38.5632 25.1016 39.3426 25.4344 40.0806C26.3913 42.2714 27.9452 44.0514 29.8643 45.155C27.4926 46.7708 24.8858 47.8909 22.1674 48.4623C8.49118 45.4075 1.78012 31.863 2.23448 8.19475C2.23792 8.13075 2.25675 8.06906 2.28889 8.01639C2.32103 7.96372 2.36525 7.92211 2.41675 7.89607C2.46825 7.87003 2.52504 7.86057 2.58094 7.86872C2.63684 7.87687 2.68972 7.90232 2.73378 7.9423C4.55809 9.32422 6.71046 10.0378 8.90171 9.98723C13.0325 9.98723 16.41 7.79082 17.5173 4.39522C17.6218 4.01461 17.8266 3.67973 18.104 3.43589C18.3813 3.19205 18.7178 3.05104 19.0679 3.03193H25.2813C25.6295 3.05324 25.9636 3.1953 26.2387 3.43901C26.5138 3.68272 26.7168 4.01641 26.8203 4.39522C27.4199 6.13783 28.5471 7.57935 29.9985 8.45984C31.664 9.49576 33.5374 10.0221 35.4353 9.98723C37.6267 10.0378 39.7792 9.3242 41.6038 7.9423C41.657 7.89325 41.7234 7.86652 41.7919 7.86656C41.871 7.86432 41.9478 7.8974 42.0057 7.95874C42.0637 8.02008 42.0982 8.10479 42.1019 8.19475C42.2997 14.2599 41.8233 20.3291 40.684 26.2583ZM25.435 40.0806C24.4758 40.6061 23.4695 41.0124 22.4337 41.2924C22.2593 41.3429 22.0766 41.3429 21.9022 41.2924C15.4352 39.4999 11.371 33.9331 9.4659 24.2765C9.43457 24.1152 9.4315 23.9484 9.45682 23.7857C9.48215 23.623 9.53541 23.4676 9.61353 23.3283C9.69165 23.189 9.79312 23.0686 9.91215 22.974C10.0312 22.8793 10.1654 22.8122 10.3072 22.7766C10.449 22.7409 10.5956 22.7374 10.7386 22.7662C10.8816 22.7951 11.0182 22.8556 11.1407 22.9445C11.2631 23.0334 11.3689 23.1488 11.4522 23.2842C11.5354 23.4197 11.5943 23.5724 11.6256 23.7337C14.0505 36.0286 19.8978 38.124 22.1663 38.7678C23.0302 38.5347 23.8694 38.1961 24.6694 37.7579C24.8447 38.5633 25.1016 39.3427 25.435 40.0806ZM33.0991 39.936C32.8053 39.9356 32.5236 39.8026 32.3158 39.5662L29.1381 35.944C28.9454 35.7043 28.8413 35.3893 28.8476 35.0645C28.8538 34.7397 28.9699 34.4302 29.1716 34.2003C29.3733 33.9704 29.6452 33.8378 29.9306 33.8301C30.2161 33.8225 30.4931 33.9403 30.7042 34.1591L33.0991 36.8888L37.9972 31.3044C38.0984 31.1785 38.221 31.0773 38.3575 31.0068C38.4941 30.9363 38.6418 30.898 38.7917 30.8943C38.9416 30.8906 39.0907 30.9214 39.2298 30.9851C39.3689 31.0487 39.4953 31.1437 39.6012 31.2645C39.7072 31.3852 39.7905 31.5292 39.8462 31.6876C39.9019 31.846 39.9288 32.0156 39.9252 32.1861C39.9217 32.3567 39.8878 32.5246 39.8256 32.6799C39.7634 32.8351 39.6742 32.9744 39.5633 33.0893L33.8819 39.5662C33.7791 39.6835 33.6569 39.7766 33.5224 39.84C33.3879 39.9035 33.2437 39.9361 33.098 39.936H33.0991Z" fill="#F23936"/>
</svg>
