<svg width="48" height="54" viewBox="0 0 48 54" fill="none" xmlns="http://www.w3.org/2000/svg">
<path fill-rule="evenodd" clip-rule="evenodd" d="M23.9677 0.310818C23.8379 0.297392 23.7199 0.297389 23.6019 0.297389C19.6427 0.291148 15.7461 1.42094 12.2725 3.58226C8.79888 5.74358 5.86048 8.86661 3.72908 12.6625C3.63542 12.8104 3.56922 12.9784 3.53451 13.1564C3.49981 13.3344 3.4973 13.5185 3.52719 13.6976C3.55707 13.8767 3.6187 14.047 3.70832 14.1981C3.79793 14.3492 3.91366 14.478 4.04845 14.5766C4.18323 14.6751 4.33423 14.7415 4.49228 14.7715C4.65032 14.8015 4.81209 14.7946 4.96771 14.7511C5.12333 14.7077 5.26955 14.6287 5.39744 14.5189C5.52534 14.4091 5.63224 14.2708 5.71163 14.1124C6.47096 12.7733 7.34026 11.5191 8.30783 10.3667H15.2586C14.5937 12.5064 14.0922 14.7075 13.7599 16.9453H13.7481C12.5142 17.2873 11.2528 17.4852 9.98358 17.536C9.82336 17.5464 9.66659 17.5933 9.52264 17.674C9.3787 17.7548 9.25051 17.8676 9.14571 18.0059C9.03706 18.143 8.95555 18.305 8.90668 18.4811C8.85782 18.6571 8.84274 18.843 8.86248 19.0263C9.05776 21.3074 9.38099 23.572 9.83016 25.8062H2.40736C2.46852 24.2288 2.67419 22.663 3.02101 21.1341C3.06273 20.9629 3.07407 20.7839 3.05436 20.6076C3.03465 20.4314 2.98429 20.2613 2.90622 20.1074C2.82815 19.9536 2.72393 19.8189 2.59964 19.7113C2.47534 19.6037 2.33346 19.5254 2.18227 19.4808C2.03108 19.4362 1.87361 19.4264 1.71903 19.4517C1.56445 19.4771 1.41588 19.5373 1.28195 19.6287C1.14802 19.7201 1.03143 19.841 0.938976 19.9842C0.84652 20.1274 0.780047 20.2901 0.74344 20.4628C-0.145344 24.3949 -0.238528 28.5051 0.470925 32.4841C1.18038 36.4631 2.67397 40.2071 4.83927 43.4343C7.00457 46.6616 9.78516 49.288 12.9717 51.1158C16.1583 52.9437 19.6678 53.9253 23.236 53.9868C23.354 54.0002 23.4839 54.0002 23.6019 54.0002C23.7199 54.0002 23.8379 54.0002 23.9677 53.9868C30.1596 53.8754 36.0647 50.9988 40.4088 45.9778C44.7529 40.9569 47.1876 34.1941 47.1876 27.1488C47.1876 20.1036 44.7529 13.3408 40.4088 8.31978C36.0647 3.2988 30.1596 0.42223 23.9677 0.310818ZM44.8082 25.8062H37.3736C37.8269 23.5723 38.154 21.3077 38.353 19.0263C38.3691 18.8428 38.3521 18.6575 38.3031 18.4818C38.2542 18.306 38.1742 18.1435 38.0682 18.004C37.9622 17.8646 37.8323 17.7512 37.6865 17.6707C37.5407 17.5902 37.382 17.5444 37.2201 17.536C35.9509 17.4852 34.6896 17.2873 33.4557 16.9453H33.4438C33.1115 14.7075 32.6101 12.5064 31.9451 10.3667H38.8605C42.4192 14.5254 44.5323 20.0107 44.8082 25.8062ZM36.1817 7.68153H30.9775C30.4188 6.27194 29.7093 4.94619 28.8651 3.73437C31.5047 4.50142 33.9892 5.84173 36.1817 7.68153ZM23.3422 2.99596C23.515 2.97806 23.6888 2.97806 23.8615 2.99596C26.5639 3.30475 29.4315 8.25884 30.883 16.0189C28.3962 14.9245 26.2037 13.1104 24.5223 10.756C24.4133 10.5967 24.2737 10.4679 24.1141 10.3795C23.9546 10.2911 23.7793 10.2453 23.6019 10.2458C23.4246 10.2468 23.2498 10.2931 23.0905 10.3814C22.9311 10.4698 22.7913 10.5978 22.6814 10.756C21 13.1104 18.8075 14.9245 16.3207 16.0189C17.7722 8.25884 20.6398 3.30475 23.3422 2.99596ZM11.0103 7.68153C13.2062 5.82874 15.6999 4.48322 18.3504 3.72095C17.5039 4.93829 16.7906 6.26824 16.2263 7.68153H11.0103ZM13.3704 19.7915C14.2048 19.613 15.0285 19.3754 15.8368 19.08C18.7857 18.0388 21.4564 16.1687 23.6019 13.6426C25.7474 16.1687 28.418 18.0388 31.3669 19.08C32.1752 19.3754 32.9989 19.613 33.8333 19.7915C34.4941 19.9392 35.1786 20.0466 35.863 20.1272C35.6546 22.0382 35.3512 23.9343 34.9544 25.8062C34.7538 26.7595 34.5295 27.659 34.2817 28.4914C34.2595 28.5829 34.2319 28.6726 34.1991 28.7599C33.5491 31.1063 32.5859 33.3251 31.3433 35.3385C29.524 38.3874 26.7586 40.5408 23.6019 41.3666C20.4423 40.532 17.6744 38.3752 15.8486 35.3251C14.6125 33.3093 13.6535 31.0909 13.0046 28.7465C12.9719 28.6637 12.9443 28.5785 12.922 28.4914C12.686 27.659 12.4618 26.7595 12.2612 25.8062C11.8543 23.936 11.547 22.0395 11.3407 20.1272C12.0251 20.0466 12.7096 19.9392 13.3704 19.7915ZM2.39557 28.4914H10.4556C11.153 31.2364 12.207 33.8475 13.5829 36.238C13.9291 38.8562 14.4901 41.4318 15.2586 43.931H8.34325C4.7845 39.7723 2.67141 34.2869 2.39557 28.4914ZM11.0339 46.6161H16.2263C16.781 48.021 17.4866 49.3423 18.3268 50.5498C15.6942 49.7903 13.217 48.4542 11.0339 46.6161ZM23.6019 51.3151C21.0647 51.3151 18.3386 47.1263 16.7337 40.2792C18.6383 42.1068 20.894 43.3991 23.3186 44.0518C23.5045 44.1055 23.6992 44.1055 23.8851 44.0518C26.308 43.4011 28.5633 42.1136 30.47 40.2926C28.8651 47.1263 26.1391 51.3151 23.6019 51.3151ZM28.8769 50.5633C29.713 49.3476 30.4182 48.0224 30.9775 46.6161H36.1817C33.9934 48.4557 31.5129 49.7961 28.8769 50.5633ZM38.8605 43.931H31.9451C32.7151 41.4424 33.2723 38.8751 33.6091 36.2649C34.9936 33.8684 36.0519 31.2476 36.7481 28.4914H44.8082C44.5323 34.2869 42.4192 39.7723 38.8605 43.931Z" fill="#14B082"/>
</svg>
