<svg width="44" height="51" viewBox="0 0 44 51" fill="none" xmlns="http://www.w3.org/2000/svg">
<path fill-rule="evenodd" clip-rule="evenodd" d="M7.49612 29.7396L6.86262 30.4622C5.55131 31.9128 4.72728 33.8395 4.53332 35.9085C4.43351 37.1543 4.57516 38.4098 4.94825 39.5866C5.32135 40.7633 5.9168 41.8326 6.69265 42.719C7.38453 43.5132 8.20821 44.143 9.11584 44.5719C10.0235 45.0009 10.997 45.2204 11.9798 45.2178C12.2049 45.2178 12.4317 45.2062 12.6602 45.1832C14.4758 44.9609 16.1652 44.0209 17.4341 42.5269L18.0688 41.8037C18.7509 41.0244 19.1339 39.9694 19.1339 38.8696C19.1339 37.7698 18.7509 36.7148 18.0688 35.9355L12.6376 29.7396C11.9459 28.9855 11.0249 28.5645 10.0669 28.5645C9.10882 28.5645 8.18782 28.9855 7.49612 29.7396ZM16.9375 38.8693C16.9381 39.085 16.9012 39.2987 16.8289 39.498C16.7565 39.6974 16.6501 39.8784 16.5159 40.0307L15.8813 40.754C14.9768 41.8324 13.7687 42.5162 12.4671 42.6864C12.3015 42.7027 12.142 42.7109 11.9803 42.7109C11.2447 42.7097 10.5173 42.5339 9.84476 42.1947C9.1722 41.8555 8.56921 41.3604 8.07438 40.7411C7.57954 40.1218 7.20373 39.3918 6.97094 38.5979C6.73815 37.8039 6.65352 36.9634 6.72246 36.1301C6.87149 34.6477 7.47088 33.2709 8.41714 32.2377L9.05065 31.5151C9.18398 31.3626 9.3425 31.2415 9.51709 31.1589C9.69167 31.0763 9.87889 31.0338 10.068 31.0338C10.257 31.0338 10.4443 31.0763 10.6188 31.1589C10.7934 31.2415 10.9519 31.3626 11.0853 31.5151L16.5164 37.7116C16.6502 37.8635 16.7562 38.044 16.8285 38.2427C16.9007 38.4413 16.9378 38.6543 16.9375 38.8693ZM42.3611 2.16919C41.1195 0.739657 39.208 0.125645 36.6921 0.338474C36.6439 0.339935 36.596 0.348598 36.5498 0.364224L32.5616 1.32917C32.3523 1.37907 32.1601 1.49667 32.0081 1.66785C31.856 1.83902 31.7506 2.05647 31.7046 2.29411L31.0126 6.04216L27.7281 6.84451C27.5192 6.89276 27.3274 7.01014 27.1769 7.18193C27.0264 7.35371 26.9239 7.57223 26.8821 7.81009L26.1018 11.9963L19.1917 19.893L17.9838 18.5118C17.5298 17.9916 16.9898 17.5787 16.3949 17.297C15.8 17.0152 15.162 16.8701 14.5177 16.8701C13.8733 16.8701 13.2353 17.0152 12.6405 17.297C12.0456 17.5787 11.5056 17.9916 11.0516 18.5118L3.45999 27.1756C1.24441 29.7003 0 33.122 0 36.6895C0 40.2571 1.24441 43.6788 3.45999 46.2034L3.63603 46.4169C4.7312 47.6646 6.03183 48.6544 7.46353 49.3297C8.89523 50.0051 10.4299 50.3527 11.9798 50.3527C13.5297 50.3527 15.0644 50.0051 16.4961 49.3297C17.9278 48.6544 19.2284 47.6646 20.3236 46.4169L27.9146 37.753C28.8331 36.7019 29.3486 35.28 29.3486 33.7978C29.3486 32.3157 28.8331 30.8937 27.9146 29.8426L20.7407 21.6578L27.8815 13.51C28.0325 13.3384 28.1358 13.1201 28.1784 12.8822L28.8814 9.12158L32.166 8.3318C32.3749 8.27899 32.5659 8.15855 32.716 7.98499C32.8661 7.81144 32.9689 7.59218 33.0119 7.35367L33.715 3.60624L36.9228 2.82902C38.7438 2.6909 40.0429 3.0544 40.8121 3.93208C41.5808 4.79658 41.8998 6.28826 41.7784 8.36946L41.0974 12.0296L37.8129 12.8194C37.6036 12.8738 37.412 12.9945 37.2604 13.1674C37.1087 13.3404 37.0032 13.5586 36.9559 13.7969L36.2639 17.545L32.9683 18.3473C32.759 18.3955 32.567 18.5133 32.4165 18.6857L28.4179 23.2487L26.9235 21.5435L33.3833 14.173C33.5891 13.936 33.7045 13.6162 33.7045 13.2831C33.7045 12.9499 33.5891 12.6301 33.3833 12.3931C33.2818 12.277 33.1611 12.1849 33.0282 12.1221C32.8953 12.0592 32.7528 12.0269 32.6088 12.0269C32.4649 12.0269 32.3223 12.0592 32.1894 12.1221C32.0565 12.1849 31.9359 12.277 31.8343 12.3931L24.5948 20.6665C24.3891 20.901 24.2736 21.2188 24.2736 21.5501C24.2736 21.8814 24.3891 22.1992 24.5948 22.4338L27.6376 25.9056C27.7392 26.0241 27.8605 26.1184 27.9945 26.1831C28.1284 26.2478 28.2724 26.2815 28.4179 26.2823C28.7112 26.2781 28.9913 26.1428 29.1976 25.9056L33.7459 20.7167L37.415 19.8265C37.6239 19.7782 37.8156 19.6609 37.9661 19.4893C38.1166 19.3176 38.2192 19.0992 38.261 18.8615L38.964 15.1128L42.2491 14.3111C42.458 14.2626 42.6496 14.1452 42.8 13.9734C42.9505 13.8017 43.0531 13.5833 43.0951 13.3455L43.9405 8.79513C43.9515 8.74553 43.9515 8.68274 43.9626 8.63252C44.1535 5.76655 43.6133 3.58554 42.3611 2.16919ZM26.3546 31.6136C26.8611 32.1932 27.1455 32.9773 27.1455 33.7947C27.1455 34.612 26.8611 35.3961 26.3546 35.9757L18.7635 44.6395C17.8744 45.6565 16.8173 46.4635 15.6531 47.0142C14.4889 47.5648 13.2406 47.8483 11.9798 47.8483C10.719 47.8483 9.47063 47.5648 8.30644 47.0142C7.14226 46.4635 6.08522 45.6565 5.19607 44.6395L5.009 44.4392C3.20797 42.3818 2.19677 39.5964 2.19677 36.6927C2.19677 33.789 3.20797 31.0035 5.009 28.9461L12.6006 20.2822C12.8515 19.9963 13.1494 19.7694 13.4774 19.6146C13.8054 19.4598 14.1571 19.3802 14.5122 19.3802C14.8673 19.3802 15.2189 19.4598 15.5469 19.6146C15.8749 19.7694 16.1729 19.9963 16.4237 20.2822L26.3546 31.6136Z" fill="#008EFF"/>
</svg>
