<svg width="54" height="54" viewBox="0 0 54 54" fill="none" xmlns="http://www.w3.org/2000/svg">
<path fill-rule="evenodd" clip-rule="evenodd" d="M49.2555 22.5701C48.4308 22.5736 47.6272 22.8676 46.9554 23.4117C46.2835 23.9559 45.7762 24.7235 45.5034 25.6089H37.5067C37.462 25.6064 37.4171 25.6116 37.3737 25.6241L33.1692 17.3144C33.2041 17.2723 33.2353 17.2264 33.2623 17.1774L37.2939 9.29303C37.5386 9.35395 37.7884 9.3844 38.039 9.38385C38.9172 9.37923 39.7698 9.04651 40.4657 8.43686C41.1615 7.82721 41.6621 6.97439 41.8903 6.00954C42.1186 5.0447 42.062 4.02125 41.7291 3.09659C41.3963 2.17194 40.8057 1.39728 40.0481 0.891735C39.4393 0.483705 38.7455 0.268867 38.039 0.269593C37.3408 0.270966 36.6551 0.480658 36.0504 0.877761C35.4457 1.27486 34.9431 1.84548 34.5928 2.53264C34.1787 3.34733 33.9948 4.28725 34.0662 5.22488C34.1376 6.16252 34.4608 7.05246 34.992 7.77397L30.9604 15.6583C30.9338 15.6912 30.9194 15.7347 30.9205 15.7794H22.3517C22.3444 15.7368 22.3309 15.6959 22.3118 15.6583L18.2936 7.77397C18.6723 7.24815 18.9489 6.63709 19.1052 5.98095C19.2609 5.30702 19.2786 4.60143 19.157 3.91849C19.0354 3.23554 18.7777 2.59345 18.4037 2.04162C18.0297 1.48979 17.5494 1.04295 16.9997 0.735478C16.4501 0.428003 15.8458 0.268098 15.2333 0.268068C14.5267 0.267343 13.8329 0.48218 13.2241 0.890211C12.4651 1.39605 11.8735 2.172 11.5406 3.09833C11.2076 4.02466 11.1519 5.0499 11.3819 6.01585C11.612 6.9818 12.115 7.83478 12.8135 8.44319C13.5119 9.0516 14.3669 9.38161 15.2466 9.38233C15.4927 9.38288 15.7381 9.35242 15.9784 9.29151L20.01 17.1758C20.0337 17.2356 20.0704 17.2877 20.1164 17.3272L15.9119 25.6233C15.864 25.6101 15.8147 25.605 15.7655 25.6082H7.78218C7.46721 24.5947 6.84744 23.7404 6.03241 23.1965C5.21738 22.6525 4.25958 22.4539 3.32827 22.6357C2.39697 22.8175 1.55213 23.368 0.943088 24.1899C0.334042 25.0118 0 26.0522 0 27.1272C0 28.2022 0.334042 29.2426 0.943088 30.0645C1.55213 30.8864 2.39697 31.4369 3.32827 31.6187C4.25958 31.8005 5.21738 31.6019 6.03241 31.058C6.84744 30.514 7.46721 29.6598 7.78218 28.6463H15.7655C15.8147 28.6495 15.864 28.6444 15.9119 28.6311L20.1164 36.9257C20.07 36.9648 20.0333 37.017 20.01 37.0771L15.9784 44.9766C15.7382 44.9154 15.4927 44.8847 15.2466 44.885C14.3673 44.8866 13.5128 45.2172 12.8149 45.8258C12.117 46.4343 11.6143 47.2871 11.3844 48.2527C11.1544 49.2183 11.21 50.2431 11.5424 51.1692C11.8749 52.0954 12.4658 52.8714 13.2241 53.3779C13.8329 53.7859 14.5267 54.0007 15.2333 54C15.8468 53.9993 16.452 53.8385 17.0023 53.5298C17.5526 53.2212 18.0332 52.7729 18.4073 52.2197C18.7813 51.6664 19.0388 51.0228 19.1598 50.3386C19.2808 49.6543 19.2621 48.9475 19.1052 48.2727C18.9525 47.6167 18.6703 47.009 18.2802 46.4956L22.3118 38.6113C22.331 38.5734 22.3445 38.5322 22.3517 38.4894H30.9205C30.9278 38.5322 30.9413 38.5734 30.9604 38.6113L34.992 46.4956C34.6011 47.0061 34.3228 47.6153 34.1804 48.2727C34.0412 48.8521 34.006 49.4574 34.0768 50.0526C34.1477 50.6478 34.3232 51.2206 34.5928 51.7369C34.9431 52.4241 35.4457 52.9947 36.0504 53.3918C36.6551 53.7889 37.3408 53.9986 38.039 54C38.7455 54.0007 39.4393 53.7859 40.0481 53.3779C40.806 52.8725 41.3969 52.0978 41.73 51.173C42.063 50.2482 42.1198 49.2245 41.8915 48.2594C41.6632 47.2943 41.1625 46.4413 40.4664 45.8316C39.7703 45.2219 38.9174 44.8893 38.039 44.885C37.7884 44.8847 37.5386 44.9154 37.2939 44.9766L33.2623 37.0771C33.2355 37.0278 33.2043 36.9819 33.1692 36.9401L37.3737 28.6304C37.4171 28.6429 37.462 28.648 37.5067 28.6455H45.5034C45.7504 29.4285 46.1817 30.1192 46.7502 30.6423C47.3188 31.1654 48.0027 31.5008 48.7273 31.6119C49.452 31.723 50.1895 31.6055 50.8595 31.2722C51.5294 30.939 52.106 30.4028 52.5264 29.7221C52.9468 29.0415 53.1947 28.2425 53.2432 27.4125C53.2917 26.5824 53.1389 25.7532 52.8014 25.0153C52.4639 24.2773 51.9547 23.659 51.3294 23.2278C50.7041 22.7966 49.9867 22.5691 49.2555 22.5701ZM36.8814 4.06682C36.9989 3.83613 37.1678 3.64471 37.371 3.51185C37.5742 3.37898 37.8046 3.30935 38.039 3.30995C38.272 3.31342 38.5002 3.38604 38.7009 3.52063C38.9017 3.65521 39.0681 3.84708 39.1837 4.07729C39.2993 4.30749 39.36 4.56805 39.36 4.83317C39.3599 5.09828 39.299 5.35877 39.1833 5.58888C39 5.92986 38.7081 6.1771 38.3684 6.27893C38.0287 6.38077 37.6675 6.32933 37.3604 6.13536C37.0586 5.93032 36.8395 5.59892 36.75 5.21225C36.6604 4.82557 36.7076 4.41439 36.8814 4.06682ZM15.9119 6.13307C15.6047 6.32705 15.2436 6.37851 14.9039 6.27667C14.5642 6.17484 14.2722 5.9276 14.089 5.58662C13.9733 5.35651 13.9124 5.09599 13.9123 4.83088C13.9122 4.56576 13.973 4.30523 14.0885 4.07502C14.2041 3.84482 14.3706 3.65292 14.5713 3.51834C14.7721 3.38375 15.0003 3.31114 15.2333 3.30766C15.5275 3.30401 15.8145 3.41144 16.0494 3.61313C16.2843 3.81482 16.4538 4.0994 16.5313 4.42235C16.6089 4.74529 16.5902 5.08837 16.4781 5.39791C16.366 5.70746 16.1669 5.96599 15.9119 6.13307ZM4.01671 28.6508C3.75243 28.6519 3.49383 28.5637 3.27364 28.3974C3.05346 28.2311 2.8816 27.9942 2.77982 27.7167C2.67805 27.4393 2.65094 27.1337 2.70193 26.8387C2.75292 26.5437 2.87972 26.2725 3.06627 26.0595C3.25281 25.8465 3.49072 25.7013 3.74985 25.6423C4.00898 25.5833 4.27769 25.613 4.52194 25.7279C4.76619 25.8427 4.97499 26.0374 5.12191 26.2873C5.26884 26.5372 5.34726 26.8311 5.34726 27.1318C5.34692 27.5336 5.20677 27.9189 4.95745 28.2036C4.70813 28.4882 4.36991 28.649 4.01671 28.6508ZM16.3909 50.2073C16.2079 50.5485 15.9159 50.7961 15.5762 50.8981C15.2364 51 14.8752 50.9486 14.568 50.7545C14.4163 50.6538 14.2835 50.52 14.1773 50.3608C14.0711 50.2016 13.9935 50.0202 13.949 49.8268C13.9045 49.6335 13.894 49.4321 13.918 49.2341C13.942 49.0362 14.0001 48.8455 14.089 48.6731C14.2092 48.4461 14.3789 48.2582 14.5817 48.1278C14.7846 47.9975 15.0136 47.929 15.2466 47.9291C15.4809 47.9275 15.7114 47.9968 15.9145 48.1298C16.1175 48.2629 16.2859 48.4549 16.4023 48.6863C16.5187 48.9177 16.579 49.1801 16.577 49.4467C16.575 49.7133 16.5107 49.9745 16.3909 50.2035V50.2073ZM37.3604 48.1267C37.6671 47.9306 38.0289 47.8779 38.3691 47.9799C38.7093 48.0819 39.0013 48.3305 39.1833 48.6731C39.2721 48.8455 39.3302 49.0362 39.3542 49.2341C39.3782 49.4321 39.3677 49.6335 39.3232 49.8268C39.2787 50.0202 39.2011 50.2016 39.0949 50.3608C38.9887 50.52 38.856 50.6538 38.7043 50.7545C38.5038 50.8935 38.2737 50.967 38.039 50.9672C37.8045 50.9683 37.574 50.8988 37.3707 50.7659C37.1674 50.633 36.9986 50.4413 36.8814 50.2103C36.7064 49.86 36.6586 49.4458 36.748 49.0559C36.8375 48.666 37.0572 48.3312 37.3604 48.1229V48.1267ZM30.854 35.4566H22.4316L18.227 27.131L22.4316 18.8213H30.854L35.0585 27.131L30.854 35.4566ZM49.2555 28.6508C48.9913 28.6519 48.7327 28.5637 48.5125 28.3974C48.2923 28.2311 48.1204 27.9942 48.0187 27.7167C47.9169 27.4393 47.8898 27.1337 47.9408 26.8387C47.9918 26.5437 48.1186 26.2725 48.3051 26.0595C48.4916 25.8465 48.7296 25.7013 48.9887 25.6423C49.2478 25.5833 49.5165 25.613 49.7608 25.7279C50.005 25.8427 50.2138 26.0374 50.3607 26.2873C50.5077 26.5372 50.5861 26.8311 50.5861 27.1318C50.5857 27.5336 50.4456 27.9189 50.1963 28.2036C49.947 28.4882 49.6087 28.649 49.2555 28.6508Z" fill="#FFC947"/>
</svg>
