<svg width="265" height="167" viewBox="0 0 265 167" fill="none" xmlns="http://www.w3.org/2000/svg">
<g filter="url(#filter0_d_475_4310)">
<rect x="24" y="8" width="217" height="119" rx="7.05054" fill="white"/>
<rect x="24.1763" y="8.17626" width="216.647" height="118.647" rx="6.87428" stroke="#EAEAEA" stroke-width="0.352527"/>
<path d="M40.7641 28.3564L40.0502 26.2465C39.9973 26.1126 39.9409 25.9557 39.881 25.7759C39.8211 25.5926 39.7611 25.3952 39.7012 25.1836C39.6483 25.3987 39.5919 25.5979 39.532 25.7812C39.472 25.9645 39.4156 26.1231 39.3628 26.2571L38.6542 28.3564H40.7641ZM43.6037 31.3018H42.2182C42.0631 31.3018 41.938 31.2665 41.8428 31.196C41.7476 31.122 41.6753 31.0285 41.626 30.9157L41.1712 29.5726H38.2417L37.787 30.9157C37.7482 31.0144 37.6777 31.1043 37.5755 31.1854C37.4767 31.263 37.3534 31.3018 37.2053 31.3018H35.8093L38.7917 23.5973H40.6213L43.6037 31.3018ZM46.009 31.3018H44.2111V23.5973H46.009V31.3018ZM54.1999 25.1625C54.147 25.2471 54.0906 25.3106 54.0307 25.3529C53.9743 25.3952 53.9002 25.4163 53.8086 25.4163C53.7275 25.4163 53.6394 25.3916 53.5442 25.3423C53.4525 25.2894 53.3468 25.2312 53.2269 25.1678C53.1106 25.1043 52.9766 25.0479 52.825 24.9986C52.6734 24.9457 52.5007 24.9193 52.3068 24.9193C51.9719 24.9193 51.7216 24.9915 51.5559 25.1361C51.3938 25.2771 51.3127 25.4692 51.3127 25.7124C51.3127 25.8676 51.362 25.9962 51.4608 26.0985C51.5595 26.2007 51.6881 26.2888 51.8468 26.3629C52.0089 26.4369 52.1922 26.5056 52.3967 26.5691C52.6047 26.629 52.8162 26.6978 53.0313 26.7753C53.2463 26.8493 53.4561 26.9375 53.6605 27.0397C53.8685 27.1419 54.0518 27.2724 54.2105 27.431C54.3726 27.5896 54.5031 27.7835 54.6018 28.0127C54.7005 28.2383 54.7498 28.5115 54.7498 28.8323C54.7498 29.1884 54.6881 29.5215 54.5648 29.8317C54.4414 30.1419 54.2616 30.4134 54.0254 30.6461C53.7927 30.8752 53.5036 31.0568 53.1582 31.1907C52.8162 31.3211 52.4267 31.3864 51.9895 31.3864C51.7498 31.3864 51.5048 31.3617 51.2545 31.3123C51.0078 31.263 50.768 31.1942 50.5354 31.1061C50.3027 31.0144 50.0841 30.9069 49.8797 30.7835C49.6752 30.6602 49.4972 30.5227 49.3456 30.3711L49.8744 29.5356C49.9167 29.4757 49.9713 29.4263 50.0383 29.3875C50.1088 29.3452 50.1846 29.3241 50.2657 29.3241C50.3714 29.3241 50.4772 29.3576 50.583 29.4246C50.6922 29.4915 50.8139 29.5656 50.9478 29.6466C51.0853 29.7277 51.2422 29.8018 51.4184 29.8687C51.5947 29.9357 51.8027 29.9692 52.0424 29.9692C52.3667 29.9692 52.6188 29.8987 52.7986 29.7577C52.9784 29.6132 53.0683 29.3858 53.0683 29.0755C53.0683 28.8958 53.0189 28.7495 52.9202 28.6367C52.8215 28.5238 52.6911 28.4304 52.5289 28.3564C52.3703 28.2824 52.1887 28.2171 51.9843 28.1607C51.7798 28.1043 51.57 28.0426 51.355 27.9757C51.14 27.9052 50.9302 27.8206 50.7257 27.7218C50.5213 27.6196 50.338 27.4874 50.1758 27.3253C50.0172 27.1596 49.8885 26.9551 49.7898 26.7119C49.6911 26.4651 49.6417 26.1619 49.6417 25.8023C49.6417 25.5133 49.6999 25.2312 49.8162 24.9563C49.9325 24.6813 50.1035 24.4363 50.3291 24.2213C50.5548 24.0062 50.8315 23.8352 51.1593 23.7083C51.4872 23.5779 51.8626 23.5127 52.2857 23.5127C52.5219 23.5127 52.751 23.5321 52.9731 23.5708C53.1987 23.6061 53.412 23.6607 53.6129 23.7348C53.8139 23.8053 54.0007 23.8916 54.1734 23.9939C54.3497 24.0926 54.5066 24.2054 54.6441 24.3323L54.1999 25.1625ZM57.333 31.3864C57.0721 31.3864 56.8412 31.3493 56.6403 31.2753C56.4428 31.1978 56.2754 31.0902 56.1379 30.9528C56.0039 30.8117 55.9017 30.6425 55.8312 30.4451C55.7607 30.2477 55.7254 30.0274 55.7254 29.7841V26.9498H55.2601C55.1755 26.9498 55.1032 26.9234 55.0433 26.8705C54.9834 26.8141 54.9534 26.733 54.9534 26.6272V25.9874L55.8259 25.8182L56.1485 24.4804C56.1908 24.3111 56.3106 24.2265 56.5081 24.2265H57.3647V25.8288H58.7237V26.9498H57.3647V29.6731C57.3647 29.8 57.3947 29.9058 57.4546 29.9904C57.518 30.0714 57.6079 30.112 57.7243 30.112C57.7842 30.112 57.8336 30.1067 57.8723 30.0961C57.9146 30.082 57.9499 30.0679 57.9781 30.0538C58.0098 30.0362 58.038 30.0221 58.0627 30.0115C58.0909 29.9974 58.1226 29.9904 58.1579 29.9904C58.2072 29.9904 58.246 30.0027 58.2742 30.0274C58.3059 30.0485 58.3377 30.0838 58.3694 30.1331L58.8665 30.9105C58.6549 31.0691 58.417 31.1889 58.1526 31.27C57.8882 31.3476 57.615 31.3864 57.333 31.3864ZM60.9635 26.6643C61.1327 26.3681 61.3266 26.1355 61.5452 25.9663C61.7673 25.797 62.0211 25.7124 62.3067 25.7124C62.5534 25.7124 62.7544 25.7706 62.9095 25.8869L62.8037 27.0926C62.7861 27.1701 62.7561 27.223 62.7138 27.2512C62.6751 27.2794 62.6204 27.2935 62.5499 27.2935C62.5217 27.2935 62.4847 27.2918 62.4389 27.2882C62.393 27.2847 62.3454 27.2812 62.2961 27.2777C62.2467 27.2706 62.1956 27.2653 62.1427 27.2618C62.0934 27.2547 62.0476 27.2512 62.0053 27.2512C61.7655 27.2512 61.5734 27.3147 61.4289 27.4416C61.2879 27.5685 61.168 27.7448 61.0693 27.9704V31.3018H59.43V25.8182H60.403C60.4841 25.8182 60.5511 25.8252 60.604 25.8394C60.6604 25.8535 60.7062 25.8764 60.7414 25.9081C60.7802 25.9363 60.8084 25.9751 60.826 26.0244C60.8472 26.0738 60.8648 26.1337 60.8789 26.2042L60.9635 26.6643ZM66.2457 29.0703C65.9178 29.0844 65.6481 29.1126 65.4366 29.1549C65.2251 29.1972 65.0576 29.25 64.9343 29.3135C64.8109 29.377 64.7245 29.4492 64.6751 29.5303C64.6293 29.6114 64.6064 29.6995 64.6064 29.7947C64.6064 29.9815 64.6575 30.1137 64.7598 30.1913C64.862 30.2653 65.0118 30.3023 65.2092 30.3023C65.4207 30.3023 65.6058 30.2653 65.7645 30.1913C65.9231 30.1173 66.0835 29.9974 66.2457 29.8317V29.0703ZM63.295 26.5797C63.6264 26.2871 63.993 26.0703 64.3949 25.9292C64.8003 25.7847 65.2339 25.7124 65.6957 25.7124C66.0271 25.7124 66.325 25.7671 66.5894 25.8764C66.8573 25.9821 67.0829 26.1319 67.2662 26.3258C67.4531 26.5162 67.5958 26.7436 67.6945 27.008C67.7932 27.2724 67.8426 27.5614 67.8426 27.8752V31.3018H67.0917C66.9366 31.3018 66.8185 31.2806 66.7374 31.2383C66.6599 31.196 66.5947 31.1079 66.5418 30.9739L66.4254 30.6725C66.288 30.7888 66.1558 30.8911 66.0289 30.9792C65.9019 31.0673 65.7697 31.1431 65.6323 31.2066C65.4983 31.2665 65.3538 31.3106 65.1986 31.3388C65.0471 31.3705 64.8779 31.3864 64.691 31.3864C64.4407 31.3864 64.2133 31.3546 64.0089 31.2912C63.8044 31.2242 63.6299 31.1273 63.4854 31.0003C63.3444 30.8734 63.2351 30.7166 63.1575 30.5297C63.08 30.3394 63.0412 30.1208 63.0412 29.874C63.0412 29.6766 63.0905 29.4774 63.1892 29.2765C63.288 29.072 63.4589 28.8869 63.7022 28.7213C63.9454 28.552 64.2733 28.411 64.6857 28.2982C65.0982 28.1854 65.6182 28.122 66.2457 28.1079V27.8752C66.2457 27.5544 66.1787 27.3235 66.0447 27.1825C65.9143 27.0379 65.7274 26.9657 65.4842 26.9657C65.2903 26.9657 65.1317 26.9868 65.0083 27.0291C64.8849 27.0714 64.7739 27.119 64.6751 27.1719C64.58 27.2248 64.4865 27.2724 64.3949 27.3147C64.3032 27.357 64.1939 27.3781 64.067 27.3781C63.9542 27.3781 63.859 27.3499 63.7815 27.2935C63.7039 27.2371 63.6405 27.1701 63.5911 27.0926L63.295 26.5797ZM70.7696 31.3864C70.5088 31.3864 70.2779 31.3493 70.0769 31.2753C69.8795 31.1978 69.712 31.0902 69.5746 30.9528C69.4406 30.8117 69.3384 30.6425 69.2679 30.4451C69.1974 30.2477 69.1621 30.0274 69.1621 29.7841V26.9498H68.6968C68.6122 26.9498 68.5399 26.9234 68.48 26.8705C68.42 26.8141 68.3901 26.733 68.3901 26.6272V25.9874L69.2626 25.8182L69.5851 24.4804C69.6274 24.3111 69.7473 24.2265 69.9447 24.2265H70.8014V25.8288H72.1603V26.9498H70.8014V29.6731C70.8014 29.8 70.8313 29.9058 70.8912 29.9904C70.9547 30.0714 71.0446 30.112 71.1609 30.112C71.2209 30.112 71.2702 30.1067 71.309 30.0961C71.3513 30.082 71.3865 30.0679 71.4148 30.0538C71.4465 30.0362 71.4747 30.0221 71.4994 30.0115C71.5276 29.9974 71.5593 29.9904 71.5945 29.9904C71.6439 29.9904 71.6827 30.0027 71.7109 30.0274C71.7426 30.0485 71.7743 30.0838 71.8061 30.1331L72.3031 30.9105C72.0916 31.0691 71.8536 31.1889 71.5893 31.27C71.3249 31.3476 71.0516 31.3864 70.7696 31.3864ZM76.2258 27.9016C76.2258 27.7712 76.2081 27.6443 76.1729 27.5209C76.1411 27.3975 76.0865 27.2882 76.0089 27.1931C75.9349 27.0943 75.8362 27.015 75.7128 26.9551C75.5894 26.8952 75.4396 26.8652 75.2634 26.8652C74.9531 26.8652 74.7099 26.9551 74.5336 27.1349C74.3574 27.3112 74.241 27.5667 74.1846 27.9016H76.2258ZM74.1635 28.8535C74.2163 29.3117 74.3556 29.6449 74.5812 29.8529C74.8068 30.0573 75.0977 30.1596 75.4537 30.1596C75.6441 30.1596 75.808 30.1367 75.9455 30.0908C76.083 30.045 76.2046 29.9939 76.3104 29.9375C76.4196 29.8811 76.5184 29.83 76.6065 29.7841C76.6981 29.7383 76.7933 29.7154 76.892 29.7154C77.0225 29.7154 77.1212 29.763 77.1882 29.8582L77.6641 30.4451C77.4949 30.639 77.3115 30.7976 77.1141 30.921C76.9202 31.0409 76.7193 31.1361 76.5113 31.2066C76.3068 31.2736 76.1006 31.3194 75.8926 31.3441C75.6881 31.3723 75.4925 31.3864 75.3057 31.3864C74.9214 31.3864 74.5601 31.3247 74.2216 31.2013C73.8867 31.0744 73.5924 30.8875 73.3386 30.6408C73.0883 30.394 72.8891 30.0873 72.741 29.7207C72.5965 29.354 72.5242 28.9275 72.5242 28.441C72.5242 28.0744 72.5859 27.7271 72.7093 27.3993C72.8362 27.0714 73.016 26.7841 73.2487 26.5374C73.4849 26.2906 73.7686 26.0949 74.1 25.9504C74.4349 25.8059 74.8121 25.7336 75.2316 25.7336C75.5947 25.7336 75.9261 25.79 76.2258 25.9028C76.5289 26.0156 76.788 26.1795 77.0031 26.3946C77.2216 26.6096 77.3909 26.874 77.5107 27.1878C77.6341 27.498 77.6958 27.8505 77.6958 28.2453C77.6958 28.3687 77.6905 28.4692 77.6799 28.5468C77.6694 28.6243 77.65 28.686 77.6218 28.7318C77.5936 28.7777 77.5548 28.8094 77.5054 28.827C77.4596 28.8446 77.3997 28.8535 77.3256 28.8535H74.1635ZM80.6048 28.2718C80.8762 28.2718 81.0719 28.2048 81.1918 28.0708C81.3151 27.9334 81.3768 27.7571 81.3768 27.5421C81.3768 27.32 81.3151 27.1455 81.1918 27.0186C81.0719 26.8916 80.8762 26.8282 80.6048 26.8282C80.3334 26.8282 80.1359 26.8916 80.0126 27.0186C79.8927 27.1455 79.8328 27.32 79.8328 27.5421C79.8328 27.6478 79.8469 27.7448 79.8751 27.8329C79.9068 27.921 79.9544 27.9986 80.0178 28.0656C80.0813 28.129 80.1606 28.1801 80.2558 28.2189C80.3545 28.2542 80.4708 28.2718 80.6048 28.2718ZM81.8739 31.5027C81.8739 31.3723 81.8157 31.2788 81.6994 31.2224C81.5831 31.1625 81.4315 31.1202 81.2446 31.0955C81.0578 31.0709 80.848 31.0568 80.6154 31.0532C80.3862 31.0462 80.1571 31.0321 79.9279 31.0109C79.8257 31.0814 79.7411 31.1607 79.6741 31.2489C79.6107 31.3335 79.5789 31.4304 79.5789 31.5397C79.5789 31.6173 79.5948 31.6878 79.6265 31.7512C79.6618 31.8147 79.7217 31.8693 79.8063 31.9152C79.8909 31.961 80.0037 31.9962 80.1448 32.0209C80.2893 32.0491 80.4708 32.0632 80.6894 32.0632C80.9256 32.0632 81.1195 32.0491 81.2711 32.0209C81.4227 31.9927 81.5425 31.9539 81.6307 31.9046C81.7223 31.8552 81.7858 31.7953 81.821 31.7248C81.8563 31.6578 81.8739 31.5838 81.8739 31.5027ZM83.492 25.9874V26.5849C83.492 26.6766 83.4656 26.7489 83.4127 26.8017C83.3633 26.8546 83.277 26.8952 83.1536 26.9234L82.757 27.0133C82.7781 27.0908 82.794 27.1701 82.8046 27.2512C82.8187 27.3323 82.8257 27.4169 82.8257 27.505C82.8257 27.78 82.7676 28.0268 82.6512 28.2453C82.5384 28.4639 82.3815 28.6508 82.1806 28.8059C81.9832 28.9575 81.7487 29.0755 81.4773 29.1602C81.2059 29.2412 80.915 29.2818 80.6048 29.2818C80.5202 29.2818 80.4373 29.28 80.3563 29.2765C80.2752 29.2694 80.1959 29.2589 80.1183 29.2448C79.9985 29.3188 79.9385 29.4016 79.9385 29.4933C79.9385 29.585 79.9879 29.6519 80.0866 29.6942C80.1853 29.733 80.3157 29.7612 80.4779 29.7788C80.6401 29.7929 80.8234 29.8035 81.0278 29.8106C81.2358 29.8141 81.4473 29.8264 81.6624 29.8476C81.8774 29.8652 82.0872 29.8969 82.2916 29.9428C82.4996 29.9886 82.6847 30.0626 82.8469 30.1649C83.009 30.2671 83.1395 30.4046 83.2382 30.5773C83.3369 30.7465 83.3862 30.9633 83.3862 31.2277C83.3862 31.4745 83.3263 31.716 83.2064 31.9522C83.0866 32.1884 82.9103 32.3981 82.6777 32.5814C82.445 32.7647 82.1594 32.911 81.821 33.0203C81.4826 33.1331 81.0948 33.1895 80.6577 33.1895C80.2276 33.1895 79.8557 33.149 79.5419 33.0679C79.2317 32.9868 78.9726 32.8793 78.7646 32.7454C78.5601 32.6149 78.4086 32.4633 78.3098 32.2906C78.2111 32.1179 78.1618 31.9381 78.1618 31.7512C78.1618 31.508 78.2323 31.3053 78.3733 31.1431C78.5143 30.981 78.7117 30.8505 78.9655 30.7518C78.8316 30.6707 78.7258 30.5667 78.6483 30.4398C78.5707 30.3129 78.5319 30.149 78.5319 29.9481C78.5319 29.867 78.546 29.7824 78.5742 29.6942C78.6024 29.6026 78.6465 29.5144 78.7064 29.4298C78.7699 29.3417 78.8475 29.2589 78.9391 29.1813C79.0308 29.1038 79.14 29.035 79.267 28.9751C78.9814 28.8235 78.7558 28.6243 78.5901 28.3775C78.4244 28.1273 78.3416 27.8364 78.3416 27.505C78.3416 27.2301 78.3997 26.9833 78.5161 26.7647C78.6324 26.5426 78.791 26.3558 78.992 26.2042C79.1965 26.0491 79.4362 25.931 79.7111 25.8499C79.9861 25.7653 80.284 25.723 80.6048 25.723C81.0701 25.723 81.4826 25.8111 81.8422 25.9874H83.492ZM85.8521 25.8182V31.3018H84.2128V25.8182H85.8521ZM86.0213 24.3164C86.0213 24.4469 85.9948 24.5703 85.942 24.6866C85.8891 24.7994 85.8168 24.8999 85.7251 24.988C85.6335 25.0726 85.526 25.1413 85.4026 25.1942C85.2827 25.2436 85.1541 25.2683 85.0166 25.2683C84.8826 25.2683 84.7575 25.2436 84.6411 25.1942C84.5248 25.1413 84.4208 25.0726 84.3291 24.988C84.241 24.8999 84.1705 24.7994 84.1176 24.6866C84.0683 24.5703 84.0436 24.4469 84.0436 24.3164C84.0436 24.1825 84.0683 24.0573 84.1176 23.941C84.1705 23.8247 84.241 23.7224 84.3291 23.6343C84.4208 23.5462 84.5248 23.4774 84.6411 23.4281C84.7575 23.3787 84.8826 23.354 85.0166 23.354C85.1541 23.354 85.2827 23.3787 85.4026 23.4281C85.526 23.4774 85.6335 23.5462 85.7251 23.6343C85.8168 23.7224 85.8891 23.8247 85.942 23.941C85.9948 24.0573 86.0213 24.1825 86.0213 24.3164ZM91.0247 27.119C90.9754 27.179 90.9278 27.2265 90.8819 27.2618C90.8361 27.297 90.7709 27.3147 90.6863 27.3147C90.6052 27.3147 90.5312 27.2953 90.4642 27.2565C90.4007 27.2177 90.3285 27.1754 90.2474 27.1296C90.1663 27.0802 90.0711 27.0362 89.9618 26.9974C89.8526 26.9586 89.7168 26.9392 89.5547 26.9392C89.3537 26.9392 89.1792 26.9762 89.0312 27.0503C88.8866 27.1243 88.7668 27.2301 88.6716 27.3676C88.5764 27.505 88.5059 27.6743 88.4601 27.8752C88.4142 28.0726 88.3913 28.2965 88.3913 28.5468C88.3913 29.072 88.4918 29.4757 88.6927 29.7577C88.8972 30.0397 89.1775 30.1807 89.5335 30.1807C89.7239 30.1807 89.8737 30.1578 89.983 30.112C90.0958 30.0626 90.191 30.0097 90.2685 29.9533C90.3461 29.8934 90.4166 29.8388 90.4801 29.7894C90.547 29.7401 90.6299 29.7154 90.7286 29.7154C90.859 29.7154 90.9577 29.763 91.0247 29.8582L91.5006 30.4451C91.3314 30.639 91.1534 30.7976 90.9665 30.921C90.7797 31.0409 90.5876 31.1361 90.3902 31.2066C90.1963 31.2736 90.0006 31.3194 89.8032 31.3441C89.6058 31.3723 89.4137 31.3864 89.2268 31.3864C88.8919 31.3864 88.5711 31.3229 88.2644 31.196C87.9612 31.0691 87.6933 30.8858 87.4607 30.6461C87.2315 30.4028 87.0482 30.1049 86.9107 29.7524C86.7768 29.3999 86.7098 28.998 86.7098 28.5468C86.7098 28.1519 86.7679 27.7835 86.8843 27.4416C87.0041 27.0961 87.1786 26.7982 87.4078 26.5479C87.6404 26.2941 87.926 26.0949 88.2644 25.9504C88.6064 25.8059 89.0012 25.7336 89.4489 25.7336C89.879 25.7336 90.2562 25.8023 90.5805 25.9398C90.9048 26.0773 91.1974 26.2782 91.4583 26.5426L91.0247 27.119ZM96.5746 31.3018H94.7767V23.5973H96.5746V31.3018ZM99.3004 26.4104C99.4061 26.3117 99.5154 26.2201 99.6282 26.1355C99.741 26.0509 99.8609 25.9804 99.9878 25.924C100.118 25.864 100.257 25.8182 100.406 25.7865C100.557 25.7512 100.721 25.7336 100.897 25.7336C101.197 25.7336 101.461 25.7865 101.69 25.8922C101.923 25.9945 102.119 26.139 102.277 26.3258C102.436 26.5092 102.556 26.7295 102.637 26.9868C102.718 27.2406 102.759 27.5174 102.759 27.817V31.3018H101.119V27.817C101.119 27.5491 101.058 27.3411 100.934 27.1931C100.811 27.0415 100.629 26.9657 100.39 26.9657C100.21 26.9657 100.041 27.0045 99.882 27.082C99.7269 27.156 99.5753 27.2583 99.4273 27.3887V31.3018H97.788V25.8182H98.8033C99.0078 25.8182 99.1417 25.9099 99.2052 26.0932L99.3004 26.4104ZM107.304 27.0186C107.262 27.0855 107.216 27.1331 107.167 27.1613C107.121 27.1895 107.061 27.2036 106.987 27.2036C106.909 27.2036 106.832 27.1878 106.754 27.156C106.677 27.1208 106.592 27.0838 106.501 27.045C106.412 27.0062 106.312 26.971 106.199 26.9392C106.086 26.904 105.958 26.8864 105.813 26.8864C105.605 26.8864 105.445 26.9269 105.332 27.008C105.223 27.0855 105.168 27.1948 105.168 27.3358C105.168 27.4381 105.203 27.5227 105.274 27.5896C105.348 27.6566 105.445 27.7166 105.565 27.7694C105.684 27.8188 105.82 27.8664 105.972 27.9122C106.123 27.958 106.278 28.0092 106.437 28.0656C106.596 28.122 106.751 28.1889 106.902 28.2665C107.054 28.3405 107.19 28.4339 107.31 28.5468C107.429 28.656 107.525 28.79 107.595 28.9486C107.669 29.1073 107.706 29.2976 107.706 29.5197C107.706 29.7912 107.657 30.0415 107.558 30.2706C107.459 30.4998 107.311 30.6972 107.114 30.8629C106.92 31.0285 106.679 31.1572 106.389 31.2489C106.104 31.3405 105.774 31.3864 105.401 31.3864C105.214 31.3864 105.027 31.3687 104.84 31.3335C104.653 31.2982 104.472 31.2506 104.295 31.1907C104.123 31.1308 103.962 31.0603 103.814 30.9792C103.666 30.8946 103.539 30.8047 103.434 30.7095L103.814 30.1067C103.857 30.0362 103.909 29.9815 103.973 29.9428C104.04 29.9005 104.124 29.8793 104.227 29.8793C104.322 29.8793 104.406 29.9005 104.481 29.9428C104.558 29.9851 104.641 30.0309 104.729 30.0803C104.817 30.1296 104.919 30.1754 105.036 30.2177C105.156 30.26 105.305 30.2812 105.485 30.2812C105.612 30.2812 105.72 30.2689 105.808 30.2442C105.896 30.216 105.966 30.179 106.019 30.1331C106.072 30.0873 106.111 30.0362 106.136 29.9798C106.16 29.9234 106.173 29.8652 106.173 29.8053C106.173 29.696 106.136 29.6061 106.062 29.5356C105.988 29.4651 105.891 29.4052 105.771 29.3558C105.651 29.3029 105.513 29.2553 105.358 29.213C105.207 29.1672 105.052 29.1161 104.893 29.0597C104.734 29.0033 104.577 28.9363 104.422 28.8587C104.271 28.7777 104.135 28.6772 104.015 28.5573C103.895 28.4339 103.798 28.2841 103.724 28.1079C103.65 27.9316 103.613 27.7183 103.613 27.468C103.613 27.2354 103.657 27.015 103.746 26.807C103.837 26.5955 103.973 26.4104 104.153 26.2518C104.332 26.0932 104.558 25.968 104.83 25.8764C105.101 25.7812 105.418 25.7336 105.781 25.7336C105.979 25.7336 106.169 25.7512 106.352 25.7865C106.539 25.8217 106.714 25.8711 106.876 25.9345C107.038 25.998 107.186 26.0738 107.32 26.1619C107.454 26.2465 107.572 26.3399 107.674 26.4422L107.304 27.0186ZM110.205 25.8182V31.3018H108.566V25.8182H110.205ZM110.375 24.3164C110.375 24.4469 110.348 24.5703 110.295 24.6866C110.242 24.7994 110.17 24.8999 110.078 24.988C109.987 25.0726 109.879 25.1413 109.756 25.1942C109.636 25.2436 109.507 25.2683 109.37 25.2683C109.236 25.2683 109.111 25.2436 108.994 25.1942C108.878 25.1413 108.774 25.0726 108.682 24.988C108.594 24.8999 108.524 24.7994 108.471 24.6866C108.422 24.5703 108.397 24.4469 108.397 24.3164C108.397 24.1825 108.422 24.0573 108.471 23.941C108.524 23.8247 108.594 23.7224 108.682 23.6343C108.774 23.5462 108.878 23.4774 108.994 23.4281C109.111 23.3787 109.236 23.354 109.37 23.354C109.507 23.354 109.636 23.3787 109.756 23.4281C109.879 23.4774 109.987 23.5462 110.078 23.6343C110.17 23.7224 110.242 23.8247 110.295 23.941C110.348 24.0573 110.375 24.1825 110.375 24.3164ZM113.437 28.2718C113.709 28.2718 113.904 28.2048 114.024 28.0708C114.148 27.9334 114.209 27.7571 114.209 27.5421C114.209 27.32 114.148 27.1455 114.024 27.0186C113.904 26.8916 113.709 26.8282 113.437 26.8282C113.166 26.8282 112.968 26.8916 112.845 27.0186C112.725 27.1455 112.665 27.32 112.665 27.5421C112.665 27.6478 112.679 27.7448 112.708 27.8329C112.739 27.921 112.787 27.9986 112.85 28.0656C112.914 28.129 112.993 28.1801 113.088 28.2189C113.187 28.2542 113.303 28.2718 113.437 28.2718ZM114.706 31.5027C114.706 31.3723 114.648 31.2788 114.532 31.2224C114.416 31.1625 114.264 31.1202 114.077 31.0955C113.89 31.0709 113.681 31.0568 113.448 31.0532C113.219 31.0462 112.99 31.0321 112.76 31.0109C112.658 31.0814 112.574 31.1607 112.507 31.2489C112.443 31.3335 112.411 31.4304 112.411 31.5397C112.411 31.6173 112.427 31.6878 112.459 31.7512C112.494 31.8147 112.554 31.8693 112.639 31.9152C112.723 31.961 112.836 31.9962 112.977 32.0209C113.122 32.0491 113.303 32.0632 113.522 32.0632C113.758 32.0632 113.952 32.0491 114.104 32.0209C114.255 31.9927 114.375 31.9539 114.463 31.9046C114.555 31.8552 114.618 31.7953 114.654 31.7248C114.689 31.6578 114.706 31.5838 114.706 31.5027ZM116.325 25.9874V26.5849C116.325 26.6766 116.298 26.7489 116.245 26.8017C116.196 26.8546 116.109 26.8952 115.986 26.9234L115.59 27.0133C115.611 27.0908 115.627 27.1701 115.637 27.2512C115.651 27.3323 115.658 27.4169 115.658 27.505C115.658 27.78 115.6 28.0268 115.484 28.2453C115.371 28.4639 115.214 28.6508 115.013 28.8059C114.816 28.9575 114.581 29.0755 114.31 29.1602C114.038 29.2412 113.748 29.2818 113.437 29.2818C113.353 29.2818 113.27 29.28 113.189 29.2765C113.108 29.2694 113.028 29.2589 112.951 29.2448C112.831 29.3188 112.771 29.4016 112.771 29.4933C112.771 29.585 112.82 29.6519 112.919 29.6942C113.018 29.733 113.148 29.7612 113.31 29.7788C113.473 29.7929 113.656 29.8035 113.86 29.8106C114.068 29.8141 114.28 29.8264 114.495 29.8476C114.71 29.8652 114.92 29.8969 115.124 29.9428C115.332 29.9886 115.517 30.0626 115.679 30.1649C115.842 30.2671 115.972 30.4046 116.071 30.5773C116.169 30.7465 116.219 30.9633 116.219 31.2277C116.219 31.4745 116.159 31.716 116.039 31.9522C115.919 32.1884 115.743 32.3981 115.51 32.5814C115.278 32.7647 114.992 32.911 114.654 33.0203C114.315 33.1331 113.927 33.1895 113.49 33.1895C113.06 33.1895 112.688 33.149 112.374 33.0679C112.064 32.9868 111.805 32.8793 111.597 32.7454C111.393 32.6149 111.241 32.4633 111.142 32.2906C111.044 32.1179 110.994 31.9381 110.994 31.7512C110.994 31.508 111.065 31.3053 111.206 31.1431C111.347 30.981 111.544 30.8505 111.798 30.7518C111.664 30.6707 111.558 30.5667 111.481 30.4398C111.403 30.3129 111.364 30.149 111.364 29.9481C111.364 29.867 111.379 29.7824 111.407 29.6942C111.435 29.6026 111.479 29.5144 111.539 29.4298C111.602 29.3417 111.68 29.2589 111.772 29.1813C111.863 29.1038 111.973 29.035 112.099 28.9751C111.814 28.8235 111.588 28.6243 111.423 28.3775C111.257 28.1273 111.174 27.8364 111.174 27.505C111.174 27.2301 111.232 26.9833 111.349 26.7647C111.465 26.5426 111.624 26.3558 111.825 26.2042C112.029 26.0491 112.269 25.931 112.544 25.8499C112.819 25.7653 113.117 25.723 113.437 25.723C113.903 25.723 114.315 25.8111 114.675 25.9874H116.325ZM118.648 26.2994C118.845 26.1302 119.058 25.9945 119.287 25.8922C119.52 25.7865 119.797 25.7336 120.118 25.7336C120.417 25.7336 120.682 25.7865 120.911 25.8922C121.143 25.9945 121.339 26.139 121.498 26.3258C121.656 26.5092 121.776 26.7295 121.857 26.9868C121.938 27.2406 121.979 27.5174 121.979 27.817V31.3018H120.34V27.817C120.34 27.5491 120.278 27.3411 120.155 27.1931C120.031 27.0415 119.85 26.9657 119.61 26.9657C119.43 26.9657 119.261 27.0045 119.102 27.082C118.947 27.156 118.796 27.2583 118.648 27.3887V31.3018H117.008V23.3858H118.648V26.2994ZM124.929 31.3864C124.668 31.3864 124.438 31.3493 124.237 31.2753C124.039 31.1978 123.872 31.0902 123.734 30.9528C123.6 30.8117 123.498 30.6425 123.428 30.4451C123.357 30.2477 123.322 30.0274 123.322 29.7841V26.9498H122.856C122.772 26.9498 122.7 26.9234 122.64 26.8705C122.58 26.8141 122.55 26.733 122.55 26.6272V25.9874L123.422 25.8182L123.745 24.4804C123.787 24.3111 123.907 24.2265 124.104 24.2265H124.961V25.8288H126.32V26.9498H124.961V29.6731C124.961 29.8 124.991 29.9058 125.051 29.9904C125.114 30.0714 125.204 30.112 125.321 30.112C125.381 30.112 125.43 30.1067 125.469 30.0961C125.511 30.082 125.546 30.0679 125.574 30.0538C125.606 30.0362 125.634 30.0221 125.659 30.0115C125.687 29.9974 125.719 29.9904 125.754 29.9904C125.804 29.9904 125.842 30.0027 125.871 30.0274C125.902 30.0485 125.934 30.0838 125.966 30.1331L126.463 30.9105C126.251 31.0691 126.013 31.1889 125.749 31.27C125.485 31.3476 125.211 31.3864 124.929 31.3864ZM130.511 27.0186C130.469 27.0855 130.423 27.1331 130.374 27.1613C130.328 27.1895 130.268 27.2036 130.194 27.2036C130.116 27.2036 130.039 27.1878 129.961 27.156C129.884 27.1208 129.799 27.0838 129.707 27.045C129.619 27.0062 129.519 26.971 129.406 26.9392C129.293 26.904 129.164 26.8864 129.02 26.8864C128.812 26.8864 128.652 26.9269 128.539 27.008C128.429 27.0855 128.375 27.1948 128.375 27.3358C128.375 27.4381 128.41 27.5227 128.481 27.5896C128.555 27.6566 128.652 27.7166 128.771 27.7694C128.891 27.8188 129.027 27.8664 129.179 27.9122C129.33 27.958 129.485 28.0092 129.644 28.0656C129.803 28.122 129.958 28.1889 130.109 28.2665C130.261 28.3405 130.397 28.4339 130.516 28.5468C130.636 28.656 130.731 28.79 130.802 28.9486C130.876 29.1073 130.913 29.2976 130.913 29.5197C130.913 29.7912 130.864 30.0415 130.765 30.2706C130.666 30.4998 130.518 30.6972 130.321 30.8629C130.127 31.0285 129.885 31.1572 129.596 31.2489C129.311 31.3405 128.981 31.3864 128.608 31.3864C128.421 31.3864 128.234 31.3687 128.047 31.3335C127.86 31.2982 127.679 31.2506 127.502 31.1907C127.33 31.1308 127.169 31.0603 127.021 30.9792C126.873 30.8946 126.746 30.8047 126.64 30.7095L127.021 30.1067C127.063 30.0362 127.116 29.9815 127.18 29.9428C127.247 29.9005 127.331 29.8793 127.434 29.8793C127.529 29.8793 127.613 29.9005 127.687 29.9428C127.765 29.9851 127.848 30.0309 127.936 30.0803C128.024 30.1296 128.126 30.1754 128.243 30.2177C128.362 30.26 128.512 30.2812 128.692 30.2812C128.819 30.2812 128.927 30.2689 129.015 30.2442C129.103 30.216 129.173 30.179 129.226 30.1331C129.279 30.0873 129.318 30.0362 129.343 29.9798C129.367 29.9234 129.38 29.8652 129.38 29.8053C129.38 29.696 129.343 29.6061 129.268 29.5356C129.194 29.4651 129.098 29.4052 128.978 29.3558C128.858 29.3029 128.72 29.2553 128.565 29.213C128.414 29.1672 128.259 29.1161 128.1 29.0597C127.941 29.0033 127.784 28.9363 127.629 28.8587C127.478 28.7777 127.342 28.6772 127.222 28.5573C127.102 28.4339 127.005 28.2841 126.931 28.1079C126.857 27.9316 126.82 27.7183 126.82 27.468C126.82 27.2354 126.864 27.015 126.952 26.807C127.044 26.5955 127.18 26.4104 127.36 26.2518C127.539 26.0932 127.765 25.968 128.036 25.8764C128.308 25.7812 128.625 25.7336 128.988 25.7336C129.186 25.7336 129.376 25.7512 129.559 25.7865C129.746 25.8217 129.921 25.8711 130.083 25.9345C130.245 25.998 130.393 26.0738 130.527 26.1619C130.661 26.2465 130.779 26.3399 130.881 26.4422L130.511 27.0186Z" fill="#1D4374"/>
<g clip-path="url(#clip0_475_4310)">
<g filter="url(#filter1_f_475_4310)">
<ellipse cx="221.052" cy="20.3664" rx="28.8127" ry="8.79032" transform="rotate(-30 221.052 20.3664)" fill="#1D4374"/>
</g>
<g filter="url(#filter2_f_475_4310)">
<ellipse cx="226.8" cy="33.304" rx="14.2085" ry="7.10095" transform="rotate(15 226.8 33.304)" fill="#EDAE40"/>
</g>
</g>
<rect x="36.2405" y="48.2469" width="192.715" height="66.4043" rx="4.40659" stroke="#EAEAEA" stroke-width="0.587545"/>
<circle cx="47.1103" cy="62.3535" r="1.76264" fill="#EDAE40"/>
<path d="M60.8899 59.3611V65.3535H59.6643V61.907C59.6643 61.8275 59.6657 61.7411 59.6684 61.6479C59.6739 61.5546 59.6821 61.46 59.6931 61.3641L58.1015 64.4446C58.0521 64.5405 57.9849 64.6132 57.8999 64.6626C57.8177 64.7119 57.7231 64.7366 57.6161 64.7366H57.427C57.32 64.7366 57.2241 64.7119 57.1391 64.6626C57.0568 64.6132 56.991 64.5405 56.9416 64.4446L55.35 61.3559C55.3582 61.4546 55.3651 61.5519 55.3705 61.6479C55.376 61.7411 55.3788 61.8275 55.3788 61.907V65.3535H54.1531V59.3611H55.2143C55.2746 59.3611 55.3267 59.3625 55.3705 59.3653C55.4172 59.368 55.4583 59.3762 55.4939 59.3899C55.5296 59.4036 55.5611 59.4256 55.5885 59.4557C55.6187 59.4832 55.6475 59.5229 55.6749 59.575L57.2172 62.6144C57.272 62.7186 57.3241 62.8269 57.3735 62.9393C57.4256 63.0517 57.4749 63.1669 57.5215 63.2848C57.5682 63.1641 57.6161 63.0462 57.6655 62.9311C57.7176 62.8159 57.7724 62.7062 57.83 62.602L59.3682 59.575C59.3956 59.5229 59.423 59.4832 59.4505 59.4557C59.4806 59.4256 59.5135 59.4036 59.5492 59.3899C59.5848 59.3762 59.6246 59.368 59.6684 59.3653C59.715 59.3625 59.7685 59.3611 59.8288 59.3611H60.8899ZM64.0134 63.6179C63.7584 63.6289 63.5486 63.6508 63.3841 63.6837C63.2196 63.7166 63.0894 63.7577 62.9934 63.8071C62.8974 63.8565 62.8302 63.9127 62.7919 63.9757C62.7562 64.0388 62.7384 64.1073 62.7384 64.1814C62.7384 64.3267 62.7782 64.4295 62.8577 64.4898C62.9372 64.5474 63.0537 64.5762 63.2073 64.5762C63.3718 64.5762 63.5157 64.5474 63.6391 64.4898C63.7625 64.4322 63.8872 64.339 64.0134 64.2102V63.6179ZM61.7184 61.6808C61.9762 61.4532 62.2613 61.2846 62.5739 61.1749C62.8892 61.0625 63.2264 61.0063 63.5856 61.0063C63.8434 61.0063 64.0751 61.0488 64.2807 61.1338C64.4891 61.216 64.6646 61.3326 64.8071 61.4834C64.9525 61.6314 65.0635 61.8083 65.1403 62.0139C65.2171 62.2195 65.2554 62.4444 65.2554 62.6884V65.3535H64.6714C64.5508 65.3535 64.4589 65.3371 64.3959 65.3042C64.3355 65.2713 64.2848 65.2027 64.2437 65.0985L64.1532 64.8641C64.0463 64.9546 63.9435 65.0341 63.8447 65.1026C63.746 65.1712 63.6432 65.2301 63.5363 65.2795C63.4321 65.3261 63.3197 65.3604 63.199 65.3823C63.0811 65.407 62.9495 65.4193 62.8042 65.4193C62.6095 65.4193 62.4327 65.3946 62.2736 65.3453C62.1146 65.2932 61.9789 65.2178 61.8665 65.1191C61.7568 65.0204 61.6718 64.8984 61.6115 64.753C61.5512 64.605 61.521 64.435 61.521 64.2431C61.521 64.0895 61.5594 63.9346 61.6362 63.7783C61.7129 63.6193 61.8459 63.4753 62.0351 63.3465C62.2243 63.2149 62.4793 63.1052 62.8001 63.0174C63.1209 62.9297 63.5253 62.8803 64.0134 62.8694V62.6884C64.0134 62.4389 63.9613 62.2593 63.8571 62.1496C63.7556 62.0372 63.6103 61.981 63.4211 61.981C63.2703 61.981 63.1469 61.9975 63.051 62.0304C62.955 62.0633 62.8686 62.1003 62.7919 62.1414C62.7178 62.1825 62.6452 62.2195 62.5739 62.2525C62.5026 62.2854 62.4176 62.3018 62.3189 62.3018C62.2311 62.3018 62.1571 62.2799 62.0968 62.236C62.0365 62.1921 61.9871 62.14 61.9487 62.0797L61.7184 61.6808ZM67.2631 61.7466C67.3947 61.5163 67.5455 61.3353 67.7155 61.2037C67.8883 61.0721 68.0857 61.0063 68.3078 61.0063C68.4997 61.0063 68.656 61.0515 68.7767 61.142L68.6944 62.0797C68.6807 62.14 68.6574 62.1812 68.6245 62.2031C68.5943 62.225 68.5518 62.236 68.497 62.236C68.475 62.236 68.4463 62.2346 68.4106 62.2319C68.375 62.2291 68.338 62.2264 68.2996 62.2237C68.2612 62.2182 68.2214 62.2141 68.1803 62.2113C68.1419 62.2058 68.1063 62.2031 68.0734 62.2031C67.8869 62.2031 67.7375 62.2525 67.6251 62.3512C67.5154 62.4499 67.4222 62.587 67.3454 62.7624V65.3535H66.0704V61.0885H66.8272C66.8902 61.0885 66.9423 61.094 66.9835 61.105C67.0273 61.1159 67.063 61.1338 67.0904 61.1584C67.1206 61.1804 67.1425 61.2105 67.1562 61.2489C67.1727 61.2873 67.1864 61.3339 67.1973 61.3888L67.2631 61.7466ZM70.4862 59.1966V62.6473H70.6754C70.7549 62.6473 70.8153 62.6363 70.8564 62.6144C70.8975 62.5897 70.9386 62.5499 70.9798 62.4951L71.7859 61.2942C71.8352 61.2256 71.8914 61.1749 71.9545 61.142C72.0176 61.1063 72.0985 61.0885 72.1972 61.0885H73.3652L72.263 62.6062C72.1588 62.7432 72.0354 62.8557 71.8928 62.9434C71.9559 62.99 72.0135 63.0449 72.0656 63.1079C72.1177 63.1682 72.167 63.2368 72.2136 63.3136L73.4146 65.3535H72.263C72.167 65.3535 72.0847 65.3384 72.0162 65.3083C71.9477 65.2754 71.8901 65.2192 71.8435 65.1396L71.0374 63.6302C70.999 63.5617 70.9592 63.5178 70.9181 63.4986C70.877 63.4767 70.8153 63.4657 70.733 63.4657H70.4862V65.3535H69.2113V59.1966H70.4862ZM76.266 62.709C76.266 62.6075 76.2523 62.5088 76.2249 62.4129C76.2002 62.3169 76.1577 62.2319 76.0974 62.1579C76.0398 62.0811 75.963 62.0194 75.8671 61.9728C75.7711 61.9262 75.6546 61.9029 75.5175 61.9029C75.2762 61.9029 75.087 61.9728 74.9499 62.1126C74.8128 62.2497 74.7223 62.4485 74.6785 62.709H76.266ZM74.662 63.4493C74.7032 63.8057 74.8115 64.0648 74.9869 64.2266C75.1624 64.3856 75.3886 64.4651 75.6656 64.4651C75.8136 64.4651 75.9411 64.4473 76.048 64.4117C76.155 64.376 76.2496 64.3363 76.3318 64.2924C76.4168 64.2485 76.4936 64.2088 76.5621 64.1731C76.6334 64.1375 76.7075 64.1197 76.7842 64.1197C76.8857 64.1197 76.9625 64.1567 77.0146 64.2307L77.3847 64.6872C77.2531 64.838 77.1105 64.9614 76.957 65.0574C76.8062 65.1506 76.6499 65.2246 76.4881 65.2795C76.3291 65.3316 76.1687 65.3672 76.0069 65.3864C75.8479 65.4084 75.6957 65.4193 75.5504 65.4193C75.2515 65.4193 74.9705 65.3713 74.7073 65.2754C74.4468 65.1767 74.2178 65.0313 74.0204 64.8394C73.8258 64.6475 73.6708 64.4089 73.5557 64.1238C73.4433 63.8386 73.3871 63.5069 73.3871 63.1285C73.3871 62.8433 73.435 62.5733 73.531 62.3183C73.6297 62.0633 73.7695 61.8398 73.9505 61.6479C74.1342 61.4559 74.3549 61.3038 74.6127 61.1913C74.8732 61.0789 75.1665 61.0227 75.4928 61.0227C75.7752 61.0227 76.033 61.0666 76.266 61.1543C76.5018 61.2421 76.7034 61.3696 76.8706 61.5368C77.0406 61.7041 77.1722 61.9097 77.2654 62.1537C77.3614 62.395 77.4094 62.6692 77.4094 62.9763C77.4094 63.0723 77.4053 63.1504 77.3971 63.2107C77.3888 63.2711 77.3737 63.319 77.3518 63.3547C77.3299 63.3903 77.2997 63.415 77.2613 63.4287C77.2257 63.4424 77.1791 63.4493 77.1215 63.4493H74.662ZM79.517 65.4193C79.3141 65.4193 79.1345 65.3905 78.9782 65.333C78.8247 65.2726 78.6945 65.189 78.5875 65.0821C78.4833 64.9724 78.4038 64.8408 78.349 64.6872C78.2941 64.5337 78.2667 64.3623 78.2667 64.1731V61.9687H77.9048C77.839 61.9687 77.7828 61.9481 77.7362 61.907C77.6896 61.8631 77.6662 61.8 77.6662 61.7178V61.2201L78.3449 61.0885L78.5957 60.048C78.6286 59.9164 78.7219 59.8506 78.8754 59.8506H79.5417V61.0968H80.5987V61.9687H79.5417V64.0868C79.5417 64.1855 79.565 64.2677 79.6116 64.3335C79.661 64.3966 79.7309 64.4281 79.8214 64.4281C79.868 64.4281 79.9064 64.424 79.9365 64.4158C79.9694 64.4048 79.9968 64.3939 80.0188 64.3829C80.0435 64.3692 80.0654 64.3582 80.0846 64.35C80.1065 64.339 80.1312 64.3335 80.1586 64.3335C80.197 64.3335 80.2272 64.3431 80.2491 64.3623C80.2738 64.3788 80.2984 64.4062 80.3231 64.4446L80.7097 65.0492C80.5452 65.1726 80.3601 65.2658 80.1545 65.3288C79.9489 65.3892 79.7364 65.4193 79.517 65.4193ZM87.257 60.4634H85.5708V65.3535H84.1806V60.4634H82.4944V59.3611H87.257V60.4634ZM88.2449 61.7466C88.3765 61.5163 88.5273 61.3353 88.6973 61.2037C88.8701 61.0721 89.0675 61.0063 89.2896 61.0063C89.4815 61.0063 89.6378 61.0515 89.7584 61.142L89.6762 62.0797C89.6625 62.14 89.6392 62.1812 89.6063 62.2031C89.5761 62.225 89.5336 62.236 89.4788 62.236C89.4568 62.236 89.428 62.2346 89.3924 62.2319C89.3568 62.2291 89.3197 62.2264 89.2814 62.2237C89.243 62.2182 89.2032 62.2141 89.1621 62.2113C89.1237 62.2058 89.0881 62.2031 89.0551 62.2031C88.8687 62.2031 88.7193 62.2525 88.6069 62.3512C88.4972 62.4499 88.404 62.587 88.3272 62.7624V65.3535H87.0522V61.0885H87.809C87.872 61.0885 87.9241 61.094 87.9653 61.105C88.0091 61.1159 88.0448 61.1338 88.0722 61.1584C88.1023 61.1804 88.1243 61.2105 88.138 61.2489C88.1544 61.2873 88.1682 61.3339 88.1791 61.3888L88.2449 61.7466ZM92.7735 62.709C92.7735 62.6075 92.7598 62.5088 92.7324 62.4129C92.7077 62.3169 92.6652 62.2319 92.6049 62.1579C92.5473 62.0811 92.4705 62.0194 92.3746 61.9728C92.2786 61.9262 92.1621 61.9029 92.025 61.9029C91.7837 61.9029 91.5945 61.9728 91.4574 62.1126C91.3203 62.2497 91.2298 62.4485 91.186 62.709H92.7735ZM91.1695 63.4493C91.2106 63.8057 91.319 64.0648 91.4944 64.2266C91.6699 64.3856 91.8961 64.4651 92.173 64.4651C92.3211 64.4651 92.4486 64.4473 92.5555 64.4117C92.6625 64.376 92.7571 64.3363 92.8393 64.2924C92.9243 64.2485 93.0011 64.2088 93.0696 64.1731C93.1409 64.1375 93.215 64.1197 93.2917 64.1197C93.3932 64.1197 93.47 64.1567 93.5221 64.2307L93.8922 64.6872C93.7606 64.838 93.618 64.9614 93.4645 65.0574C93.3137 65.1506 93.1574 65.2246 92.9956 65.2795C92.8366 65.3316 92.6762 65.3672 92.5144 65.3864C92.3554 65.4084 92.2032 65.4193 92.0579 65.4193C91.759 65.4193 91.478 65.3713 91.2148 65.2754C90.9543 65.1767 90.7253 65.0313 90.5279 64.8394C90.3332 64.6475 90.1783 64.4089 90.0632 64.1238C89.9508 63.8386 89.8945 63.5069 89.8945 63.1285C89.8945 62.8433 89.9425 62.5733 90.0385 62.3183C90.1372 62.0633 90.277 61.8398 90.458 61.6479C90.6417 61.4559 90.8624 61.3038 91.1202 61.1913C91.3806 61.0789 91.674 61.0227 92.0003 61.0227C92.2827 61.0227 92.5405 61.0666 92.7735 61.1543C93.0093 61.2421 93.2108 61.3696 93.3781 61.5368C93.5481 61.7041 93.6797 61.9097 93.7729 62.1537C93.8689 62.395 93.9169 62.6692 93.9169 62.9763C93.9169 63.0723 93.9128 63.1504 93.9045 63.2107C93.8963 63.2711 93.8812 63.319 93.8593 63.3547C93.8374 63.3903 93.8072 63.415 93.7688 63.4287C93.7332 63.4424 93.6866 63.4493 93.629 63.4493H91.1695ZM95.7311 61.5492C95.8134 61.4724 95.8984 61.4011 95.9861 61.3353C96.0739 61.2695 96.1671 61.2147 96.2658 61.1708C96.3673 61.1242 96.4756 61.0885 96.5907 61.0638C96.7086 61.0364 96.8361 61.0227 96.9732 61.0227C97.2063 61.0227 97.4119 61.0638 97.5901 61.1461C97.7711 61.2256 97.9233 61.338 98.0467 61.4834C98.17 61.6259 98.2633 61.7973 98.3263 61.9975C98.3894 62.1949 98.4209 62.4101 98.4209 62.6432V65.3535H97.146V62.6432C97.146 62.4348 97.098 62.273 97.002 62.1579C96.906 62.04 96.7648 61.981 96.5784 61.981C96.4386 61.981 96.3069 62.0112 96.1836 62.0715C96.0629 62.1291 95.945 62.2086 95.8299 62.31V65.3535H94.5549V61.0885H95.3445C95.5036 61.0885 95.6078 61.1598 95.6571 61.3024L95.7311 61.5492ZM101.833 62.2319C101.737 62.125 101.633 62.0509 101.52 62.0098C101.408 61.9659 101.29 61.944 101.167 61.944C101.049 61.944 100.941 61.9673 100.842 62.0139C100.743 62.0605 100.657 62.1359 100.583 62.2401C100.511 62.3416 100.455 62.4745 100.414 62.6391C100.373 62.8036 100.352 63.0024 100.352 63.2354C100.352 63.4602 100.369 63.6494 100.402 63.803C100.435 63.9565 100.48 64.0813 100.537 64.1773C100.598 64.2705 100.669 64.3377 100.751 64.3788C100.834 64.4199 100.925 64.4405 101.027 64.4405C101.12 64.4405 101.204 64.4322 101.278 64.4158C101.355 64.3966 101.424 64.3706 101.488 64.3377C101.551 64.3047 101.61 64.2636 101.664 64.2143C101.722 64.1622 101.778 64.1032 101.833 64.0374V62.2319ZM103.108 59.1966V65.3535H102.318C102.159 65.3535 102.055 65.2822 102.006 65.1396L101.907 64.8147C101.822 64.9052 101.733 64.9875 101.64 65.0615C101.546 65.1355 101.445 65.2 101.335 65.2548C101.228 65.3069 101.112 65.3467 100.986 65.3741C100.862 65.4042 100.728 65.4193 100.583 65.4193C100.361 65.4193 100.155 65.37 99.9658 65.2713C99.7766 65.1726 99.6135 65.03 99.4764 64.8435C99.3393 64.6571 99.231 64.4295 99.1515 64.1608C99.0747 63.8894 99.0363 63.5809 99.0363 63.2354C99.0363 62.9174 99.0802 62.6226 99.1679 62.3512C99.2557 62.077 99.379 61.8412 99.5381 61.6438C99.6998 61.4436 99.8931 61.2873 100.118 61.1749C100.343 61.0625 100.591 61.0063 100.862 61.0063C101.084 61.0063 101.271 61.0378 101.422 61.1009C101.573 61.1639 101.71 61.2489 101.833 61.3559V59.1966H103.108Z" fill="black"/>
<rect x="45.3474" y="76.7549" width="174.501" height="28.7897" rx="3.52527" fill="#FAFAFA"/>
<path d="M51.7573 86.333C51.7957 86.0643 51.8697 85.8271 51.9794 85.6214C52.0891 85.4131 52.2276 85.239 52.3948 85.0991C52.5648 84.9593 52.7581 84.8537 52.9747 84.7824C53.1941 84.7084 53.4299 84.6714 53.6821 84.6714C53.9316 84.6714 54.1619 84.707 54.3731 84.7783C54.5842 84.8496 54.7652 84.9511 54.916 85.0827C55.0695 85.2143 55.1888 85.3733 55.2738 85.5598C55.3588 85.7462 55.4013 85.9532 55.4013 86.1808C55.4013 86.3672 55.3766 86.5345 55.3272 86.6826C55.2806 86.8279 55.2121 86.9554 55.1216 87.065C55.0339 87.1747 54.9269 87.2679 54.8008 87.3447C54.6747 87.4215 54.5335 87.4846 54.3772 87.5339C54.761 87.6326 55.0489 87.8026 55.2409 88.0439C55.4356 88.2824 55.5329 88.5813 55.5329 88.9405C55.5329 89.2119 55.4808 89.456 55.3766 89.6726C55.2752 89.8892 55.1353 90.0743 54.9571 90.2278C54.7789 90.3786 54.5705 90.4951 54.3319 90.5774C54.0961 90.6569 53.8425 90.6967 53.5711 90.6967C53.2585 90.6967 52.9912 90.6583 52.7691 90.5815C52.547 90.502 52.3592 90.3937 52.2056 90.2566C52.0521 90.1195 51.9259 89.9577 51.8272 89.7713C51.7285 89.5821 51.6449 89.3778 51.5764 89.1585L51.893 89.0269C51.9753 88.9912 52.0548 88.9816 52.1316 88.9981C52.2111 89.0145 52.2687 89.0598 52.3043 89.1338C52.34 89.2106 52.3838 89.3024 52.4359 89.4094C52.4908 89.5163 52.5648 89.6191 52.658 89.7178C52.7513 89.8165 52.8692 89.9001 53.0117 89.9687C53.1571 90.0372 53.3408 90.0715 53.5628 90.0715C53.7685 90.0715 53.9481 90.0386 54.1016 89.9728C54.2579 89.9043 54.3868 89.8165 54.4882 89.7096C54.5924 89.6027 54.6706 89.4834 54.7227 89.3518C54.7748 89.2202 54.8008 89.0899 54.8008 88.9611C54.8008 88.802 54.7802 88.6567 54.7391 88.5251C54.698 88.3935 54.6212 88.2797 54.5088 88.1837C54.3964 88.0878 54.2415 88.0124 54.044 87.9575C53.8494 87.9027 53.5985 87.8753 53.2914 87.8753V87.3447C53.5437 87.342 53.7575 87.3146 53.933 87.2625C54.1112 87.2104 54.2552 87.1391 54.3648 87.0486C54.4773 86.9581 54.5582 86.8498 54.6075 86.7237C54.6596 86.5976 54.6856 86.4577 54.6856 86.3042C54.6856 86.1342 54.6582 85.9861 54.6034 85.86C54.5513 85.7339 54.4786 85.6297 54.3854 85.5474C54.2922 85.4652 54.1811 85.4035 54.0523 85.3623C53.9261 85.3212 53.7891 85.3007 53.641 85.3007C53.4929 85.3007 53.3545 85.3226 53.2256 85.3665C53.0995 85.4103 52.9871 85.472 52.8883 85.5515C52.7924 85.6283 52.7115 85.7202 52.6457 85.8271C52.5799 85.934 52.5333 86.0519 52.5059 86.1808C52.4702 86.2768 52.425 86.3412 52.3701 86.3741C52.318 86.4043 52.2413 86.4125 52.1398 86.3988L51.7573 86.333ZM57.483 86.9622C57.7901 86.8964 58.0725 86.8635 58.3302 86.8635C58.6373 86.8635 58.9088 86.9088 59.1446 86.9992C59.3804 87.0897 59.5764 87.2145 59.7327 87.3735C59.8917 87.5325 60.011 87.7204 60.0905 87.937C60.1728 88.1536 60.2139 88.3894 60.2139 88.6444C60.2139 88.9569 60.1591 89.2394 60.0494 89.4916C59.9425 89.7439 59.793 89.9605 59.6011 90.1414C59.4119 90.3197 59.1885 90.4568 58.9307 90.5527C58.673 90.6487 58.3947 90.6967 58.0958 90.6967C57.9231 90.6967 57.7572 90.6788 57.5982 90.6432C57.4391 90.6103 57.2897 90.5651 57.1499 90.5075C57.0128 90.4499 56.8853 90.3841 56.7674 90.3101C56.6495 90.236 56.5453 90.1579 56.4548 90.0756L56.681 89.7631C56.7304 89.6918 56.7948 89.6561 56.8743 89.6561C56.9291 89.6561 56.9908 89.6781 57.0594 89.7219C57.1279 89.7631 57.2116 89.8097 57.3103 89.8618C57.409 89.9139 57.5241 89.9618 57.6557 90.0057C57.7901 90.0468 57.9491 90.0674 58.1328 90.0674C58.3385 90.0674 58.5235 90.0345 58.6881 89.9687C58.8526 89.9029 58.9938 89.8097 59.1117 89.689C59.2296 89.5656 59.3201 89.4189 59.3831 89.249C59.4462 89.079 59.4777 88.8884 59.4777 88.6773C59.4777 88.4936 59.4503 88.3277 59.3955 88.1796C59.3434 88.0316 59.2625 87.9054 59.1528 87.8012C59.0459 87.6971 58.9115 87.6162 58.7498 87.5586C58.588 87.501 58.3988 87.4722 58.1822 87.4722C58.0341 87.4722 57.8792 87.4846 57.7174 87.5092C57.5584 87.5339 57.3953 87.5737 57.228 87.6285L56.7674 87.4928L57.2403 84.7372H60.033V85.058C60.033 85.1622 60 85.2486 59.9342 85.3171C59.8712 85.3829 59.7615 85.4158 59.6052 85.4158H57.7545L57.483 86.9622ZM63.7351 86.1602C63.7351 86.3905 63.6995 86.5976 63.6282 86.7813C63.5569 86.9622 63.4609 87.1158 63.3403 87.2419C63.2224 87.3653 63.0839 87.4599 62.9249 87.5257C62.7686 87.5915 62.6027 87.6244 62.4273 87.6244C62.2435 87.6244 62.0722 87.5915 61.9132 87.5257C61.7541 87.4599 61.6157 87.3653 61.4978 87.2419C61.3826 87.1158 61.2921 86.9622 61.2263 86.7813C61.1605 86.5976 61.1276 86.3905 61.1276 86.1602C61.1276 85.9244 61.1605 85.7147 61.2263 85.531C61.2921 85.3473 61.3826 85.1923 61.4978 85.0662C61.6157 84.9401 61.7541 84.8441 61.9132 84.7783C62.0722 84.7125 62.2435 84.6796 62.4273 84.6796C62.6137 84.6796 62.7864 84.7125 62.9455 84.7783C63.1045 84.8441 63.243 84.9401 63.3609 85.0662C63.4788 85.1923 63.5706 85.3473 63.6364 85.531C63.7022 85.7147 63.7351 85.9244 63.7351 86.1602ZM63.1676 86.1602C63.1676 85.9793 63.1484 85.8257 63.11 85.6996C63.0716 85.5735 63.0181 85.4706 62.9496 85.3911C62.8838 85.3089 62.8056 85.2499 62.7151 85.2143C62.6247 85.1786 62.5287 85.1608 62.4273 85.1608C62.3258 85.1608 62.2312 85.1786 62.1435 85.2143C62.0557 85.2499 61.979 85.3089 61.9132 85.3911C61.8473 85.4706 61.7952 85.5735 61.7569 85.6996C61.7185 85.8257 61.6993 85.9793 61.6993 86.1602C61.6993 86.3385 61.7185 86.4906 61.7569 86.6168C61.7952 86.7401 61.8473 86.8416 61.9132 86.9211C61.979 86.9979 62.0557 87.0541 62.1435 87.0897C62.2312 87.1226 62.3258 87.1391 62.4273 87.1391C62.5287 87.1391 62.6247 87.1226 62.7151 87.0897C62.8056 87.0541 62.8838 86.9979 62.9496 86.9211C63.0181 86.8416 63.0716 86.7401 63.11 86.6168C63.1484 86.4906 63.1676 86.3385 63.1676 86.1602ZM65.8203 84.8606C65.8477 84.8277 65.8793 84.7989 65.9149 84.7742C65.9533 84.7495 66.004 84.7372 66.0671 84.7372H66.5976L62.2874 90.5116C62.2627 90.5472 62.2312 90.576 62.1928 90.598C62.1544 90.6199 62.1078 90.6309 62.053 90.6309H61.5142L65.8203 84.8606ZM66.9966 89.2407C66.9966 89.471 66.9609 89.6767 66.8897 89.8576C66.8184 90.0386 66.7224 90.1922 66.6018 90.3183C66.4839 90.4417 66.3454 90.5363 66.1864 90.6021C66.0301 90.6679 65.8642 90.7008 65.6887 90.7008C65.5023 90.7008 65.3295 90.6679 65.1705 90.6021C65.0142 90.5363 64.8771 90.4417 64.7592 90.3183C64.6441 90.1922 64.5536 90.0386 64.4878 89.8576C64.422 89.6767 64.3891 89.471 64.3891 89.2407C64.3891 89.0049 64.422 88.7952 64.4878 88.6115C64.5536 88.425 64.6441 88.2687 64.7592 88.1426C64.8771 88.0165 65.0142 87.9205 65.1705 87.8547C65.3295 87.7889 65.5023 87.756 65.6887 87.756C65.8724 87.756 66.0438 87.7889 66.2028 87.8547C66.3646 87.9205 66.5031 88.0165 66.6182 88.1426C66.7361 88.2687 66.828 88.425 66.8938 88.6115C66.9623 88.7952 66.9966 89.0049 66.9966 89.2407ZM66.429 89.2407C66.429 89.0598 66.4098 88.9062 66.3714 88.7801C66.3331 88.6512 66.2796 88.547 66.211 88.4675C66.1452 88.388 66.0671 88.3304 65.9766 88.2948C65.8861 88.2591 65.7902 88.2413 65.6887 88.2413C65.5873 88.2413 65.4913 88.2591 65.4008 88.2948C65.3131 88.3304 65.2363 88.388 65.1705 88.4675C65.1047 88.547 65.0526 88.6512 65.0142 88.7801C64.9786 88.9062 64.9607 89.0598 64.9607 89.2407C64.9607 89.4189 64.9786 89.5698 65.0142 89.6931C65.0526 89.8165 65.1047 89.918 65.1705 89.9975C65.2363 90.0743 65.3131 90.1305 65.4008 90.1661C65.4913 90.199 65.5873 90.2155 65.6887 90.2155C65.7902 90.2155 65.8861 90.199 65.9766 90.1661C66.0671 90.1305 66.1452 90.0743 66.211 89.9975C66.2796 89.918 66.3331 89.8165 66.3714 89.6931C66.4098 89.5698 66.429 89.4189 66.429 89.2407ZM70.8184 86.4646V90.6309H70.0863V86.4646H70.8184ZM70.9746 85.1567C70.9746 85.228 70.9596 85.2952 70.9294 85.3582C70.902 85.4186 70.8636 85.4734 70.8142 85.5227C70.7676 85.5694 70.7114 85.6064 70.6456 85.6338C70.5826 85.6612 70.5154 85.6749 70.4441 85.6749C70.3728 85.6749 70.3056 85.6612 70.2426 85.6338C70.1822 85.6064 70.1288 85.5694 70.0822 85.5227C70.0356 85.4734 69.9985 85.4186 69.9711 85.3582C69.9437 85.2952 69.93 85.228 69.93 85.1567C69.93 85.0854 69.9437 85.0182 69.9711 84.9552C69.9985 84.8894 70.0356 84.8332 70.0822 84.7865C70.1288 84.7372 70.1822 84.6988 70.2426 84.6714C70.3056 84.644 70.3728 84.6303 70.4441 84.6303C70.5154 84.6303 70.5826 84.644 70.6456 84.6714C70.7114 84.6988 70.7676 84.7372 70.8142 84.7865C70.8636 84.8332 70.902 84.8894 70.9294 84.9552C70.9596 85.0182 70.9746 85.0854 70.9746 85.1567ZM72.7122 87.0692C72.8027 86.9677 72.8986 86.8759 73.0001 86.7936C73.1015 86.7113 73.2085 86.6414 73.3209 86.5838C73.436 86.5235 73.5567 86.4783 73.6828 86.4481C73.8117 86.4152 73.9501 86.3988 74.0982 86.3988C74.3258 86.3988 74.5259 86.4372 74.6987 86.5139C74.8742 86.588 75.0195 86.6949 75.1346 86.8347C75.2525 86.9718 75.3416 87.1377 75.402 87.3324C75.4623 87.5271 75.4924 87.7423 75.4924 87.9781V90.6309H74.7563V87.9781C74.7563 87.6628 74.6836 87.4188 74.5383 87.246C74.3957 87.0705 74.1777 86.9828 73.8843 86.9828C73.6677 86.9828 73.4648 87.0349 73.2756 87.1391C73.0892 87.2433 72.9165 87.3845 72.7574 87.5627V90.6309H72.0212V86.4646H72.4613C72.5655 86.4646 72.6299 86.5153 72.6546 86.6168L72.7122 87.0692ZM79.5075 87.2049C79.4856 87.235 79.4637 87.2584 79.4417 87.2748C79.4198 87.2913 79.3896 87.2995 79.3512 87.2995C79.3101 87.2995 79.2649 87.283 79.2155 87.2501C79.1662 87.2145 79.1045 87.1761 79.0304 87.135C78.9591 87.0938 78.87 87.0568 78.7631 87.0239C78.6589 86.9883 78.53 86.9705 78.3765 86.9705C78.1709 86.9705 77.9899 87.0075 77.8336 87.0815C77.6773 87.1528 77.5457 87.257 77.4388 87.3941C77.3346 87.5312 77.2551 87.6971 77.2002 87.8917C77.1481 88.0864 77.1221 88.3044 77.1221 88.5457C77.1221 88.7979 77.1509 89.0227 77.2085 89.2202C77.266 89.4148 77.3469 89.5793 77.4511 89.7137C77.558 89.8453 77.6855 89.9468 77.8336 90.018C77.9844 90.0866 78.153 90.1209 78.3395 90.1209C78.5177 90.1209 78.6644 90.1003 78.7796 90.0592C78.8947 90.0153 78.9893 89.9673 79.0633 89.9152C79.1401 89.8631 79.2032 89.8165 79.2525 89.7754C79.3046 89.7315 79.3553 89.7096 79.4047 89.7096C79.465 89.7096 79.5116 89.7329 79.5445 89.7795L79.7502 90.0468C79.6597 90.1593 79.5569 90.2552 79.4417 90.3347C79.3266 90.4143 79.2018 90.4814 79.0674 90.5363C78.9358 90.5884 78.7974 90.6267 78.6521 90.6514C78.5067 90.6761 78.3587 90.6884 78.2079 90.6884C77.9474 90.6884 77.7047 90.6405 77.4799 90.5445C77.2578 90.4485 77.0645 90.3101 76.9 90.1291C76.7355 89.9454 76.6066 89.7206 76.5134 89.4546C76.4202 89.1886 76.3736 88.8857 76.3736 88.5457C76.3736 88.2358 76.4161 87.9493 76.5011 87.6861C76.5888 87.4229 76.7149 87.1967 76.8794 87.0075C77.0467 86.8155 77.251 86.6661 77.4922 86.5592C77.7363 86.4522 78.0159 86.3988 78.3313 86.3988C78.6246 86.3988 78.8824 86.4468 79.1045 86.5427C79.3293 86.6359 79.5281 86.7689 79.7008 86.9417L79.5075 87.2049ZM81.2311 87.2995C81.3627 87.0143 81.5245 86.7922 81.7164 86.6332C81.9084 86.4714 82.1428 86.3905 82.4197 86.3905C82.5075 86.3905 82.5911 86.4001 82.6706 86.4193C82.7529 86.4385 82.8255 86.4687 82.8886 86.5098L82.8351 87.0568C82.8187 87.1254 82.7775 87.1596 82.7117 87.1596C82.6733 87.1596 82.6171 87.1514 82.5431 87.135C82.4691 87.1185 82.3854 87.1103 82.2922 87.1103C82.1606 87.1103 82.0427 87.1295 81.9385 87.1679C81.8371 87.2063 81.7452 87.2638 81.663 87.3406C81.5834 87.4146 81.5108 87.5079 81.445 87.6203C81.3819 87.73 81.3243 87.8561 81.2722 87.9987V90.6309H80.536V86.4646H80.9556C81.0351 86.4646 81.0899 86.4797 81.1201 86.5098C81.1502 86.54 81.1708 86.5921 81.1818 86.6661L81.2311 87.2995ZM86.1521 88.0933C86.1521 87.9233 86.1274 87.7683 86.0781 87.6285C86.0315 87.4859 85.9615 87.3639 85.8683 87.2625C85.7778 87.1583 85.6668 87.0788 85.5352 87.0239C85.4036 86.9663 85.2541 86.9376 85.0869 86.9376C84.7359 86.9376 84.4576 87.0404 84.252 87.246C84.0491 87.4489 83.9229 87.7313 83.8736 88.0933H86.1521ZM86.7443 90.0468C86.6539 90.1565 86.5456 90.2525 86.4194 90.3347C86.2933 90.4143 86.1576 90.4801 86.0123 90.5322C85.8697 90.5842 85.7216 90.6226 85.5681 90.6473C85.4145 90.6747 85.2624 90.6884 85.1116 90.6884C84.8237 90.6884 84.5577 90.6405 84.3137 90.5445C84.0724 90.4458 83.8626 90.3032 83.6844 90.1168C83.5089 89.9276 83.3718 89.6945 83.2731 89.4176C83.1744 89.1406 83.1251 88.8226 83.1251 88.4634C83.1251 88.1728 83.1689 87.9013 83.2567 87.6491C83.3472 87.3968 83.476 87.1788 83.6433 86.9951C83.8105 86.8087 84.0148 86.6634 84.2561 86.5592C84.4974 86.4522 84.7688 86.3988 85.0704 86.3988C85.3199 86.3988 85.5503 86.4413 85.7614 86.5263C85.9752 86.6085 86.159 86.7292 86.3125 86.8882C86.4688 87.0445 86.5908 87.2392 86.6785 87.4722C86.7663 87.7025 86.8101 87.9658 86.8101 88.2619C86.8101 88.377 86.7978 88.4538 86.7731 88.4922C86.7485 88.5306 86.7018 88.5498 86.6333 88.5498H83.8489C83.8571 88.813 83.8928 89.0419 83.9559 89.2366C84.0217 89.4313 84.1121 89.5944 84.2273 89.726C84.3425 89.8549 84.4796 89.9522 84.6386 90.018C84.7976 90.0811 84.9758 90.1126 85.1732 90.1126C85.357 90.1126 85.5146 90.0921 85.6462 90.051C85.7806 90.0071 85.8957 89.9605 85.9917 89.9111C86.0877 89.8618 86.1672 89.8165 86.2302 89.7754C86.296 89.7315 86.3523 89.7096 86.3989 89.7096C86.4592 89.7096 86.5058 89.7329 86.5387 89.7795L86.7443 90.0468ZM89.9673 88.7554C89.6301 88.7664 89.3422 88.7938 89.1036 88.8377C88.8678 88.8788 88.6745 88.9336 88.5237 89.0022C88.3757 89.0707 88.2673 89.1516 88.1988 89.2448C88.133 89.3381 88.1001 89.4423 88.1001 89.5574C88.1001 89.6671 88.1179 89.7617 88.1536 89.8412C88.1892 89.9207 88.2372 89.9865 88.2975 90.0386C88.3606 90.088 88.4332 90.125 88.5155 90.1497C88.6005 90.1716 88.691 90.1826 88.7869 90.1826C88.9158 90.1826 89.0337 90.1702 89.1406 90.1455C89.2476 90.1181 89.3476 90.0797 89.4409 90.0304C89.5368 89.981 89.6273 89.9221 89.7123 89.8535C89.8001 89.785 89.8851 89.7068 89.9673 89.6191V88.7554ZM87.6024 87.0527C87.8328 86.8306 88.0809 86.6647 88.3469 86.5551C88.6128 86.4454 88.9076 86.3905 89.2311 86.3905C89.4642 86.3905 89.6712 86.4289 89.8522 86.5057C90.0331 86.5825 90.1853 86.6894 90.3087 86.8265C90.4321 86.9636 90.5253 87.1295 90.5883 87.3242C90.6514 87.5188 90.6829 87.7327 90.6829 87.9658V90.6309H90.358C90.2867 90.6309 90.2319 90.6199 90.1935 90.598C90.1551 90.5733 90.125 90.5267 90.103 90.4581L90.0208 90.0633C89.9111 90.1647 89.8042 90.2552 89.7 90.3347C89.5958 90.4115 89.4861 90.4773 89.371 90.5322C89.2558 90.5842 89.1324 90.624 89.0008 90.6514C88.8719 90.6816 88.728 90.6967 88.569 90.6967C88.4072 90.6967 88.255 90.6747 88.1124 90.6309C87.9699 90.5842 87.8451 90.5157 87.7382 90.4252C87.634 90.3347 87.5503 90.2209 87.4873 90.0839C87.427 89.944 87.3968 89.7795 87.3968 89.5903C87.3968 89.4258 87.442 89.2681 87.5325 89.1173C87.623 88.9638 87.7697 88.8281 87.9726 88.7102C88.1755 88.5923 88.4401 88.4963 88.7664 88.4223C89.0927 88.3455 89.493 88.3016 89.9673 88.2907V87.9658C89.9673 87.6422 89.8974 87.3982 89.7576 87.2337C89.6177 87.0664 89.4135 86.9828 89.1447 86.9828C88.9638 86.9828 88.8116 87.0061 88.6882 87.0527C88.5676 87.0966 88.462 87.1473 88.3715 87.2049C88.2838 87.2597 88.207 87.3104 88.1412 87.3571C88.0782 87.4009 88.0151 87.4229 87.952 87.4229C87.9027 87.4229 87.8602 87.4105 87.8245 87.3858C87.7889 87.3584 87.7587 87.3255 87.7341 87.2871L87.6024 87.0527ZM94.2247 87.1514C94.1918 87.2117 94.141 87.2419 94.0725 87.2419C94.0314 87.2419 93.9847 87.2268 93.9326 87.1967C93.8805 87.1665 93.8161 87.1336 93.7393 87.098C93.6653 87.0596 93.5762 87.0253 93.472 86.9951C93.3678 86.9622 93.2444 86.9458 93.1019 86.9458C92.9785 86.9458 92.8674 86.9622 92.7687 86.9951C92.67 87.0253 92.585 87.0678 92.5137 87.1226C92.4452 87.1775 92.3917 87.2419 92.3533 87.3159C92.3177 87.3872 92.2999 87.4654 92.2999 87.5504C92.2999 87.6573 92.33 87.7464 92.3903 87.8177C92.4534 87.889 92.5357 87.9507 92.6371 88.0028C92.7386 88.0549 92.8537 88.1015 92.9826 88.1426C93.1115 88.181 93.2431 88.2235 93.3774 88.2701C93.5145 88.314 93.6475 88.3633 93.7764 88.4182C93.9052 88.473 94.0204 88.5415 94.1218 88.6238C94.2233 88.7061 94.3042 88.8075 94.3645 88.9282C94.4276 89.0461 94.4591 89.1886 94.4591 89.3559C94.4591 89.5478 94.4248 89.726 94.3563 89.8906C94.2877 90.0523 94.1863 90.1935 94.0519 90.3142C93.9176 90.4321 93.7531 90.5253 93.5584 90.5938C93.3637 90.6624 93.1389 90.6967 92.8839 90.6967C92.5932 90.6967 92.33 90.6501 92.0942 90.5568C91.8584 90.4609 91.6583 90.3388 91.4937 90.1908L91.6665 89.9111C91.6884 89.8755 91.7145 89.8481 91.7446 89.8289C91.7748 89.8097 91.8132 89.8001 91.8598 89.8001C91.9091 89.8001 91.9612 89.8193 92.0161 89.8576C92.0709 89.896 92.1367 89.9385 92.2135 89.9851C92.293 90.0318 92.389 90.0743 92.5014 90.1126C92.6138 90.151 92.7536 90.1702 92.9209 90.1702C93.0635 90.1702 93.1882 90.1524 93.2952 90.1168C93.4021 90.0784 93.4912 90.0276 93.5625 89.9646C93.6338 89.9015 93.6859 89.8289 93.7188 89.7466C93.7544 89.6643 93.7722 89.5766 93.7722 89.4834C93.7722 89.3682 93.7407 89.2736 93.6776 89.1996C93.6173 89.1228 93.5364 89.0584 93.435 89.0063C93.3335 88.9515 93.217 88.9048 93.0854 88.8665C92.9565 88.8253 92.8236 88.7828 92.6865 88.739C92.5521 88.6951 92.4191 88.6457 92.2875 88.5909C92.1586 88.5333 92.0435 88.462 91.942 88.377C91.8406 88.292 91.7583 88.1878 91.6953 88.0645C91.635 87.9383 91.6048 87.7862 91.6048 87.6079C91.6048 87.4489 91.6377 87.2967 91.7035 87.1514C91.7693 87.0034 91.8653 86.8745 91.9914 86.7648C92.1175 86.6524 92.2724 86.5633 92.4561 86.4975C92.6398 86.4317 92.8496 86.3988 93.0854 86.3988C93.3596 86.3988 93.605 86.4426 93.8216 86.5304C94.0409 86.6154 94.2301 86.7333 94.3892 86.8841L94.2247 87.1514ZM98.1451 88.0933C98.1451 87.9233 98.1205 87.7683 98.0711 87.6285C98.0245 87.4859 97.9546 87.3639 97.8613 87.2625C97.7709 87.1583 97.6598 87.0788 97.5282 87.0239C97.3966 86.9663 97.2472 86.9376 97.0799 86.9376C96.729 86.9376 96.4506 87.0404 96.245 87.246C96.0421 87.4489 95.916 87.7313 95.8666 88.0933H98.1451ZM98.7374 90.0468C98.6469 90.1565 98.5386 90.2525 98.4125 90.3347C98.2863 90.4143 98.1506 90.4801 98.0053 90.5322C97.8627 90.5842 97.7147 90.6226 97.5611 90.6473C97.4076 90.6747 97.2554 90.6884 97.1046 90.6884C96.8167 90.6884 96.5507 90.6405 96.3067 90.5445C96.0654 90.4458 95.8557 90.3032 95.6774 90.1168C95.502 89.9276 95.3649 89.6945 95.2662 89.4176C95.1675 89.1406 95.1181 88.8226 95.1181 88.4634C95.1181 88.1728 95.162 87.9013 95.2497 87.6491C95.3402 87.3968 95.4691 87.1788 95.6363 86.9951C95.8036 86.8087 96.0078 86.6634 96.2491 86.5592C96.4904 86.4522 96.7619 86.3988 97.0635 86.3988C97.313 86.3988 97.5433 86.4413 97.7544 86.5263C97.9683 86.6085 98.152 86.7292 98.3055 86.8882C98.4618 87.0445 98.5838 87.2392 98.6716 87.4722C98.7593 87.7025 98.8032 87.9658 98.8032 88.2619C98.8032 88.377 98.7908 88.4538 98.7662 88.4922C98.7415 88.5306 98.6949 88.5498 98.6263 88.5498H95.842C95.8502 88.813 95.8858 89.0419 95.9489 89.2366C96.0147 89.4313 96.1052 89.5944 96.2203 89.726C96.3355 89.8549 96.4726 89.9522 96.6316 90.018C96.7906 90.0811 96.9689 90.1126 97.1663 90.1126C97.35 90.1126 97.5076 90.0921 97.6393 90.051C97.7736 90.0071 97.8888 89.9605 97.9847 89.9111C98.0807 89.8618 98.1602 89.8165 98.2233 89.7754C98.2891 89.7315 98.3453 89.7096 98.3919 89.7096C98.4522 89.7096 98.4988 89.7329 98.5317 89.7795L98.7374 90.0468ZM102.58 86.4646V90.6309H101.848V86.4646H102.58ZM102.737 85.1567C102.737 85.228 102.721 85.2952 102.691 85.3582C102.664 85.4186 102.625 85.4734 102.576 85.5227C102.529 85.5694 102.473 85.6064 102.407 85.6338C102.344 85.6612 102.277 85.6749 102.206 85.6749C102.135 85.6749 102.067 85.6612 102.004 85.6338C101.944 85.6064 101.891 85.5694 101.844 85.5227C101.797 85.4734 101.76 85.4186 101.733 85.3582C101.706 85.2952 101.692 85.228 101.692 85.1567C101.692 85.0854 101.706 85.0182 101.733 84.9552C101.76 84.8894 101.797 84.8332 101.844 84.7865C101.891 84.7372 101.944 84.6988 102.004 84.6714C102.067 84.644 102.135 84.6303 102.206 84.6303C102.277 84.6303 102.344 84.644 102.407 84.6714C102.473 84.6988 102.529 84.7372 102.576 84.7865C102.625 84.8332 102.664 84.8894 102.691 84.9552C102.721 85.0182 102.737 85.0854 102.737 85.1567ZM104.474 87.0692C104.565 86.9677 104.66 86.8759 104.762 86.7936C104.863 86.7113 104.97 86.6414 105.083 86.5838C105.198 86.5235 105.319 86.4783 105.445 86.4481C105.574 86.4152 105.712 86.3988 105.86 86.3988C106.088 86.3988 106.288 86.4372 106.461 86.5139C106.636 86.588 106.781 86.6949 106.896 86.8347C107.014 86.9718 107.104 87.1377 107.164 87.3324C107.224 87.5271 107.254 87.7423 107.254 87.9781V90.6309H106.518V87.9781C106.518 87.6628 106.445 87.4188 106.3 87.246C106.158 87.0705 105.94 86.9828 105.646 86.9828C105.43 86.9828 105.227 87.0349 105.038 87.1391C104.851 87.2433 104.678 87.3845 104.519 87.5627V90.6309H103.783V86.4646H104.223C104.327 86.4646 104.392 86.5153 104.416 86.6168L104.474 87.0692ZM113.189 87.4558C113.052 87.2721 112.904 87.1446 112.745 87.0733C112.586 86.9992 112.407 86.9622 112.21 86.9622C111.823 86.9622 111.526 87.1007 111.318 87.3776C111.109 87.6546 111.005 88.0494 111.005 88.5621C111.005 88.8336 111.028 89.0666 111.075 89.2613C111.122 89.4532 111.19 89.6123 111.281 89.7384C111.371 89.8618 111.482 89.9522 111.614 90.0098C111.745 90.0674 111.895 90.0962 112.062 90.0962C112.303 90.0962 112.513 90.0414 112.691 89.9317C112.872 89.822 113.038 89.6671 113.189 89.4669V87.4558ZM113.921 84.5727V90.6309H113.485C113.381 90.6309 113.315 90.5801 113.288 90.4787L113.222 89.9728C113.044 90.1867 112.841 90.3594 112.613 90.491C112.386 90.6226 112.122 90.6884 111.823 90.6884C111.585 90.6884 111.368 90.6432 111.174 90.5527C110.979 90.4595 110.813 90.3238 110.676 90.1455C110.539 89.9673 110.433 89.7452 110.359 89.4793C110.285 89.2133 110.248 88.9076 110.248 88.5621C110.248 88.255 110.289 87.9699 110.372 87.7066C110.454 87.4407 110.572 87.2104 110.725 87.0157C110.879 86.821 111.067 86.6688 111.289 86.5592C111.514 86.4468 111.766 86.3905 112.046 86.3905C112.301 86.3905 112.519 86.4344 112.699 86.5222C112.883 86.6072 113.046 86.7264 113.189 86.88V84.5727H113.921ZM117.866 88.0933C117.866 87.9233 117.841 87.7683 117.792 87.6285C117.745 87.4859 117.675 87.3639 117.582 87.2625C117.491 87.1583 117.38 87.0788 117.249 87.0239C117.117 86.9663 116.968 86.9376 116.801 86.9376C116.45 86.9376 116.171 87.0404 115.966 87.246C115.763 87.4489 115.637 87.7313 115.587 88.0933H117.866ZM118.458 90.0468C118.368 90.1565 118.259 90.2525 118.133 90.3347C118.007 90.4143 117.871 90.4801 117.726 90.5322C117.583 90.5842 117.435 90.6226 117.282 90.6473C117.128 90.6747 116.976 90.6884 116.825 90.6884C116.537 90.6884 116.271 90.6405 116.027 90.5445C115.786 90.4458 115.576 90.3032 115.398 90.1168C115.223 89.9276 115.085 89.6945 114.987 89.4176C114.888 89.1406 114.839 88.8226 114.839 88.4634C114.839 88.1728 114.883 87.9013 114.97 87.6491C115.061 87.3968 115.19 87.1788 115.357 86.9951C115.524 86.8087 115.728 86.6634 115.97 86.5592C116.211 86.4522 116.482 86.3988 116.784 86.3988C117.034 86.3988 117.264 86.4413 117.475 86.5263C117.689 86.6085 117.873 86.7292 118.026 86.8882C118.182 87.0445 118.304 87.2392 118.392 87.4722C118.48 87.7025 118.524 87.9658 118.524 88.2619C118.524 88.377 118.511 88.4538 118.487 88.4922C118.462 88.5306 118.416 88.5498 118.347 88.5498H115.563C115.571 88.813 115.606 89.0419 115.67 89.2366C115.735 89.4313 115.826 89.5944 115.941 89.726C116.056 89.8549 116.193 89.9522 116.352 90.018C116.511 90.0811 116.689 90.1126 116.887 90.1126C117.071 90.1126 117.228 90.0921 117.36 90.051C117.494 90.0071 117.609 89.9605 117.705 89.9111C117.801 89.8618 117.881 89.8165 117.944 89.7754C118.01 89.7315 118.066 89.7096 118.113 89.7096C118.173 89.7096 118.219 89.7329 118.252 89.7795L118.458 90.0468ZM119.423 90.6309V86.4646H119.863C119.967 86.4646 120.032 86.5153 120.056 86.6168L120.11 87.0445C120.263 86.8553 120.436 86.7004 120.628 86.5797C120.82 86.4591 121.042 86.3988 121.294 86.3988C121.574 86.3988 121.8 86.4769 121.973 86.6332C122.148 86.7895 122.275 87.0006 122.351 87.2666C122.412 87.1158 122.488 86.9855 122.582 86.8759C122.678 86.7662 122.785 86.6757 122.902 86.6044C123.02 86.5331 123.145 86.481 123.277 86.4481C123.411 86.4152 123.547 86.3988 123.684 86.3988C123.903 86.3988 124.098 86.4344 124.268 86.5057C124.441 86.5743 124.586 86.6757 124.704 86.8101C124.825 86.9444 124.916 87.1103 124.979 87.3077C125.043 87.5024 125.074 87.7258 125.074 87.9781V90.6309H124.338V87.9781C124.338 87.6518 124.267 87.405 124.124 87.2378C123.981 87.0678 123.776 86.9828 123.507 86.9828C123.386 86.9828 123.271 87.0047 123.162 87.0486C123.055 87.0897 122.96 87.1514 122.878 87.2337C122.796 87.3159 122.73 87.4201 122.68 87.5462C122.634 87.6696 122.61 87.8136 122.61 87.9781V90.6309H121.874V87.9781C121.874 87.6436 121.807 87.3941 121.673 87.2296C121.538 87.065 121.342 86.9828 121.085 86.9828C120.904 86.9828 120.736 87.0321 120.583 87.1309C120.429 87.2268 120.288 87.3584 120.159 87.5257V90.6309H119.423ZM128.445 88.7554C128.107 88.7664 127.819 88.7938 127.581 88.8377C127.345 88.8788 127.152 88.9336 127.001 89.0022C126.853 89.0707 126.745 89.1516 126.676 89.2448C126.61 89.3381 126.577 89.4423 126.577 89.5574C126.577 89.6671 126.595 89.7617 126.631 89.8412C126.667 89.9207 126.715 89.9865 126.775 90.0386C126.838 90.088 126.911 90.125 126.993 90.1497C127.078 90.1716 127.168 90.1826 127.264 90.1826C127.393 90.1826 127.511 90.1702 127.618 90.1455C127.725 90.1181 127.825 90.0797 127.918 90.0304C128.014 89.981 128.105 89.9221 128.19 89.8535C128.277 89.785 128.362 89.7068 128.445 89.6191V88.7554ZM126.08 87.0527C126.31 86.8306 126.558 86.6647 126.824 86.5551C127.09 86.4454 127.385 86.3905 127.708 86.3905C127.941 86.3905 128.149 86.4289 128.329 86.5057C128.51 86.5825 128.663 86.6894 128.786 86.8265C128.909 86.9636 129.003 87.1295 129.066 87.3242C129.129 87.5188 129.16 87.7327 129.16 87.9658V90.6309H128.835C128.764 90.6309 128.709 90.6199 128.671 90.598C128.632 90.5733 128.602 90.5267 128.58 90.4581L128.498 90.0633C128.388 90.1647 128.281 90.2552 128.177 90.3347C128.073 90.4115 127.963 90.4773 127.848 90.5322C127.733 90.5842 127.61 90.624 127.478 90.6514C127.349 90.6816 127.205 90.6967 127.046 90.6967C126.885 90.6967 126.732 90.6747 126.59 90.6309C126.447 90.5842 126.322 90.5157 126.215 90.4252C126.111 90.3347 126.028 90.2209 125.965 90.0839C125.904 89.944 125.874 89.7795 125.874 89.5903C125.874 89.4258 125.919 89.2681 126.01 89.1173C126.1 88.9638 126.247 88.8281 126.45 88.7102C126.653 88.5923 126.917 88.4963 127.244 88.4223C127.57 88.3455 127.97 88.3016 128.445 88.2907V87.9658C128.445 87.6422 128.375 87.3982 128.235 87.2337C128.095 87.0664 127.891 86.9828 127.622 86.9828C127.441 86.9828 127.289 87.0061 127.166 87.0527C127.045 87.0966 126.939 87.1473 126.849 87.2049C126.761 87.2597 126.684 87.3104 126.619 87.3571C126.555 87.4009 126.492 87.4229 126.429 87.4229C126.38 87.4229 126.337 87.4105 126.302 87.3858C126.266 87.3584 126.236 87.3255 126.211 87.2871L126.08 87.0527ZM130.966 87.0692C131.057 86.9677 131.153 86.8759 131.254 86.7936C131.356 86.7113 131.463 86.6414 131.575 86.5838C131.69 86.5235 131.811 86.4783 131.937 86.4481C132.066 86.4152 132.204 86.3988 132.352 86.3988C132.58 86.3988 132.78 86.4372 132.953 86.5139C133.128 86.588 133.274 86.6949 133.389 86.8347C133.507 86.9718 133.596 87.1377 133.656 87.3324C133.716 87.5271 133.747 87.7423 133.747 87.9781V90.6309H133.01V87.9781C133.01 87.6628 132.938 87.4188 132.792 87.246C132.65 87.0705 132.432 86.9828 132.139 86.9828C131.922 86.9828 131.719 87.0349 131.53 87.1391C131.343 87.2433 131.171 87.3845 131.012 87.5627V90.6309H130.275V86.4646H130.715C130.82 86.4646 130.884 86.5153 130.909 86.6168L130.966 87.0692ZM137.577 87.4558C137.44 87.2721 137.291 87.1446 137.132 87.0733C136.973 86.9992 136.795 86.9622 136.598 86.9622C136.211 86.9622 135.914 87.1007 135.705 87.3776C135.497 87.6546 135.393 88.0494 135.393 88.5621C135.393 88.8336 135.416 89.0666 135.463 89.2613C135.509 89.4532 135.578 89.6123 135.668 89.7384C135.759 89.8618 135.87 89.9522 136.001 90.0098C136.133 90.0674 136.282 90.0962 136.45 90.0962C136.691 90.0962 136.901 90.0414 137.079 89.9317C137.26 89.822 137.426 89.6671 137.577 89.4669V87.4558ZM138.309 84.5727V90.6309H137.873C137.769 90.6309 137.703 90.5801 137.675 90.4787L137.61 89.9728C137.431 90.1867 137.228 90.3594 137.001 90.491C136.773 90.6226 136.51 90.6884 136.211 90.6884C135.973 90.6884 135.756 90.6432 135.561 90.5527C135.367 90.4595 135.201 90.3238 135.064 90.1455C134.927 89.9673 134.821 89.7452 134.747 89.4793C134.673 89.2133 134.636 88.9076 134.636 88.5621C134.636 88.255 134.677 87.9699 134.759 87.7066C134.842 87.4407 134.96 87.2104 135.113 87.0157C135.267 86.821 135.454 86.6688 135.677 86.5592C135.901 86.4468 136.154 86.3905 136.433 86.3905C136.688 86.3905 136.906 86.4344 137.087 86.5222C137.271 86.6072 137.434 86.7264 137.577 86.88V84.5727H138.309ZM141.841 90.6309V87.0897L141.38 87.0363C141.323 87.0225 141.275 87.002 141.236 86.9746C141.201 86.9444 141.183 86.9019 141.183 86.8471V86.5468H141.841V86.1438C141.841 85.9052 141.874 85.6941 141.94 85.5104C142.008 85.324 142.104 85.1677 142.228 85.0415C142.354 84.9127 142.505 84.8153 142.68 84.7495C142.856 84.6837 143.053 84.6508 143.272 84.6508C143.459 84.6508 143.63 84.6782 143.786 84.7331L143.77 85.0991C143.764 85.1649 143.727 85.2006 143.659 85.2061C143.593 85.2115 143.504 85.2143 143.392 85.2143C143.265 85.2143 143.15 85.2307 143.046 85.2636C142.945 85.2965 142.857 85.35 142.783 85.424C142.709 85.4981 142.651 85.5954 142.61 85.716C142.572 85.8367 142.553 85.9861 142.553 86.1643V86.5468H143.753V87.0774H142.577V90.6309H141.841ZM146.073 86.3988C146.377 86.3988 146.652 86.4495 146.896 86.5509C147.14 86.6524 147.348 86.7963 147.521 86.9828C147.693 87.1692 147.825 87.3954 147.916 87.6614C148.009 87.9246 148.055 88.2194 148.055 88.5457C148.055 88.8747 148.009 89.1708 147.916 89.434C147.825 89.6973 147.693 89.9221 147.521 90.1085C147.348 90.295 147.14 90.4389 146.896 90.5404C146.652 90.6391 146.377 90.6884 146.073 90.6884C145.766 90.6884 145.489 90.6391 145.242 90.5404C144.998 90.4389 144.79 90.295 144.617 90.1085C144.444 89.9221 144.311 89.6973 144.218 89.434C144.128 89.1708 144.082 88.8747 144.082 88.5457C144.082 88.2194 144.128 87.9246 144.218 87.6614C144.311 87.3954 144.444 87.1692 144.617 86.9828C144.79 86.7963 144.998 86.6524 145.242 86.5509C145.489 86.4495 145.766 86.3988 146.073 86.3988ZM146.073 90.1168C146.484 90.1168 146.791 89.9797 146.994 89.7055C147.197 89.4285 147.299 89.0433 147.299 88.5498C147.299 88.0535 147.197 87.6669 146.994 87.39C146.791 87.113 146.484 86.9746 146.073 86.9746C145.865 86.9746 145.682 87.0102 145.526 87.0815C145.372 87.1528 145.244 87.2556 145.139 87.39C145.038 87.5243 144.961 87.6902 144.909 87.8876C144.86 88.0823 144.835 88.303 144.835 88.5498C144.835 89.0433 144.936 89.4285 145.139 89.7055C145.345 89.9797 145.656 90.1168 146.073 90.1168ZM149.679 87.2995C149.811 87.0143 149.972 86.7922 150.164 86.6332C150.356 86.4714 150.591 86.3905 150.868 86.3905C150.955 86.3905 151.039 86.4001 151.118 86.4193C151.201 86.4385 151.273 86.4687 151.336 86.5098L151.283 87.0568C151.267 87.1254 151.225 87.1596 151.16 87.1596C151.121 87.1596 151.065 87.1514 150.991 87.135C150.917 87.1185 150.833 87.1103 150.74 87.1103C150.608 87.1103 150.491 87.1295 150.386 87.1679C150.285 87.2063 150.193 87.2638 150.111 87.3406C150.031 87.4146 149.959 87.5079 149.893 87.6203C149.83 87.73 149.772 87.8561 149.72 87.9987V90.6309H148.984V86.4646H149.403C149.483 86.4646 149.538 86.4797 149.568 86.5098C149.598 86.54 149.619 86.5921 149.63 86.6661L149.679 87.2995ZM156.938 88.4428L156.012 86.0451C155.985 85.9738 155.956 85.8915 155.926 85.7983C155.896 85.7023 155.867 85.6009 155.839 85.494C155.782 85.716 155.723 85.9011 155.663 86.0492L154.737 88.4428H156.938ZM158.599 90.6309H157.982C157.911 90.6309 157.853 90.613 157.809 90.5774C157.766 90.5417 157.733 90.4965 157.711 90.4417L157.16 89.0186H154.515L153.964 90.4417C153.947 90.491 153.916 90.5349 153.869 90.5733C153.823 90.6117 153.765 90.6309 153.697 90.6309H153.08L155.436 84.7372H156.242L158.599 90.6309ZM160.172 90.6309H159.374V84.7372H160.172V90.6309ZM164.348 89.6273C164.482 89.8083 164.629 89.9358 164.788 90.0098C164.95 90.0839 165.127 90.1209 165.319 90.1209C165.711 90.1209 166.011 89.9824 166.219 89.7055C166.428 89.4285 166.532 89.0159 166.532 88.4675C166.532 87.9575 166.439 87.5833 166.252 87.3447C166.068 87.1034 165.805 86.9828 165.462 86.9828C165.224 86.9828 165.016 87.0376 164.837 87.1473C164.662 87.257 164.499 87.4119 164.348 87.6121V89.6273ZM164.348 87.065C164.523 86.8621 164.721 86.7004 164.94 86.5797C165.162 86.4591 165.417 86.3988 165.705 86.3988C165.949 86.3988 166.169 86.4454 166.363 86.5386C166.561 86.6318 166.728 86.7676 166.865 86.9458C167.002 87.1213 167.106 87.3351 167.178 87.5874C167.252 87.8396 167.289 88.1234 167.289 88.4387C167.289 88.776 167.247 89.0831 167.165 89.36C167.083 89.6369 166.964 89.8741 166.807 90.0715C166.654 90.2662 166.466 90.4184 166.244 90.528C166.022 90.635 165.772 90.6884 165.495 90.6884C165.221 90.6884 164.99 90.6377 164.8 90.5363C164.614 90.4321 164.451 90.2854 164.311 90.0962L164.274 90.4746C164.252 90.5788 164.189 90.6309 164.085 90.6309H163.612V84.5727H164.348V87.065ZM171.641 86.4646V90.6309H171.205C171.1 90.6309 171.035 90.5801 171.007 90.4787L170.95 90.0304C170.769 90.2305 170.566 90.3923 170.341 90.5157C170.116 90.6363 169.858 90.6967 169.568 90.6967C169.34 90.6967 169.139 90.6596 168.963 90.5856C168.79 90.5088 168.645 90.4019 168.527 90.2648C168.409 90.1277 168.32 89.9618 168.26 89.7672C168.202 89.5725 168.173 89.3573 168.173 89.1215V86.4646H168.905V89.1215C168.905 89.4368 168.977 89.6808 169.119 89.8535C169.265 90.0263 169.485 90.1126 169.782 90.1126C169.998 90.1126 170.2 90.0619 170.386 89.9605C170.575 89.8563 170.749 89.7137 170.908 89.5327V86.4646H171.641ZM175.228 87.1514C175.195 87.2117 175.144 87.2419 175.076 87.2419C175.035 87.2419 174.988 87.2268 174.936 87.1967C174.884 87.1665 174.819 87.1336 174.743 87.098C174.669 87.0596 174.579 87.0253 174.475 86.9951C174.371 86.9622 174.248 86.9458 174.105 86.9458C173.982 86.9458 173.871 86.9622 173.772 86.9951C173.673 87.0253 173.588 87.0678 173.517 87.1226C173.448 87.1775 173.395 87.2419 173.357 87.3159C173.321 87.3872 173.303 87.4654 173.303 87.5504C173.303 87.6573 173.333 87.7464 173.394 87.8177C173.457 87.889 173.539 87.9507 173.64 88.0028C173.742 88.0549 173.857 88.1015 173.986 88.1426C174.115 88.181 174.246 88.2235 174.381 88.2701C174.518 88.314 174.651 88.3633 174.78 88.4182C174.908 88.473 175.024 88.5415 175.125 88.6238C175.226 88.7061 175.307 88.8075 175.368 88.9282C175.431 89.0461 175.462 89.1886 175.462 89.3559C175.462 89.5478 175.428 89.726 175.359 89.8906C175.291 90.0523 175.189 90.1935 175.055 90.3142C174.921 90.4321 174.756 90.5253 174.562 90.5938C174.367 90.6624 174.142 90.6967 173.887 90.6967C173.596 90.6967 173.333 90.6501 173.097 90.5568C172.862 90.4609 172.661 90.3388 172.497 90.1908L172.67 89.9111C172.692 89.8755 172.718 89.8481 172.748 89.8289C172.778 89.8097 172.816 89.8001 172.863 89.8001C172.912 89.8001 172.964 89.8193 173.019 89.8576C173.074 89.896 173.14 89.9385 173.217 89.9851C173.296 90.0318 173.392 90.0743 173.505 90.1126C173.617 90.151 173.757 90.1702 173.924 90.1702C174.067 90.1702 174.191 90.1524 174.298 90.1168C174.405 90.0784 174.494 90.0276 174.566 89.9646C174.637 89.9015 174.689 89.8289 174.722 89.7466C174.758 89.6643 174.775 89.5766 174.775 89.4834C174.775 89.3682 174.744 89.2736 174.681 89.1996C174.621 89.1228 174.54 89.0584 174.438 89.0063C174.337 88.9515 174.22 88.9048 174.089 88.8665C173.96 88.8253 173.827 88.7828 173.69 88.739C173.555 88.6951 173.422 88.6457 173.291 88.5909C173.162 88.5333 173.047 88.462 172.945 88.377C172.844 88.292 172.762 88.1878 172.698 88.0645C172.638 87.9383 172.608 87.7862 172.608 87.6079C172.608 87.4489 172.641 87.2967 172.707 87.1514C172.772 87.0034 172.868 86.8745 172.995 86.7648C173.121 86.6524 173.276 86.5633 173.459 86.4975C173.643 86.4317 173.853 86.3988 174.089 86.3988C174.363 86.3988 174.608 86.4426 174.825 86.5304C175.044 86.6154 175.233 86.7333 175.392 86.8841L175.228 87.1514ZM177.133 86.4646V90.6309H176.401V86.4646H177.133ZM177.289 85.1567C177.289 85.228 177.274 85.2952 177.244 85.3582C177.217 85.4186 177.178 85.4734 177.129 85.5227C177.082 85.5694 177.026 85.6064 176.96 85.6338C176.897 85.6612 176.83 85.6749 176.759 85.6749C176.687 85.6749 176.62 85.6612 176.557 85.6338C176.497 85.6064 176.443 85.5694 176.397 85.5227C176.35 85.4734 176.313 85.4186 176.286 85.3582C176.258 85.2952 176.245 85.228 176.245 85.1567C176.245 85.0854 176.258 85.0182 176.286 84.9552C176.313 84.8894 176.35 84.8332 176.397 84.7865C176.443 84.7372 176.497 84.6988 176.557 84.6714C176.62 84.644 176.687 84.6303 176.759 84.6303C176.83 84.6303 176.897 84.644 176.96 84.6714C177.026 84.6988 177.082 84.7372 177.129 84.7865C177.178 84.8332 177.217 84.8894 177.244 84.9552C177.274 85.0182 177.289 85.0854 177.289 85.1567ZM179.027 87.0692C179.117 86.9677 179.213 86.8759 179.315 86.7936C179.416 86.7113 179.523 86.6414 179.636 86.5838C179.751 86.5235 179.871 86.4783 179.997 86.4481C180.126 86.4152 180.265 86.3988 180.413 86.3988C180.64 86.3988 180.841 86.4372 181.013 86.5139C181.189 86.588 181.334 86.6949 181.449 86.8347C181.567 86.9718 181.656 87.1377 181.717 87.3324C181.777 87.5271 181.807 87.7423 181.807 87.9781V90.6309H181.071V87.9781C181.071 87.6628 180.998 87.4188 180.853 87.246C180.71 87.0705 180.492 86.9828 180.199 86.9828C179.982 86.9828 179.78 87.0349 179.59 87.1391C179.404 87.2433 179.231 87.3845 179.072 87.5627V90.6309H178.336V86.4646H178.776C178.88 86.4646 178.945 86.5153 178.969 86.6168L179.027 87.0692ZM185.711 88.0933C185.711 87.9233 185.686 87.7683 185.637 87.6285C185.591 87.4859 185.521 87.3639 185.427 87.2625C185.337 87.1583 185.226 87.0788 185.094 87.0239C184.963 86.9663 184.813 86.9376 184.646 86.9376C184.295 86.9376 184.017 87.0404 183.811 87.246C183.608 87.4489 183.482 87.7313 183.433 88.0933H185.711ZM186.303 90.0468C186.213 90.1565 186.105 90.2525 185.978 90.3347C185.852 90.4143 185.717 90.4801 185.571 90.5322C185.429 90.5842 185.281 90.6226 185.127 90.6473C184.974 90.6747 184.821 90.6884 184.671 90.6884C184.383 90.6884 184.117 90.6405 183.873 90.5445C183.631 90.4458 183.422 90.3032 183.243 90.1168C183.068 89.9276 182.931 89.6945 182.832 89.4176C182.733 89.1406 182.684 88.8226 182.684 88.4634C182.684 88.1728 182.728 87.9013 182.816 87.6491C182.906 87.3968 183.035 87.1788 183.202 86.9951C183.37 86.8087 183.574 86.6634 183.815 86.5592C184.056 86.4522 184.328 86.3988 184.629 86.3988C184.879 86.3988 185.109 86.4413 185.32 86.5263C185.534 86.6085 185.718 86.7292 185.872 86.8882C186.028 87.0445 186.15 87.2392 186.238 87.4722C186.325 87.7025 186.369 87.9658 186.369 88.2619C186.369 88.377 186.357 88.4538 186.332 88.4922C186.308 88.5306 186.261 88.5498 186.192 88.5498H183.408C183.416 88.813 183.452 89.0419 183.515 89.2366C183.581 89.4313 183.671 89.5944 183.786 89.726C183.902 89.8549 184.039 89.9522 184.198 90.018C184.357 90.0811 184.535 90.1126 184.732 90.1126C184.916 90.1126 185.074 90.0921 185.205 90.051C185.34 90.0071 185.455 89.9605 185.551 89.9111C185.647 89.8618 185.726 89.8165 185.789 89.7754C185.855 89.7315 185.911 89.7096 185.958 89.7096C186.018 89.7096 186.065 89.7329 186.098 89.7795L186.303 90.0468ZM189.695 87.1514C189.662 87.2117 189.611 87.2419 189.543 87.2419C189.502 87.2419 189.455 87.2268 189.403 87.1967C189.351 87.1665 189.286 87.1336 189.21 87.098C189.136 87.0596 189.047 87.0253 188.942 86.9951C188.838 86.9622 188.715 86.9458 188.572 86.9458C188.449 86.9458 188.338 86.9622 188.239 86.9951C188.14 87.0253 188.055 87.0678 187.984 87.1226C187.916 87.1775 187.862 87.2419 187.824 87.3159C187.788 87.3872 187.77 87.4654 187.77 87.5504C187.77 87.6573 187.8 87.7464 187.861 87.8177C187.924 87.889 188.006 87.9507 188.107 88.0028C188.209 88.0549 188.324 88.1015 188.453 88.1426C188.582 88.181 188.713 88.2235 188.848 88.2701C188.985 88.314 189.118 88.3633 189.247 88.4182C189.376 88.473 189.491 88.5415 189.592 88.6238C189.694 88.7061 189.775 88.8075 189.835 88.9282C189.898 89.0461 189.929 89.1886 189.929 89.3559C189.929 89.5478 189.895 89.726 189.827 89.8906C189.758 90.0523 189.657 90.1935 189.522 90.3142C189.388 90.4321 189.223 90.5253 189.029 90.5938C188.834 90.6624 188.609 90.6967 188.354 90.6967C188.064 90.6967 187.8 90.6501 187.565 90.5568C187.329 90.4609 187.129 90.3388 186.964 90.1908L187.137 89.9111C187.159 89.8755 187.185 89.8481 187.215 89.8289C187.245 89.8097 187.284 89.8001 187.33 89.8001C187.379 89.8001 187.432 89.8193 187.486 89.8576C187.541 89.896 187.607 89.9385 187.684 89.9851C187.763 90.0318 187.859 90.0743 187.972 90.1126C188.084 90.151 188.224 90.1702 188.391 90.1702C188.534 90.1702 188.659 90.1524 188.766 90.1168C188.872 90.0784 188.962 90.0276 189.033 89.9646C189.104 89.9015 189.156 89.8289 189.189 89.7466C189.225 89.6643 189.243 89.5766 189.243 89.4834C189.243 89.3682 189.211 89.2736 189.148 89.1996C189.088 89.1228 189.007 89.0584 188.905 89.0063C188.804 88.9515 188.687 88.9048 188.556 88.8665C188.427 88.8253 188.294 88.7828 188.157 88.739C188.022 88.6951 187.889 88.6457 187.758 88.5909C187.629 88.5333 187.514 88.462 187.412 88.377C187.311 88.292 187.229 88.1878 187.166 88.0645C187.105 87.9383 187.075 87.7862 187.075 87.6079C187.075 87.4489 187.108 87.2967 187.174 87.1514C187.24 87.0034 187.336 86.8745 187.462 86.7648C187.588 86.6524 187.743 86.5633 187.926 86.4975C188.11 86.4317 188.32 86.3988 188.556 86.3988C188.83 86.3988 189.075 86.4426 189.292 86.5304C189.511 86.6154 189.7 86.7333 189.86 86.8841L189.695 87.1514ZM193.254 87.1514C193.221 87.2117 193.17 87.2419 193.101 87.2419C193.06 87.2419 193.014 87.2268 192.962 87.1967C192.909 87.1665 192.845 87.1336 192.768 87.098C192.694 87.0596 192.605 87.0253 192.501 86.9951C192.397 86.9622 192.273 86.9458 192.131 86.9458C192.007 86.9458 191.896 86.9622 191.798 86.9951C191.699 87.0253 191.614 87.0678 191.543 87.1226C191.474 87.1775 191.421 87.2419 191.382 87.3159C191.347 87.3872 191.329 87.4654 191.329 87.5504C191.329 87.6573 191.359 87.7464 191.419 87.8177C191.482 87.889 191.565 87.9507 191.666 88.0028C191.767 88.0549 191.883 88.1015 192.011 88.1426C192.14 88.181 192.272 88.2235 192.406 88.2701C192.543 88.314 192.676 88.3633 192.805 88.4182C192.934 88.473 193.049 88.5415 193.151 88.6238C193.252 88.7061 193.333 88.8075 193.393 88.9282C193.456 89.0461 193.488 89.1886 193.488 89.3559C193.488 89.5478 193.454 89.726 193.385 89.8906C193.317 90.0523 193.215 90.1935 193.081 90.3142C192.946 90.4321 192.782 90.5253 192.587 90.5938C192.393 90.6624 192.168 90.6967 191.913 90.6967C191.622 90.6967 191.359 90.6501 191.123 90.5568C190.887 90.4609 190.687 90.3388 190.523 90.1908L190.695 89.9111C190.717 89.8755 190.743 89.8481 190.774 89.8289C190.804 89.8097 190.842 89.8001 190.889 89.8001C190.938 89.8001 190.99 89.8193 191.045 89.8576C191.1 89.896 191.166 89.9385 191.242 89.9851C191.322 90.0318 191.418 90.0743 191.53 90.1126C191.643 90.151 191.783 90.1702 191.95 90.1702C192.092 90.1702 192.217 90.1524 192.324 90.1168C192.431 90.0784 192.52 90.0276 192.591 89.9646C192.663 89.9015 192.715 89.8289 192.748 89.7466C192.783 89.6643 192.801 89.5766 192.801 89.4834C192.801 89.3682 192.77 89.2736 192.707 89.1996C192.646 89.1228 192.565 89.0584 192.464 89.0063C192.362 88.9515 192.246 88.9048 192.114 88.8665C191.985 88.8253 191.852 88.7828 191.715 88.739C191.581 88.6951 191.448 88.6457 191.316 88.5909C191.188 88.5333 191.072 88.462 190.971 88.377C190.869 88.292 190.787 88.1878 190.724 88.0645C190.664 87.9383 190.634 87.7862 190.634 87.6079C190.634 87.4489 190.667 87.2967 190.732 87.1514C190.798 87.0034 190.894 86.8745 191.02 86.7648C191.146 86.6524 191.301 86.5633 191.485 86.4975C191.669 86.4317 191.879 86.3988 192.114 86.3988C192.388 86.3988 192.634 86.4426 192.85 86.5304C193.07 86.6154 193.259 86.7333 193.418 86.8841L193.254 87.1514ZM53.0816 100.697C52.7526 100.697 52.499 100.605 52.3208 100.421C52.1453 100.237 52.0576 99.9728 52.0576 99.6273V97.0774H51.5558C51.5119 97.0774 51.4749 97.065 51.4447 97.0404C51.4146 97.013 51.3995 96.9718 51.3995 96.917V96.625L52.0822 96.5386L52.2509 95.2513C52.2591 95.2102 52.2769 95.1773 52.3043 95.1526C52.3345 95.1252 52.3729 95.1115 52.4195 95.1115H52.7896V96.5468H53.9947V97.0774H52.7896V99.578C52.7896 99.7535 52.8321 99.8837 52.9171 99.9687C53.0021 100.054 53.1118 100.096 53.2462 100.096C53.3229 100.096 53.3887 100.087 53.4436 100.067C53.5012 100.045 53.5505 100.022 53.5916 99.9975C53.6328 99.9728 53.667 99.9509 53.6945 99.9317C53.7246 99.9097 53.7507 99.8988 53.7726 99.8988C53.811 99.8988 53.8453 99.9221 53.8754 99.9687L54.0893 100.318C53.9632 100.436 53.811 100.529 53.6328 100.598C53.4545 100.664 53.2708 100.697 53.0816 100.697ZM56.4827 96.3988C56.787 96.3988 57.0612 96.4495 57.3053 96.5509C57.5493 96.6524 57.7577 96.7963 57.9304 96.9828C58.1031 97.1692 58.2348 97.3954 58.3252 97.6614C58.4185 97.9246 58.4651 98.2194 58.4651 98.5457C58.4651 98.8747 58.4185 99.1708 58.3252 99.434C58.2348 99.6973 58.1031 99.9221 57.9304 100.109C57.7577 100.295 57.5493 100.439 57.3053 100.54C57.0612 100.639 56.787 100.688 56.4827 100.688C56.1756 100.688 55.8987 100.639 55.6519 100.54C55.4079 100.439 55.1995 100.295 55.0268 100.109C54.854 99.9221 54.721 99.6973 54.6278 99.434C54.5373 99.1708 54.4921 98.8747 54.4921 98.5457C54.4921 98.2194 54.5373 97.9246 54.6278 97.6614C54.721 97.3954 54.854 97.1692 55.0268 96.9828C55.1995 96.7963 55.4079 96.6524 55.6519 96.5509C55.8987 96.4495 56.1756 96.3988 56.4827 96.3988ZM56.4827 100.117C56.894 100.117 57.2011 99.9797 57.404 99.7055C57.6069 99.4285 57.7083 99.0433 57.7083 98.5498C57.7083 98.0535 57.6069 97.6669 57.404 97.39C57.2011 97.113 56.894 96.9746 56.4827 96.9746C56.2743 96.9746 56.092 97.0102 55.9357 97.0815C55.7821 97.1528 55.6533 97.2556 55.5491 97.39C55.4476 97.5243 55.3709 97.6902 55.3188 97.8876C55.2694 98.0823 55.2447 98.303 55.2447 98.5498C55.2447 99.0433 55.3462 99.4285 55.5491 99.7055C55.7547 99.9797 56.0659 100.117 56.4827 100.117ZM61.1498 96.3988C61.4541 96.3988 61.7283 96.4495 61.9723 96.5509C62.2164 96.6524 62.4247 96.7963 62.5975 96.9828C62.7702 97.1692 62.9018 97.3954 62.9923 97.6614C63.0855 97.9246 63.1321 98.2194 63.1321 98.5457C63.1321 98.8747 63.0855 99.1708 62.9923 99.434C62.9018 99.6973 62.7702 99.9221 62.5975 100.109C62.4247 100.295 62.2164 100.439 61.9723 100.54C61.7283 100.639 61.4541 100.688 61.1498 100.688C60.8427 100.688 60.5658 100.639 60.319 100.54C60.075 100.439 59.8666 100.295 59.6938 100.109C59.5211 99.9221 59.3881 99.6973 59.2949 99.434C59.2044 99.1708 59.1592 98.8747 59.1592 98.5457C59.1592 98.2194 59.2044 97.9246 59.2949 97.6614C59.3881 97.3954 59.5211 97.1692 59.6938 96.9828C59.8666 96.7963 60.075 96.6524 60.319 96.5509C60.5658 96.4495 60.8427 96.3988 61.1498 96.3988ZM61.1498 100.117C61.5611 100.117 61.8681 99.9797 62.071 99.7055C62.2739 99.4285 62.3754 99.0433 62.3754 98.5498C62.3754 98.0535 62.2739 97.6669 62.071 97.39C61.8681 97.113 61.5611 96.9746 61.1498 96.9746C60.9414 96.9746 60.7591 97.0102 60.6028 97.0815C60.4492 97.1528 60.3204 97.2556 60.2162 97.39C60.1147 97.5243 60.0379 97.6902 59.9858 97.8876C59.9365 98.0823 59.9118 98.303 59.9118 98.5498C59.9118 99.0433 60.0133 99.4285 60.2162 99.7055C60.4218 99.9797 60.733 100.117 61.1498 100.117ZM64.8174 94.5727V100.631H64.0854V94.5727H64.8174ZM68.4312 97.1514C68.3983 97.2117 68.3476 97.2419 68.279 97.2419C68.2379 97.2419 68.1913 97.2268 68.1392 97.1967C68.0871 97.1665 68.0227 97.1336 67.9459 97.098C67.8718 97.0596 67.7827 97.0253 67.6785 96.9951C67.5744 96.9622 67.451 96.9458 67.3084 96.9458C67.185 96.9458 67.074 96.9622 66.9753 96.9951C66.8765 97.0253 66.7915 97.0678 66.7203 97.1226C66.6517 97.1775 66.5982 97.2419 66.5599 97.3159C66.5242 97.3872 66.5064 97.4654 66.5064 97.5504C66.5064 97.6573 66.5366 97.7464 66.5969 97.8177C66.6599 97.889 66.7422 97.9507 66.8436 98.0028C66.9451 98.0549 67.0603 98.1015 67.1891 98.1426C67.318 98.181 67.4496 98.2235 67.584 98.2701C67.721 98.314 67.854 98.3633 67.9829 98.4182C68.1118 98.473 68.2269 98.5415 68.3284 98.6238C68.4298 98.7061 68.5107 98.8075 68.571 98.9282C68.6341 99.0461 68.6656 99.1886 68.6656 99.3559C68.6656 99.5478 68.6313 99.726 68.5628 99.8906C68.4943 100.052 68.3928 100.194 68.2585 100.314C68.1241 100.432 67.9596 100.525 67.7649 100.594C67.5702 100.662 67.3454 100.697 67.0904 100.697C66.7998 100.697 66.5366 100.65 66.3008 100.557C66.065 100.461 65.8648 100.339 65.7003 100.191L65.873 99.9111C65.895 99.8755 65.921 99.8481 65.9512 99.8289C65.9813 99.8097 66.0197 99.8001 66.0663 99.8001C66.1157 99.8001 66.1678 99.8193 66.2226 99.8576C66.2774 99.896 66.3433 99.9385 66.42 99.9851C66.4995 100.032 66.5955 100.074 66.7079 100.113C66.8203 100.151 66.9602 100.17 67.1274 100.17C67.27 100.17 67.3948 100.152 67.5017 100.117C67.6086 100.078 67.6977 100.028 67.769 99.9646C67.8403 99.9015 67.8924 99.8289 67.9253 99.7466C67.961 99.6643 67.9788 99.5766 67.9788 99.4834C67.9788 99.3682 67.9472 99.2736 67.8842 99.1996C67.8239 99.1228 67.743 99.0584 67.6415 99.0063C67.5401 98.9515 67.4236 98.9048 67.2919 98.8665C67.1631 98.8253 67.0301 98.7828 66.893 98.739C66.7586 98.6951 66.6257 98.6457 66.4941 98.5909C66.3652 98.5333 66.25 98.462 66.1486 98.377C66.0471 98.292 65.9649 98.1878 65.9018 98.0645C65.8415 97.9383 65.8113 97.7862 65.8113 97.6079C65.8113 97.4489 65.8442 97.2967 65.91 97.1514C65.9758 97.0034 66.0718 96.8745 66.1979 96.7648C66.3241 96.6524 66.479 96.5633 66.6627 96.4975C66.8464 96.4317 67.0561 96.3988 67.2919 96.3988C67.5661 96.3988 67.8115 96.4426 68.0281 96.5304C68.2475 96.6154 68.4367 96.7333 68.5957 96.8841L68.4312 97.1514Z" fill="black"/>
</g>
<defs>
<filter id="filter0_d_475_4310" x="0" y="0" width="265" height="167" filterUnits="userSpaceOnUse" color-interpolation-filters="sRGB">
<feFlood flood-opacity="0" result="BackgroundImageFix"/>
<feColorMatrix in="SourceAlpha" type="matrix" values="0 0 0 0 0 0 0 0 0 0 0 0 0 0 0 0 0 0 127 0" result="hardAlpha"/>
<feMorphology radius="8" operator="erode" in="SourceAlpha" result="effect1_dropShadow_475_4310"/>
<feOffset dy="16"/>
<feGaussianBlur stdDeviation="16"/>
<feComposite in2="hardAlpha" operator="out"/>
<feColorMatrix type="matrix" values="0 0 0 0 0.0470588 0 0 0 0 0.0470588 0 0 0 0 0.0509804 0 0 0 0.4 0"/>
<feBlend mode="normal" in2="BackgroundImageFix" result="effect1_dropShadow_475_4310"/>
<feBlend mode="normal" in="SourceGraphic" in2="effect1_dropShadow_475_4310" result="shape"/>
</filter>
<filter id="filter1_f_475_4310" x="187.897" y="-3.74428" width="66.3089" height="48.222" filterUnits="userSpaceOnUse" color-interpolation-filters="sRGB">
<feFlood flood-opacity="0" result="BackgroundImageFix"/>
<feBlend mode="normal" in="SourceGraphic" in2="BackgroundImageFix" result="shape"/>
<feGaussianBlur stdDeviation="3.90681" result="effect1_foregroundBlur_475_4310"/>
</filter>
<filter id="filter2_f_475_4310" x="205.138" y="17.7059" width="43.324" height="31.1956" filterUnits="userSpaceOnUse" color-interpolation-filters="sRGB">
<feFlood flood-opacity="0" result="BackgroundImageFix"/>
<feBlend mode="normal" in="SourceGraphic" in2="BackgroundImageFix" result="shape"/>
<feGaussianBlur stdDeviation="3.90681" result="effect1_foregroundBlur_475_4310"/>
</filter>
<clipPath id="clip0_475_4310">
<rect x="215.148" y="19.751" width="14.1011" height="14.1011" rx="7.05054" fill="white"/>
</clipPath>
</defs>
</svg>
