<svg width="79" height="79" viewBox="0 0 79 79" fill="none" xmlns="http://www.w3.org/2000/svg">
<path d="M45.8054 6.65776C45.8054 2.98078 42.8246 0 39.1476 0C35.4706 0 32.4899 2.98078 32.4899 6.65776V13.9564L28.8839 7.61078C27.0672 4.41393 23.0029 3.29507 19.8061 5.11175C16.6092 6.92842 15.4904 10.9927 17.307 14.1895L21.4104 21.4104L14.1895 17.307C10.9927 15.4903 6.92843 16.6092 5.11175 19.806C3.29508 23.0029 4.41393 27.0672 7.61079 28.8838L13.9564 32.4899H6.65776C2.98078 32.4899 0 35.4706 0 39.1476C0 42.8246 2.98078 45.8054 6.65776 45.8054H13.9564L7.61079 49.4114C4.41393 51.228 3.29508 55.2923 5.11176 58.4892C6.92843 61.686 10.9927 62.8049 14.1895 60.9882L21.4105 56.8848L17.307 64.1057C15.4904 67.3025 16.6092 71.3668 19.8061 73.1835C23.0029 75.0001 27.0672 73.8813 28.8839 70.6844L32.4899 64.3388V71.6375C32.4899 75.3145 35.4706 78.2952 39.1476 78.2952C42.8246 78.2952 45.8054 75.3145 45.8054 71.6375V64.3389L49.4114 70.6844C51.2281 73.8813 55.2923 75.0001 58.4892 73.1835C61.686 71.3668 62.8049 67.3025 60.9882 64.1057L56.8848 56.8848L64.1057 60.9882C67.3025 62.8049 71.3668 61.686 73.1835 58.4892C75.0002 55.2923 73.8813 51.228 70.6844 49.4114L64.3389 45.8054H71.6375C75.3145 45.8054 78.2952 42.8246 78.2952 39.1476C78.2952 35.4706 75.3145 32.4899 71.6375 32.4899H64.3388L70.6844 28.8838C73.8813 27.0672 75.0002 23.0029 73.1835 19.806C71.3668 16.6092 67.3025 15.4903 64.1057 17.307L56.8848 21.4104L60.9882 14.1895C62.8049 10.9927 61.686 6.92842 58.4892 5.11175C55.2923 3.29507 51.2281 4.41393 49.4114 7.61078L45.8054 13.9564V6.65776Z" fill="#FFCC63"/>
</svg>
