<svg width="226" height="176" viewBox="0 0 226 176" fill="none" xmlns="http://www.w3.org/2000/svg">
<rect x="0.119341" y="0.119341" width="224.919" height="175.591" rx="4.65432" fill="white"/>
<rect x="0.119341" y="0.119341" width="224.919" height="175.591" rx="4.65432" stroke="#EAEAEA" stroke-width="0.238683"/>
<path d="M11.3393 15.506C11.5923 15.506 11.8068 15.4748 11.9828 15.4125C12.1625 15.3465 12.3091 15.2566 12.4228 15.143C12.5365 15.0293 12.619 14.8973 12.6703 14.747C12.7216 14.593 12.7473 14.428 12.7473 14.252C12.7473 13.9 12.6318 13.625 12.4008 13.427C12.1735 13.229 11.8196 13.13 11.3393 13.13H10.5913V15.506H11.3393ZM15.2883 19.752H13.6053C13.2936 19.752 13.07 19.6346 12.9343 19.4L11.6033 17.0735C11.541 16.9745 11.4713 16.903 11.3943 16.859C11.3173 16.8113 11.2073 16.7875 11.0643 16.7875H10.5913V19.752H8.73229V11.7385H11.3393C11.9186 11.7385 12.4118 11.799 12.8188 11.92C13.2295 12.0373 13.5631 12.2023 13.8198 12.415C14.0801 12.6276 14.269 12.8788 14.3863 13.1685C14.5036 13.4581 14.5623 13.7735 14.5623 14.1145C14.5623 14.3748 14.5275 14.6205 14.4578 14.8515C14.3881 15.0825 14.2855 15.297 14.1498 15.495C14.0141 15.6893 13.8455 15.8635 13.6438 16.0175C13.4458 16.1715 13.2166 16.298 12.9563 16.397C13.0773 16.4593 13.191 16.5381 13.2973 16.6335C13.4036 16.7251 13.499 16.8351 13.5833 16.9635L15.2883 19.752ZM18.9353 16.2155C18.9353 16.0798 18.917 15.9478 18.8803 15.8195C18.8473 15.6911 18.7905 15.5775 18.7098 15.4785C18.6328 15.3758 18.5301 15.2933 18.4018 15.231C18.2735 15.1686 18.1176 15.1375 17.9343 15.1375C17.6116 15.1375 17.3586 15.231 17.1753 15.418C16.992 15.6013 16.871 15.8671 16.8123 16.2155H18.9353ZM16.7903 17.2055C16.8453 17.6821 16.9901 18.0286 17.2248 18.245C17.4595 18.4576 17.762 18.564 18.1323 18.564C18.3303 18.564 18.5008 18.5401 18.6438 18.4925C18.7868 18.4448 18.9133 18.3916 19.0233 18.333C19.137 18.2743 19.2396 18.2211 19.3313 18.1735C19.4266 18.1258 19.5256 18.102 19.6283 18.102C19.764 18.102 19.8666 18.1515 19.9363 18.2505L20.4313 18.861C20.2553 19.0626 20.0646 19.2276 19.8593 19.356C19.6576 19.4806 19.4486 19.5796 19.2323 19.653C19.0196 19.7226 18.8051 19.7703 18.5888 19.796C18.3761 19.8253 18.1726 19.84 17.9783 19.84C17.5786 19.84 17.2028 19.7758 16.8508 19.6475C16.5025 19.5155 16.1963 19.3211 15.9323 19.0645C15.672 18.8078 15.4648 18.4888 15.3108 18.1075C15.1605 17.7261 15.0853 17.2825 15.0853 16.7765C15.0853 16.3951 15.1495 16.034 15.2778 15.693C15.4098 15.352 15.5968 15.0531 15.8388 14.7965C16.0845 14.5398 16.3796 14.3363 16.7243 14.186C17.0726 14.0356 17.465 13.9605 17.9013 13.9605C18.279 13.9605 18.6236 14.0191 18.9353 14.1365C19.2506 14.2538 19.5201 14.4243 19.7438 14.648C19.9711 14.8716 20.1471 15.1466 20.2718 15.473C20.4001 15.7956 20.4643 16.1623 20.4643 16.573C20.4643 16.7013 20.4588 16.8058 20.4478 16.8865C20.4368 16.9671 20.4166 17.0313 20.3873 17.079C20.358 17.1266 20.3176 17.1596 20.2663 17.178C20.2186 17.1963 20.1563 17.2055 20.0793 17.2055H16.7903ZM26.5299 14.0485L24.3189 19.752H22.7679L20.5569 14.0485H21.9759C22.0969 14.0485 22.1977 14.0778 22.2784 14.1365C22.3627 14.1915 22.4195 14.2611 22.4489 14.3455L23.2409 16.903C23.3105 17.112 23.371 17.3155 23.4224 17.5135C23.4774 17.7115 23.525 17.9095 23.5654 18.1075C23.646 17.7115 23.7579 17.31 23.9009 16.903L24.7259 14.3455C24.7552 14.2611 24.8102 14.1915 24.8909 14.1365C24.9715 14.0778 25.0669 14.0485 25.1769 14.0485H26.5299ZM30.4402 16.2155C30.4402 16.0798 30.4219 15.9478 30.3852 15.8195C30.3522 15.6911 30.2954 15.5775 30.2147 15.4785C30.1377 15.3758 30.035 15.2933 29.9067 15.231C29.7784 15.1686 29.6225 15.1375 29.4392 15.1375C29.1165 15.1375 28.8635 15.231 28.6802 15.418C28.4969 15.6013 28.3759 15.8671 28.3172 16.2155H30.4402ZM28.2952 17.2055C28.3502 17.6821 28.495 18.0286 28.7297 18.245C28.9644 18.4576 29.2669 18.564 29.6372 18.564C29.8352 18.564 30.0057 18.5401 30.1487 18.4925C30.2917 18.4448 30.4182 18.3916 30.5282 18.333C30.6419 18.2743 30.7445 18.2211 30.8362 18.1735C30.9315 18.1258 31.0305 18.102 31.1332 18.102C31.2689 18.102 31.3715 18.1515 31.4412 18.2505L31.9362 18.861C31.7602 19.0626 31.5695 19.2276 31.3642 19.356C31.1625 19.4806 30.9535 19.5796 30.7372 19.653C30.5245 19.7226 30.31 19.7703 30.0937 19.796C29.881 19.8253 29.6775 19.84 29.4832 19.84C29.0835 19.84 28.7077 19.7758 28.3557 19.6475C28.0074 19.5155 27.7012 19.3211 27.4372 19.0645C27.1769 18.8078 26.9697 18.4888 26.8157 18.1075C26.6654 17.7261 26.5902 17.2825 26.5902 16.7765C26.5902 16.3951 26.6544 16.034 26.7827 15.693C26.9147 15.352 27.1017 15.0531 27.3437 14.7965C27.5894 14.5398 27.8845 14.3363 28.2292 14.186C28.5775 14.0356 28.9699 13.9605 29.4062 13.9605C29.7839 13.9605 30.1285 14.0191 30.4402 14.1365C30.7555 14.2538 31.025 14.4243 31.2487 14.648C31.476 14.8716 31.652 15.1466 31.7767 15.473C31.905 15.7956 31.9692 16.1623 31.9692 16.573C31.9692 16.7013 31.9637 16.8058 31.9527 16.8865C31.9417 16.9671 31.9215 17.0313 31.8922 17.079C31.8629 17.1266 31.8225 17.1596 31.7712 17.178C31.7235 17.1963 31.6612 17.2055 31.5842 17.2055H28.2952ZM34.3954 14.6645C34.5054 14.5618 34.619 14.4665 34.7364 14.3785C34.8537 14.2905 34.9784 14.2171 35.1104 14.1585C35.246 14.0961 35.3909 14.0485 35.5449 14.0155C35.7025 13.9788 35.873 13.9605 36.0564 13.9605C36.368 13.9605 36.643 14.0155 36.8814 14.1255C37.1234 14.2318 37.3269 14.3821 37.4919 14.5765C37.6569 14.7671 37.7815 14.9963 37.8659 15.264C37.9502 15.528 37.9924 15.8158 37.9924 16.1275V19.752H36.2874V16.1275C36.2874 15.8488 36.2232 15.6325 36.0949 15.4785C35.9665 15.3208 35.7777 15.242 35.5284 15.242C35.3414 15.242 35.1654 15.2823 35.0004 15.363C34.839 15.44 34.6814 15.5463 34.5274 15.682V19.752H32.8224V14.0485H33.8784C34.091 14.0485 34.2304 14.1438 34.2964 14.3345L34.3954 14.6645ZM44.2108 14.0485V19.752H43.1548C42.9421 19.752 42.8028 19.6566 42.7368 19.466L42.6378 19.136C42.5278 19.2423 42.4141 19.3395 42.2968 19.4275C42.1795 19.5118 42.053 19.5851 41.9173 19.6475C41.7853 19.7061 41.6405 19.752 41.4828 19.785C41.3288 19.8216 41.1601 19.84 40.9768 19.84C40.6651 19.84 40.3883 19.7868 40.1463 19.6805C39.908 19.5705 39.7063 19.4183 39.5413 19.224C39.3763 19.0296 39.2516 18.8005 39.1673 18.5365C39.083 18.2725 39.0408 17.9828 39.0408 17.6675V14.0485H40.7458V17.6675C40.7458 17.9498 40.81 18.168 40.9383 18.322C41.0666 18.476 41.2555 18.553 41.5048 18.553C41.6918 18.553 41.866 18.5145 42.0273 18.4375C42.1923 18.3568 42.3518 18.2486 42.5058 18.113V14.0485H44.2108ZM48.9167 16.2155C48.9167 16.0798 48.8984 15.9478 48.8617 15.8195C48.8287 15.6911 48.7719 15.5775 48.6912 15.4785C48.6142 15.3758 48.5116 15.2933 48.3832 15.231C48.2549 15.1686 48.0991 15.1375 47.9157 15.1375C47.5931 15.1375 47.3401 15.231 47.1567 15.418C46.9734 15.6013 46.8524 15.8671 46.7937 16.2155H48.9167ZM46.7717 17.2055C46.8267 17.6821 46.9716 18.0286 47.2062 18.245C47.4409 18.4576 47.7434 18.564 48.1137 18.564C48.3117 18.564 48.4822 18.5401 48.6252 18.4925C48.7682 18.4448 48.8947 18.3916 49.0047 18.333C49.1184 18.2743 49.2211 18.2211 49.3127 18.1735C49.4081 18.1258 49.5071 18.102 49.6097 18.102C49.7454 18.102 49.8481 18.1515 49.9177 18.2505L50.4127 18.861C50.2367 19.0626 50.0461 19.2276 49.8407 19.356C49.6391 19.4806 49.4301 19.5796 49.2137 19.653C49.0011 19.7226 48.7866 19.7703 48.5702 19.796C48.3576 19.8253 48.1541 19.84 47.9597 19.84C47.5601 19.84 47.1842 19.7758 46.8322 19.6475C46.4839 19.5155 46.1777 19.3211 45.9137 19.0645C45.6534 18.8078 45.4462 18.4888 45.2922 18.1075C45.1419 17.7261 45.0667 17.2825 45.0667 16.7765C45.0667 16.3951 45.1309 16.034 45.2592 15.693C45.3912 15.352 45.5782 15.0531 45.8202 14.7965C46.0659 14.5398 46.3611 14.3363 46.7057 14.186C47.0541 14.0356 47.4464 13.9605 47.8827 13.9605C48.2604 13.9605 48.6051 14.0191 48.9167 14.1365C49.2321 14.2538 49.5016 14.4243 49.7252 14.648C49.9526 14.8716 50.1286 15.1466 50.2532 15.473C50.3816 15.7956 50.4457 16.1623 50.4457 16.573C50.4457 16.7013 50.4402 16.8058 50.4292 16.8865C50.4182 16.9671 50.3981 17.0313 50.3687 17.079C50.3394 17.1266 50.2991 17.1596 50.2477 17.178C50.2001 17.1963 50.1377 17.2055 50.0607 17.2055H46.7717ZM60.8124 11.7385L57.6004 19.752H55.9174L52.7054 11.7385H54.2014C54.3627 11.7385 54.4929 11.777 54.5919 11.854C54.6909 11.9273 54.7661 12.0226 54.8174 12.14L56.3684 16.43C56.4417 16.617 56.5132 16.8223 56.5829 17.046C56.6526 17.266 56.7186 17.497 56.7809 17.739C56.8322 17.497 56.8891 17.266 56.9514 17.046C57.0174 16.8223 57.0871 16.617 57.1604 16.43L58.7004 12.14C58.7407 12.0373 58.8122 11.9456 58.9149 11.865C59.0212 11.7806 59.1514 11.7385 59.3054 11.7385H60.8124ZM64.0221 15.297C63.9781 15.3666 63.9304 15.4161 63.8791 15.4455C63.8314 15.4748 63.7691 15.4895 63.6921 15.4895C63.6114 15.4895 63.5307 15.473 63.4501 15.44C63.3694 15.4033 63.2814 15.3648 63.1861 15.3245C63.0944 15.2841 62.9899 15.2475 62.8726 15.2145C62.7552 15.1778 62.6214 15.1595 62.4711 15.1595C62.2547 15.1595 62.0879 15.2016 61.9706 15.286C61.8569 15.3666 61.8001 15.4803 61.8001 15.627C61.8001 15.7333 61.8367 15.8213 61.9101 15.891C61.9871 15.9606 62.0879 16.023 62.2126 16.078C62.3372 16.1293 62.4784 16.1788 62.6361 16.2265C62.7937 16.2741 62.9551 16.3273 63.1201 16.386C63.2851 16.4446 63.4464 16.5143 63.6041 16.595C63.7617 16.672 63.9029 16.7691 64.0276 16.8865C64.1522 17.0001 64.2512 17.1395 64.3246 17.3045C64.4016 17.4695 64.4401 17.6675 64.4401 17.8985C64.4401 18.1808 64.3887 18.4411 64.2861 18.6795C64.1834 18.9178 64.0294 19.1231 63.8241 19.2955C63.6224 19.4678 63.3712 19.6016 63.0706 19.697C62.7736 19.7923 62.4307 19.84 62.0421 19.84C61.8477 19.84 61.6534 19.8216 61.4591 19.785C61.2647 19.7483 61.0759 19.6988 60.8926 19.6365C60.7129 19.5741 60.5461 19.5008 60.3921 19.4165C60.2381 19.3285 60.1061 19.235 59.9961 19.136L60.3921 18.509C60.4361 18.4356 60.4911 18.3788 60.5571 18.3385C60.6267 18.2945 60.7147 18.2725 60.8211 18.2725C60.9201 18.2725 61.0081 18.2945 61.0851 18.3385C61.1657 18.3825 61.2519 18.4301 61.3436 18.4815C61.4352 18.5328 61.5416 18.5805 61.6626 18.6245C61.7872 18.6685 61.9431 18.6905 62.1301 18.6905C62.2621 18.6905 62.3739 18.6776 62.4656 18.652C62.5572 18.6226 62.6306 18.5841 62.6856 18.5365C62.7406 18.4888 62.7809 18.4356 62.8066 18.377C62.8322 18.3183 62.8451 18.2578 62.8451 18.1955C62.8451 18.0818 62.8066 17.9883 62.7296 17.915C62.6526 17.8416 62.5517 17.7793 62.4271 17.728C62.3024 17.673 62.1594 17.6235 61.9981 17.5795C61.8404 17.5318 61.6791 17.4786 61.5141 17.42C61.3491 17.3613 61.1859 17.2916 61.0246 17.211C60.8669 17.1266 60.7257 17.0221 60.6011 16.8975C60.4764 16.7691 60.3756 16.6133 60.2986 16.43C60.2216 16.2466 60.1831 16.0248 60.1831 15.7645C60.1831 15.5225 60.2289 15.2933 60.3206 15.077C60.4159 14.857 60.5571 14.6645 60.7441 14.4995C60.9311 14.3345 61.1657 14.2043 61.4481 14.109C61.7304 14.01 62.0604 13.9605 62.4381 13.9605C62.6434 13.9605 62.8414 13.9788 63.0321 14.0155C63.2264 14.0521 63.4079 14.1035 63.5766 14.1695C63.7452 14.2355 63.8992 14.3143 64.0386 14.406C64.1779 14.494 64.3007 14.5911 64.4071 14.6975L64.0221 15.297ZM73.4409 17.6785C73.4849 17.6785 73.5289 17.6876 73.5729 17.706C73.6169 17.7206 73.6591 17.7481 73.6994 17.7885L74.4364 18.564C74.1137 18.9856 73.7086 19.3046 73.2209 19.521C72.7369 19.7336 72.1631 19.84 71.4994 19.84C70.8907 19.84 70.3444 19.7373 69.8604 19.532C69.3801 19.323 68.9712 19.037 68.6339 18.674C68.3002 18.3073 68.0436 17.8746 67.8639 17.376C67.6842 16.8736 67.5944 16.3291 67.5944 15.7425C67.5944 15.1448 67.6916 14.5966 67.8859 14.098C68.0802 13.5956 68.3534 13.163 68.7054 12.8C69.0574 12.437 69.4791 12.1546 69.9704 11.953C70.4617 11.7513 71.0026 11.6505 71.5929 11.6505C71.8936 11.6505 72.1759 11.678 72.4399 11.733C72.7076 11.7843 72.9569 11.8576 73.1879 11.953C73.4189 12.0446 73.6316 12.1565 73.8259 12.2885C74.0202 12.4205 74.1926 12.5635 74.3429 12.7175L73.7159 13.559C73.6756 13.6103 73.6279 13.658 73.5729 13.702C73.5179 13.7423 73.4409 13.7625 73.3419 13.7625C73.2759 13.7625 73.2136 13.7478 73.1549 13.7185C73.0962 13.6891 73.0339 13.6543 72.9679 13.614C72.9019 13.57 72.8286 13.5241 72.7479 13.4765C72.6709 13.4251 72.5774 13.3793 72.4674 13.339C72.3611 13.295 72.2346 13.2583 72.0879 13.229C71.9449 13.1996 71.7762 13.185 71.5819 13.185C71.2739 13.185 70.9916 13.2418 70.7349 13.3555C70.4819 13.4691 70.2619 13.636 70.0749 13.856C69.8916 14.0723 69.7486 14.34 69.6459 14.659C69.5469 14.9743 69.4974 15.3355 69.4974 15.7425C69.4974 16.1531 69.5524 16.518 69.6624 16.837C69.7761 17.156 69.9282 17.4255 70.1189 17.6455C70.3132 17.8618 70.5387 18.0268 70.7954 18.1405C71.0521 18.2541 71.3271 18.311 71.6204 18.311C71.7891 18.311 71.9431 18.3036 72.0824 18.289C72.2217 18.2706 72.3519 18.2431 72.4729 18.2065C72.5939 18.1661 72.7076 18.1148 72.8139 18.0525C72.9202 17.9865 73.0284 17.904 73.1384 17.805C73.1824 17.7683 73.2301 17.739 73.2814 17.717C73.3327 17.6913 73.3859 17.6785 73.4409 17.6785ZM77.5607 13.9605C77.9934 13.9605 78.3876 14.0283 78.7432 14.164C79.0989 14.2996 79.4032 14.494 79.6562 14.747C79.9129 15 80.1109 15.308 80.2502 15.671C80.3932 16.0303 80.4647 16.4355 80.4647 16.8865C80.4647 17.3411 80.3932 17.7518 80.2502 18.1185C80.1109 18.4815 79.9129 18.7913 79.6562 19.048C79.4032 19.301 79.0989 19.4971 78.7432 19.6365C78.3876 19.7721 77.9934 19.84 77.5607 19.84C77.1244 19.84 76.7266 19.7721 76.3672 19.6365C76.0116 19.4971 75.7036 19.301 75.4432 19.048C75.1866 18.7913 74.9867 18.4815 74.8437 18.1185C74.7044 17.7518 74.6347 17.3411 74.6347 16.8865C74.6347 16.4355 74.7044 16.0303 74.8437 15.671C74.9867 15.308 75.1866 15 75.4432 14.747C75.7036 14.494 76.0116 14.2996 76.3672 14.164C76.7266 14.0283 77.1244 13.9605 77.5607 13.9605ZM77.5607 18.575C77.9531 18.575 78.2409 18.4375 78.4242 18.1625C78.6112 17.8838 78.7047 17.4621 78.7047 16.8975C78.7047 16.3328 78.6112 15.913 78.4242 15.638C78.2409 15.363 77.9531 15.2255 77.5607 15.2255C77.1574 15.2255 76.8622 15.363 76.6752 15.638C76.4882 15.913 76.3947 16.3328 76.3947 16.8975C76.3947 17.4621 76.4882 17.8838 76.6752 18.1625C76.8622 18.4375 77.1574 18.575 77.5607 18.575ZM84.9478 15.297C84.9038 15.3666 84.8562 15.4161 84.8048 15.4455C84.7572 15.4748 84.6948 15.4895 84.6178 15.4895C84.5372 15.4895 84.4565 15.473 84.3758 15.44C84.2952 15.4033 84.2072 15.3648 84.1118 15.3245C84.0202 15.2841 83.9157 15.2475 83.7983 15.2145C83.681 15.1778 83.5472 15.1595 83.3968 15.1595C83.1805 15.1595 83.0137 15.2016 82.8963 15.286C82.7827 15.3666 82.7258 15.4803 82.7258 15.627C82.7258 15.7333 82.7625 15.8213 82.8358 15.891C82.9128 15.9606 83.0137 16.023 83.1383 16.078C83.263 16.1293 83.4042 16.1788 83.5618 16.2265C83.7195 16.2741 83.8808 16.3273 84.0458 16.386C84.2108 16.4446 84.3722 16.5143 84.5298 16.595C84.6875 16.672 84.8287 16.7691 84.9533 16.8865C85.078 17.0001 85.177 17.1395 85.2503 17.3045C85.3273 17.4695 85.3658 17.6675 85.3658 17.8985C85.3658 18.1808 85.3145 18.4411 85.2118 18.6795C85.1092 18.9178 84.9552 19.1231 84.7498 19.2955C84.5482 19.4678 84.297 19.6016 83.9963 19.697C83.6993 19.7923 83.3565 19.84 82.9678 19.84C82.7735 19.84 82.5792 19.8216 82.3848 19.785C82.1905 19.7483 82.0017 19.6988 81.8183 19.6365C81.6387 19.5741 81.4718 19.5008 81.3178 19.4165C81.1638 19.3285 81.0318 19.235 80.9218 19.136L81.3178 18.509C81.3618 18.4356 81.4168 18.3788 81.4828 18.3385C81.5525 18.2945 81.6405 18.2725 81.7468 18.2725C81.8458 18.2725 81.9338 18.2945 82.0108 18.3385C82.0915 18.3825 82.1777 18.4301 82.2693 18.4815C82.361 18.5328 82.4673 18.5805 82.5883 18.6245C82.713 18.6685 82.8688 18.6905 83.0558 18.6905C83.1878 18.6905 83.2997 18.6776 83.3913 18.652C83.483 18.6226 83.5563 18.5841 83.6113 18.5365C83.6663 18.4888 83.7067 18.4356 83.7323 18.377C83.758 18.3183 83.7708 18.2578 83.7708 18.1955C83.7708 18.0818 83.7323 17.9883 83.6553 17.915C83.5783 17.8416 83.4775 17.7793 83.3528 17.728C83.2282 17.673 83.0852 17.6235 82.9238 17.5795C82.7662 17.5318 82.6048 17.4786 82.4398 17.42C82.2748 17.3613 82.1117 17.2916 81.9503 17.211C81.7927 17.1266 81.6515 17.0221 81.5268 16.8975C81.4022 16.7691 81.3013 16.6133 81.2243 16.43C81.1473 16.2466 81.1088 16.0248 81.1088 15.7645C81.1088 15.5225 81.1547 15.2933 81.2463 15.077C81.3417 14.857 81.4828 14.6645 81.6698 14.4995C81.8568 14.3345 82.0915 14.2043 82.3738 14.109C82.6562 14.01 82.9862 13.9605 83.3638 13.9605C83.5692 13.9605 83.7672 13.9788 83.9578 14.0155C84.1522 14.0521 84.3337 14.1035 84.5023 14.1695C84.671 14.2355 84.825 14.3143 84.9643 14.406C85.1037 14.494 85.2265 14.5911 85.3328 14.6975L84.9478 15.297ZM88.2623 19.84C87.991 19.84 87.7508 19.8015 87.5418 19.7245C87.3365 19.6438 87.1623 19.532 87.0193 19.389C86.88 19.2423 86.7736 19.0663 86.7003 18.861C86.627 18.6556 86.5903 18.4265 86.5903 18.1735V15.2255H86.1063C86.0183 15.2255 85.9431 15.198 85.8808 15.143C85.8185 15.0843 85.7873 15 85.7873 14.89V14.2245L86.6948 14.0485L87.0303 12.657C87.0743 12.481 87.199 12.393 87.4043 12.393H88.2953V14.0595H89.7088V15.2255H88.2953V18.058C88.2953 18.19 88.3265 18.3 88.3888 18.388C88.4548 18.4723 88.5483 18.5145 88.6693 18.5145C88.7316 18.5145 88.783 18.509 88.8233 18.498C88.8673 18.4833 88.904 18.4686 88.9333 18.454C88.9663 18.4356 88.9956 18.421 89.0213 18.41C89.0506 18.3953 89.0836 18.388 89.1203 18.388C89.1716 18.388 89.212 18.4008 89.2413 18.4265C89.2743 18.4485 89.3073 18.4851 89.3403 18.5365L89.8573 19.345C89.6373 19.51 89.3898 19.6346 89.1148 19.719C88.8398 19.7996 88.5556 19.84 88.2623 19.84ZM99.9569 11.7385L96.7449 19.752H95.0619L91.8499 11.7385H93.3459C93.5073 11.7385 93.6374 11.777 93.7364 11.854C93.8354 11.9273 93.9106 12.0226 93.9619 12.14L95.5129 16.43C95.5863 16.617 95.6578 16.8223 95.7274 17.046C95.7971 17.266 95.8631 17.497 95.9254 17.739C95.9768 17.497 96.0336 17.266 96.0959 17.046C96.1619 16.8223 96.2316 16.617 96.3049 16.43L97.8449 12.14C97.8853 12.0373 97.9568 11.9456 98.0594 11.865C98.1658 11.7806 98.2959 11.7385 98.4499 11.7385H99.9569ZM103.167 15.297C103.123 15.3666 103.075 15.4161 103.024 15.4455C102.976 15.4748 102.914 15.4895 102.837 15.4895C102.756 15.4895 102.675 15.473 102.595 15.44C102.514 15.4033 102.426 15.3648 102.331 15.3245C102.239 15.2841 102.134 15.2475 102.017 15.2145C101.9 15.1778 101.766 15.1595 101.616 15.1595C101.399 15.1595 101.232 15.2016 101.115 15.286C101.001 15.3666 100.945 15.4803 100.945 15.627C100.945 15.7333 100.981 15.8213 101.055 15.891C101.132 15.9606 101.232 16.023 101.357 16.078C101.482 16.1293 101.623 16.1788 101.781 16.2265C101.938 16.2741 102.1 16.3273 102.265 16.386C102.43 16.4446 102.591 16.5143 102.749 16.595C102.906 16.672 103.047 16.7691 103.172 16.8865C103.297 17.0001 103.396 17.1395 103.469 17.3045C103.546 17.4695 103.585 17.6675 103.585 17.8985C103.585 18.1808 103.533 18.4411 103.431 18.6795C103.328 18.9178 103.174 19.1231 102.969 19.2955C102.767 19.4678 102.516 19.6016 102.215 19.697C101.918 19.7923 101.575 19.84 101.187 19.84C100.992 19.84 100.798 19.8216 100.604 19.785C100.409 19.7483 100.22 19.6988 100.037 19.6365C99.8574 19.5741 99.6906 19.5008 99.5366 19.4165C99.3826 19.3285 99.2506 19.235 99.1406 19.136L99.5366 18.509C99.5806 18.4356 99.6356 18.3788 99.7016 18.3385C99.7713 18.2945 99.8593 18.2725 99.9656 18.2725C100.065 18.2725 100.153 18.2945 100.23 18.3385C100.31 18.3825 100.396 18.4301 100.488 18.4815C100.58 18.5328 100.686 18.5805 100.807 18.6245C100.932 18.6685 101.088 18.6905 101.275 18.6905C101.407 18.6905 101.518 18.6776 101.61 18.652C101.702 18.6226 101.775 18.5841 101.83 18.5365C101.885 18.4888 101.925 18.4356 101.951 18.377C101.977 18.3183 101.99 18.2578 101.99 18.1955C101.99 18.0818 101.951 17.9883 101.874 17.915C101.797 17.8416 101.696 17.7793 101.572 17.728C101.447 17.673 101.304 17.6235 101.143 17.5795C100.985 17.5318 100.824 17.4786 100.659 17.42C100.494 17.3613 100.33 17.2916 100.169 17.211C100.011 17.1266 99.8703 17.0221 99.7456 16.8975C99.6209 16.7691 99.5201 16.6133 99.4431 16.43C99.3661 16.2466 99.3276 16.0248 99.3276 15.7645C99.3276 15.5225 99.3734 15.2933 99.4651 15.077C99.5604 14.857 99.7016 14.6645 99.8886 14.4995C100.076 14.3345 100.31 14.2043 100.593 14.109C100.875 14.01 101.205 13.9605 101.583 13.9605C101.788 13.9605 101.986 13.9788 102.177 14.0155C102.371 14.0521 102.552 14.1035 102.721 14.1695C102.89 14.2355 103.044 14.3143 103.183 14.406C103.322 14.494 103.445 14.5911 103.552 14.6975L103.167 15.297ZM110.011 15.671C110.495 15.671 110.844 15.5555 111.056 15.3245C111.269 15.0935 111.375 14.7708 111.375 14.3565C111.375 14.1731 111.348 14.0063 111.293 13.856C111.238 13.7056 111.154 13.5773 111.04 13.471C110.93 13.361 110.789 13.2766 110.616 13.218C110.448 13.1593 110.246 13.13 110.011 13.13H109.043V15.671H110.011ZM110.011 11.7385C110.576 11.7385 111.06 11.8063 111.463 11.942C111.87 12.074 112.204 12.2573 112.464 12.492C112.728 12.7266 112.923 13.0035 113.047 13.3225C113.172 13.6415 113.234 13.9861 113.234 14.3565C113.234 14.7561 113.17 15.1228 113.042 15.4565C112.914 15.7901 112.717 16.0761 112.453 16.3145C112.189 16.5528 111.854 16.7398 111.447 16.8755C111.044 17.0075 110.565 17.0735 110.011 17.0735H109.043V19.752H107.184V11.7385H110.011ZM115.499 14.9285C115.675 14.6205 115.877 14.3785 116.104 14.2025C116.335 14.0265 116.599 13.9385 116.896 13.9385C117.153 13.9385 117.362 13.999 117.523 14.12L117.413 15.374C117.395 15.4546 117.364 15.5096 117.32 15.539C117.28 15.5683 117.223 15.583 117.149 15.583C117.12 15.583 117.082 15.5811 117.034 15.5775C116.986 15.5738 116.937 15.5701 116.885 15.5665C116.834 15.5591 116.781 15.5536 116.726 15.55C116.675 15.5426 116.627 15.539 116.583 15.539C116.334 15.539 116.134 15.605 115.983 15.737C115.837 15.869 115.712 16.0523 115.609 16.287V19.752H113.904V14.0485H114.916C115.001 14.0485 115.07 14.0558 115.125 14.0705C115.184 14.0851 115.232 14.109 115.268 14.142C115.309 14.1713 115.338 14.2116 115.356 14.263C115.378 14.3143 115.397 14.3766 115.411 14.45L115.499 14.9285ZM120.637 13.9605C121.07 13.9605 121.464 14.0283 121.819 14.164C122.175 14.2996 122.479 14.494 122.732 14.747C122.989 15 123.187 15.308 123.326 15.671C123.469 16.0303 123.541 16.4355 123.541 16.8865C123.541 17.3411 123.469 17.7518 123.326 18.1185C123.187 18.4815 122.989 18.7913 122.732 19.048C122.479 19.301 122.175 19.4971 121.819 19.6365C121.464 19.7721 121.07 19.84 120.637 19.84C120.201 19.84 119.803 19.7721 119.443 19.6365C119.088 19.4971 118.78 19.301 118.519 19.048C118.263 18.7913 118.063 18.4815 117.92 18.1185C117.781 17.7518 117.711 17.3411 117.711 16.8865C117.711 16.4355 117.781 16.0303 117.92 15.671C118.063 15.308 118.263 15 118.519 14.747C118.78 14.494 119.088 14.2996 119.443 14.164C119.803 14.0283 120.201 13.9605 120.637 13.9605ZM120.637 18.575C121.029 18.575 121.317 18.4375 121.5 18.1625C121.687 17.8838 121.781 17.4621 121.781 16.8975C121.781 16.3328 121.687 15.913 121.5 15.638C121.317 15.363 121.029 15.2255 120.637 15.2255C120.234 15.2255 119.938 15.363 119.751 15.638C119.564 15.913 119.471 16.3328 119.471 16.8975C119.471 17.4621 119.564 17.8838 119.751 18.1625C119.938 18.4375 120.234 18.575 120.637 18.575ZM124.662 19.752V15.22L124.288 15.143C124.16 15.1136 124.055 15.0678 123.974 15.0055C123.897 14.9431 123.859 14.8515 123.859 14.7305V14.0595H124.662V13.977C124.662 13.6323 124.721 13.3078 124.838 13.0035C124.959 12.6955 125.144 12.4296 125.393 12.206C125.643 11.9786 125.96 11.799 126.345 11.667C126.734 11.535 127.196 11.469 127.731 11.469C127.896 11.469 128.066 11.4781 128.242 11.4965C128.418 11.5111 128.571 11.535 128.699 11.568L128.644 12.4315C128.637 12.5231 128.591 12.5836 128.506 12.613C128.422 12.6423 128.332 12.657 128.237 12.657C127.856 12.657 127.54 12.6863 127.291 12.745C127.042 12.8036 126.844 12.8916 126.697 13.009C126.554 13.1226 126.453 13.2656 126.394 13.438C126.339 13.6103 126.312 13.8083 126.312 14.032V14.0595H129.931V19.752H128.226V15.2255H126.367V19.752H124.662ZM133.175 19.84C132.904 19.84 132.664 19.8015 132.455 19.7245C132.25 19.6438 132.075 19.532 131.932 19.389C131.793 19.2423 131.687 19.0663 131.613 18.861C131.54 18.6556 131.503 18.4265 131.503 18.1735V15.2255H131.019C130.931 15.2255 130.856 15.198 130.794 15.143C130.732 15.0843 130.7 15 130.7 14.89V14.2245L131.608 14.0485L131.943 12.657C131.987 12.481 132.112 12.393 132.317 12.393H133.208V14.0595H134.622V15.2255H133.208V18.058C133.208 18.19 133.24 18.3 133.302 18.388C133.368 18.4723 133.461 18.5145 133.582 18.5145C133.645 18.5145 133.696 18.509 133.736 18.498C133.78 18.4833 133.817 18.4686 133.846 18.454C133.879 18.4356 133.909 18.421 133.934 18.41C133.964 18.3953 133.997 18.388 134.033 18.388C134.085 18.388 134.125 18.4008 134.154 18.4265C134.187 18.4485 134.22 18.4851 134.253 18.5365L134.77 19.345C134.55 19.51 134.303 19.6346 134.028 19.719C133.753 19.7996 133.469 19.84 133.175 19.84Z" fill="#1D4374"/>
<line x1="21.9272" y1="33.6156" x2="206.509" y2="33.6156" stroke="#E5E5E5" stroke-width="0.397805" stroke-dasharray="2.39 2.39"/>
<line x1="21.9272" y1="58.2786" x2="206.509" y2="58.2787" stroke="#E5E5E5" stroke-width="0.397805" stroke-dasharray="2.39 2.39"/>
<line x1="21.9272" y1="82.9427" x2="206.509" y2="82.9427" stroke="#E5E5E5" stroke-width="0.397805" stroke-dasharray="2.39 2.39"/>
<line x1="21.9272" y1="107.607" x2="206.509" y2="107.607" stroke="#E5E5E5" stroke-width="0.397805" stroke-dasharray="2.39 2.39"/>
<line x1="21.9272" y1="132.271" x2="206.509" y2="132.271" stroke="#E5E5E5" stroke-width="0.397805" stroke-dasharray="2.39 2.39"/>
<path d="M28.6416 84.4146C28.6416 83.969 28.6416 83.7462 28.7283 83.576C28.8046 83.4263 28.9263 83.3046 29.076 83.2283C29.2462 83.1416 29.469 83.1416 29.9146 83.1416H32.1423C32.5879 83.1416 32.8107 83.1416 32.9809 83.2283C33.1306 83.3046 33.2523 83.4263 33.3285 83.576C33.4153 83.7462 33.4153 83.969 33.4153 84.4146V132.072H28.6416V84.4146Z" fill="#EDAE40"/>
<path d="M34.2112 97.1441C34.2112 96.6985 34.2112 96.4757 34.2979 96.3055C34.3742 96.1558 34.4959 96.0341 34.6456 95.9578C34.8158 95.8711 35.0386 95.8711 35.4842 95.8711H37.7119C38.1574 95.8711 38.3802 95.8711 38.5504 95.9578C38.7001 96.0341 38.8218 96.1558 38.8981 96.3055C38.9848 96.4757 38.9848 96.6985 38.9848 97.1441V132.071H34.2112V97.1441Z" fill="#1D4374"/>
<path d="M39.7793 94.3599C39.7793 93.9143 39.7793 93.6915 39.866 93.5213C39.9423 93.3716 40.064 93.2499 40.2137 93.1736C40.3839 93.0869 40.6067 93.0869 41.0523 93.0869H43.28C43.7256 93.0869 43.9484 93.0869 44.1185 93.1736C44.2682 93.2499 44.39 93.3716 44.4662 93.5213C44.553 93.6915 44.553 93.9143 44.553 94.3599V132.072H39.7793V94.3599Z" fill="#2AC670"/>
<path d="M60.0688 84.4146C60.0688 83.969 60.0688 83.7462 60.1556 83.576C60.2318 83.4263 60.3536 83.3046 60.5033 83.2283C60.6734 83.1416 60.8962 83.1416 61.3418 83.1416H63.5695C64.0151 83.1416 64.2379 83.1416 64.4081 83.2283C64.5578 83.3046 64.6795 83.4263 64.7558 83.576C64.8425 83.7462 64.8425 83.969 64.8425 84.4146V132.072H60.0688V84.4146Z" fill="#EDAE40"/>
<path d="M65.6389 97.1441C65.6389 96.6985 65.6389 96.4757 65.7256 96.3055C65.8019 96.1558 65.9236 96.0341 66.0733 95.9578C66.2435 95.8711 66.4663 95.8711 66.9119 95.8711H69.1396C69.5852 95.8711 69.808 95.8711 69.9782 95.9578C70.1279 96.0341 70.2496 96.1558 70.3259 96.3055C70.4126 96.4757 70.4126 96.6985 70.4126 97.1441V132.071H65.6389V97.1441Z" fill="#1D4374"/>
<path d="M71.2068 94.3599C71.2068 93.9143 71.2068 93.6915 71.2935 93.5213C71.3698 93.3716 71.4915 93.2499 71.6412 93.1736C71.8114 93.0869 72.0342 93.0869 72.4798 93.0869H74.7075C75.1531 93.0869 75.3758 93.0869 75.546 93.1736C75.6957 93.2499 75.8175 93.3716 75.8937 93.5213C75.9804 93.6915 75.9804 93.9143 75.9804 94.3599V132.072H71.2068V94.3599Z" fill="#2AC670"/>
<path d="M91.4958 84.4146C91.4958 83.969 91.4958 83.7462 91.5826 83.576C91.6588 83.4263 91.7806 83.3046 91.9303 83.2283C92.1005 83.1416 92.3232 83.1416 92.7688 83.1416H94.9965C95.4421 83.1416 95.6649 83.1416 95.8351 83.2283C95.9848 83.3046 96.1065 83.4263 96.1828 83.576C96.2695 83.7462 96.2695 83.969 96.2695 84.4146V132.072H91.4958V84.4146Z" fill="#EDAE40"/>
<path d="M97.0657 97.1441C97.0657 96.6985 97.0657 96.4757 97.1524 96.3055C97.2287 96.1558 97.3504 96.0341 97.5001 95.9578C97.6703 95.8711 97.8931 95.8711 98.3386 95.8711H100.566C101.012 95.8711 101.235 95.8711 101.405 95.9578C101.555 96.0341 101.676 96.1558 101.753 96.3055C101.839 96.4757 101.839 96.6985 101.839 97.1441V132.071H97.0657V97.1441Z" fill="#1D4374"/>
<path d="M102.634 94.3599C102.634 93.9143 102.634 93.6915 102.721 93.5213C102.797 93.3716 102.918 93.2499 103.068 93.1736C103.238 93.0869 103.461 93.0869 103.907 93.0869H106.134C106.58 93.0869 106.803 93.0869 106.973 93.1736C107.123 93.2499 107.244 93.3716 107.321 93.5213C107.407 93.6915 107.407 93.9143 107.407 94.3599V132.072H102.634V94.3599Z" fill="#2AC670"/>
<path d="M122.922 42.645C122.922 42.1995 122.922 41.9767 123.008 41.8065C123.085 41.6568 123.206 41.5351 123.356 41.4588C123.526 41.3721 123.749 41.3721 124.195 41.3721H126.422C126.868 41.3721 127.091 41.3721 127.261 41.4588C127.411 41.5351 127.532 41.6568 127.609 41.8065C127.695 41.9767 127.695 42.1995 127.695 42.645V132.072H122.922V42.645Z" fill="#EDAE40"/>
<path d="M128.491 66.2417C128.491 65.7961 128.491 65.5734 128.578 65.4032C128.654 65.2535 128.776 65.1317 128.926 65.0555C129.096 64.9688 129.319 64.9688 129.764 64.9688H131.992C132.438 64.9688 132.661 64.9688 132.831 65.0555C132.98 65.1317 133.102 65.2535 133.178 65.4032C133.265 65.5734 133.265 65.7961 133.265 66.2417V132.072H128.491V66.2417Z" fill="#1D4374"/>
<path d="M134.059 61.0806C134.059 60.635 134.059 60.4122 134.146 60.242C134.222 60.0923 134.344 59.9706 134.494 59.8943C134.664 59.8076 134.887 59.8076 135.332 59.8076H137.56C138.006 59.8076 138.228 59.8076 138.399 59.8943C138.548 59.9706 138.67 60.0923 138.746 60.242C138.833 60.4122 138.833 60.635 138.833 61.0806V132.072H134.059V61.0806Z" fill="#2AC670"/>
<path d="M154.348 84.4146C154.348 83.969 154.348 83.7462 154.435 83.576C154.511 83.4263 154.633 83.3046 154.783 83.2283C154.953 83.1416 155.176 83.1416 155.621 83.1416H157.849C158.295 83.1416 158.517 83.1416 158.688 83.2283C158.837 83.3046 158.959 83.4263 159.035 83.576C159.122 83.7462 159.122 83.969 159.122 84.4146V132.072H154.348V84.4146Z" fill="#EDAE40"/>
<path d="M159.918 97.1441C159.918 96.6985 159.918 96.4757 160.005 96.3055C160.081 96.1558 160.203 96.0341 160.353 95.9578C160.523 95.8711 160.746 95.8711 161.191 95.8711H163.419C163.864 95.8711 164.087 95.8711 164.257 95.9578C164.407 96.0341 164.529 96.1558 164.605 96.3055C164.692 96.4757 164.692 96.6985 164.692 97.1441V132.071H159.918V97.1441Z" fill="#1D4374"/>
<path d="M165.486 94.3599C165.486 93.9143 165.486 93.6915 165.573 93.5213C165.649 93.3716 165.771 93.2499 165.921 93.1736C166.091 93.0869 166.314 93.0869 166.759 93.0869H168.987C169.433 93.0869 169.655 93.0869 169.826 93.1736C169.975 93.2499 170.097 93.3716 170.173 93.5213C170.26 93.6915 170.26 93.9143 170.26 94.3599V132.072H165.486V94.3599Z" fill="#2AC670"/>
<path d="M185.776 42.645C185.776 42.1995 185.776 41.9767 185.862 41.8065C185.939 41.6568 186.06 41.5351 186.21 41.4588C186.38 41.3721 186.603 41.3721 187.049 41.3721H189.276C189.722 41.3721 189.945 41.3721 190.115 41.4588C190.265 41.5351 190.386 41.6568 190.463 41.8065C190.549 41.9767 190.549 42.1995 190.549 42.645V132.072H185.776V42.645Z" fill="#EDAE40"/>
<path d="M191.345 66.2417C191.345 65.7961 191.345 65.5734 191.432 65.4032C191.508 65.2535 191.63 65.1317 191.78 65.0555C191.95 64.9688 192.173 64.9688 192.618 64.9688H194.846C195.292 64.9688 195.515 64.9688 195.685 65.0555C195.834 65.1317 195.956 65.2535 196.032 65.4032C196.119 65.5734 196.119 65.7961 196.119 66.2417V132.072H191.345V66.2417Z" fill="#1D4374"/>
<path d="M196.914 61.0806C196.914 60.635 196.914 60.4122 197 60.242C197.077 60.0923 197.198 59.9706 197.348 59.8943C197.518 59.8076 197.741 59.8076 198.187 59.8076H200.414C200.86 59.8076 201.083 59.8076 201.253 59.8943C201.403 59.9706 201.524 60.0923 201.601 60.242C201.687 60.4122 201.687 60.635 201.687 61.0806V132.072H196.914V61.0806Z" fill="#2AC670"/>
<path opacity="0.3" d="M33.4696 142.706C32.7897 142.706 32.4063 142.284 32.3655 141.721L32.3628 141.683H32.8523L32.855 141.711C32.8849 142.007 33.078 142.254 33.4668 142.254C33.9019 142.254 34.1358 141.996 34.1358 141.518V138.717H34.6253V141.523C34.6253 142.265 34.1956 142.706 33.4696 142.706ZM36.0856 142.695C35.5227 142.695 35.1447 142.355 35.1447 141.841V141.836C35.1447 141.354 35.52 141.053 36.1699 141.014L36.9803 140.968V140.732C36.9803 140.386 36.7545 140.177 36.3602 140.177C35.9958 140.177 35.7674 140.351 35.713 140.604L35.7076 140.628H35.2507L35.2535 140.598C35.2942 140.133 35.6994 139.758 36.3657 139.758C37.0346 139.758 37.4534 140.12 37.4534 140.685V142.641H36.9803V142.181H36.9694C36.8035 142.491 36.4636 142.695 36.0856 142.695ZM35.6287 141.841C35.6287 142.113 35.8517 142.284 36.1916 142.284C36.6376 142.284 36.9803 141.977 36.9803 141.566V141.335L36.2243 141.382C35.8463 141.403 35.6287 141.572 35.6287 141.836V141.841ZM38.0544 142.641V139.812H38.5276V140.215H38.5385C38.6907 139.951 38.979 139.758 39.4087 139.758C40.0287 139.758 40.3876 140.161 40.3876 140.805V142.641H39.9145V140.889C39.9145 140.43 39.6996 140.177 39.2645 140.177C38.8186 140.177 38.5276 140.495 38.5276 140.976V142.641H38.0544Z" fill="black"/>
<path opacity="0.3" d="M64.02 142.641V138.717H66.4022V139.157H64.5095V140.506H66.2472V140.941H64.5095V142.641H64.02ZM67.944 142.695C67.131 142.695 66.6415 142.127 66.6415 141.237V141.235C66.6415 140.359 67.1418 139.758 67.9141 139.758C68.6864 139.758 69.1569 140.332 69.1569 141.18V141.354H67.1201C67.131 141.936 67.4518 142.276 67.9549 142.276C68.3139 142.276 68.5668 142.097 68.6484 141.855L68.6565 141.83H69.1215L69.1161 141.857C69.0236 142.325 68.5613 142.695 67.944 142.695ZM67.9114 140.177C67.5008 140.177 67.1799 140.457 67.1282 140.985H68.6756C68.6293 140.435 68.3248 140.177 67.9114 140.177ZM71.0414 142.695C70.6362 142.695 70.3208 142.491 70.144 142.162H70.1331V142.641H69.66V138.717H70.1331V140.286H70.144C70.3208 139.959 70.6498 139.758 71.0496 139.758C71.7593 139.758 72.2434 140.332 72.2434 141.224V141.227C72.2434 142.119 71.7648 142.695 71.0414 142.695ZM70.9489 142.276C71.4493 142.276 71.7593 141.876 71.7593 141.227V141.224C71.7593 140.579 71.4493 140.177 70.9489 140.177C70.4731 140.177 70.1304 140.593 70.1304 141.224V141.227C70.1304 141.86 70.4703 142.276 70.9489 142.276Z" fill="black"/>
<path opacity="0.3" d="M95.4349 142.641V138.717H96.0006L97.3603 142.023H97.3766L98.7363 138.717H99.3019V142.641H98.845V139.609H98.8287L97.5751 142.641H97.1617L95.9081 139.609H95.8918V142.641H95.4349ZM100.735 142.695C100.172 142.695 99.7941 142.355 99.7941 141.841V141.836C99.7941 141.354 100.169 141.053 100.819 141.014L101.63 140.968V140.732C101.63 140.386 101.404 140.177 101.01 140.177C100.645 140.177 100.417 140.351 100.362 140.604L100.357 140.628H99.9002L99.9029 140.598C99.9437 140.133 100.349 139.758 101.015 139.758C101.684 139.758 102.103 140.12 102.103 140.685V142.641H101.63V142.181H101.619C101.453 142.491 101.113 142.695 100.735 142.695ZM100.278 141.841C100.278 142.113 100.501 142.284 100.841 142.284C101.287 142.284 101.63 141.977 101.63 141.566V141.335L100.874 141.382C100.496 141.403 100.278 141.572 100.278 141.836V141.841ZM102.704 142.641V139.812H103.177V140.291H103.188C103.283 139.965 103.528 139.758 103.846 139.758C103.928 139.758 103.998 139.772 104.036 139.777V140.237C103.998 140.223 103.898 140.21 103.783 140.21C103.416 140.21 103.177 140.465 103.177 140.895V142.641H102.704Z" fill="black"/>
<path opacity="0.3" d="M127.051 142.641L128.512 138.717H128.996L130.453 142.641H129.939L129.542 141.518H127.962L127.565 142.641H127.051ZM128.748 139.304L128.112 141.101H129.395L128.759 139.304H128.748ZM130.831 143.592V139.812H131.304V140.291H131.315C131.492 139.962 131.808 139.758 132.213 139.758C132.936 139.758 133.415 140.335 133.415 141.227V141.229C133.415 142.121 132.931 142.695 132.221 142.695C131.821 142.695 131.492 142.494 131.315 142.167H131.304V143.592H130.831ZM132.12 142.276C132.621 142.276 132.931 141.874 132.931 141.229V141.227C132.931 140.577 132.621 140.177 132.12 140.177C131.642 140.177 131.302 140.593 131.302 141.227V141.229C131.302 141.86 131.644 142.276 132.12 142.276ZM133.893 142.641V139.812H134.366V140.291H134.377C134.473 139.965 134.717 139.758 135.035 139.758C135.117 139.758 135.188 139.772 135.226 139.777V140.237C135.188 140.223 135.087 140.21 134.973 140.21C134.606 140.21 134.366 140.465 134.366 140.895V142.641H133.893Z" fill="black"/>
<path opacity="0.3" d="M158.058 142.641V138.717H158.624L159.984 142.023H160L161.36 138.717H161.925V142.641H161.469V139.609H161.452L160.199 142.641H159.785L158.532 139.609H158.515V142.641H158.058ZM163.358 142.695C162.796 142.695 162.418 142.355 162.418 141.841V141.836C162.418 141.354 162.793 141.053 163.443 141.014L164.253 140.968V140.732C164.253 140.386 164.027 140.177 163.633 140.177C163.269 140.177 163.04 140.351 162.986 140.604L162.98 140.628H162.524L162.526 140.598C162.567 140.133 162.972 139.758 163.639 139.758C164.308 139.758 164.726 140.12 164.726 140.685V142.641H164.253V142.181H164.242C164.076 142.491 163.736 142.695 163.358 142.695ZM162.902 141.841C162.902 142.113 163.125 142.284 163.465 142.284C163.911 142.284 164.253 141.977 164.253 141.566V141.335L163.497 141.382C163.119 141.403 162.902 141.572 162.902 141.836V141.841ZM165.599 143.592C165.507 143.592 165.406 143.582 165.346 143.571V143.184C165.387 143.193 165.442 143.201 165.499 143.201C165.798 143.201 165.964 143.125 166.078 142.804L166.135 142.643L165.085 139.812H165.591L166.372 142.167H166.382L167.166 139.812H167.663L166.559 142.817C166.358 143.359 166.11 143.592 165.599 143.592Z" fill="black"/>
<path opacity="0.3" d="M191.168 142.706C190.488 142.706 190.104 142.284 190.063 141.721L190.061 141.683H190.55L190.553 141.711C190.583 142.007 190.776 142.254 191.165 142.254C191.6 142.254 191.834 141.996 191.834 141.518V138.717H192.323V141.523C192.323 142.265 191.894 142.706 191.168 142.706ZM193.977 142.695C193.357 142.695 192.998 142.293 192.998 141.648V139.812H193.471V141.564C193.471 142.023 193.686 142.276 194.121 142.276C194.567 142.276 194.858 141.958 194.858 141.477V139.812H195.331V142.641H194.858V142.238H194.847C194.695 142.502 194.406 142.695 193.977 142.695ZM195.948 142.641V139.812H196.421V140.215H196.432C196.585 139.951 196.873 139.758 197.302 139.758C197.922 139.758 198.281 140.161 198.281 140.805V142.641H197.808V140.889C197.808 140.43 197.593 140.177 197.158 140.177C196.712 140.177 196.421 140.495 196.421 140.976V142.641H195.948Z" fill="black"/>
<path opacity="0.3" d="M8.72051 34.0469V33.7097L10.1019 32.2684C10.6322 31.7164 10.7546 31.5043 10.7546 31.1779V31.1725C10.7519 30.7728 10.45 30.4845 10.0231 30.4845C9.5336 30.4845 9.16921 30.8217 9.16921 31.2432V31.2568H8.69604V31.2405C8.69604 30.5606 9.28342 30.0576 10.0149 30.0576C10.7247 30.0576 11.2441 30.5334 11.2441 31.148V31.1535C11.2441 31.5831 11.0456 31.9067 10.3249 32.6437L9.39219 33.6009V33.6118H11.3093V34.0469H8.72051ZM13.2428 34.1121C12.34 34.1121 11.8043 33.3317 11.8043 32.0862V32.0808C11.8043 30.8353 12.34 30.0576 13.2428 30.0576C14.1457 30.0576 14.6868 30.8353 14.6868 32.0808V32.0862C14.6868 33.3317 14.1457 34.1121 13.2428 34.1121ZM13.2428 33.6852C13.8411 33.6852 14.1946 33.0706 14.1946 32.0862V32.0808C14.1946 31.0964 13.8411 30.4872 13.2428 30.4872C12.6446 30.4872 12.2965 31.0964 12.2965 32.0808V32.0862C12.2965 33.0706 12.6446 33.6852 13.2428 33.6852Z" fill="black"/>
<path opacity="0.3" d="M10.7212 58.5498V55.1452H10.7104L9.67156 55.8685V55.3763L10.7158 54.6258H11.1944V58.5498H10.7212ZM13.5385 58.6151C12.788 58.6151 12.2522 58.1473 12.1951 57.5083L12.1924 57.4784H12.6737L12.6765 57.5001C12.7254 57.889 13.0735 58.1854 13.5439 58.1854C14.0769 58.1854 14.4468 57.8156 14.4468 57.288V57.2826C14.4441 56.7659 14.0715 56.3961 13.5521 56.3961C13.2856 56.3961 13.0572 56.4749 12.8831 56.6326C12.8124 56.6979 12.7499 56.7741 12.6982 56.8638H12.2658L12.4671 54.6258H14.7133V55.0609H12.8695L12.7363 56.3797H12.7472C12.9321 56.116 13.2584 55.9746 13.6391 55.9746C14.3924 55.9746 14.9363 56.5212 14.9363 57.2744V57.2799C14.9335 58.0658 14.3543 58.6151 13.5385 58.6151Z" fill="black"/>
<path opacity="0.3" d="M10.7212 83.0537V79.6491H10.7104L9.67156 80.3724V79.8802L10.7158 79.1297H11.1944V83.0537H10.7212ZM13.5575 83.119C12.6547 83.119 12.119 82.3385 12.119 81.093V81.0876C12.119 79.8421 12.6547 79.0644 13.5575 79.0644C14.4604 79.0644 15.0015 79.8421 15.0015 81.0876V81.093C15.0015 82.3385 14.4604 83.119 13.5575 83.119ZM13.5575 82.692C14.1558 82.692 14.5093 82.0775 14.5093 81.093V81.0876C14.5093 80.1032 14.1558 79.4941 13.5575 79.4941C12.9593 79.4941 12.6112 80.1032 12.6112 81.0876V81.093C12.6112 82.0775 12.9593 82.692 13.5575 82.692Z" fill="black"/>
<path opacity="0.3" d="M13.0693 107.622C12.3188 107.622 11.7831 107.154 11.7259 106.515L11.7232 106.485H12.2046L12.2073 106.507C12.2562 106.896 12.6043 107.192 13.0748 107.192C13.6078 107.192 13.9776 106.822 13.9776 106.295V106.289C13.9749 105.773 13.6023 105.403 13.0829 105.403C12.8164 105.403 12.588 105.482 12.4139 105.639C12.3432 105.705 12.2807 105.781 12.229 105.871H11.7967L11.9979 103.633H14.2441V104.068H12.4004L12.2671 105.387H12.278C12.4629 105.123 12.7892 104.981 13.1699 104.981C13.9232 104.981 14.4671 105.528 14.4671 106.281V106.287C14.4644 107.073 13.8851 107.622 13.0693 107.622Z" fill="black"/>
<path opacity="0.3" d="M13.0884 132.126C12.1855 132.126 11.6498 131.345 11.6498 130.1V130.094C11.6498 128.849 12.1855 128.071 13.0884 128.071C13.9912 128.071 14.5323 128.849 14.5323 130.094V130.1C14.5323 131.345 13.9912 132.126 13.0884 132.126ZM13.0884 131.699C13.6866 131.699 14.0401 131.084 14.0401 130.1V130.094C14.0401 129.11 13.6866 128.501 13.0884 128.501C12.4901 128.501 12.142 129.11 12.142 130.094V130.1C12.142 131.084 12.4901 131.699 13.0884 131.699Z" fill="black"/>
<path opacity="0.3" d="M214.262 34.0469V33.2311H212.29V32.7878L214.011 30.1228H214.735V32.8014H215.289V33.2311H214.735V34.0469H214.262ZM212.774 32.8014H214.262V30.5416H214.245L212.774 32.7905V32.8014ZM217.13 34.1121C216.228 34.1121 215.692 33.3317 215.692 32.0862V32.0808C215.692 30.8353 216.228 30.0576 217.13 30.0576C218.033 30.0576 218.574 30.8353 218.574 32.0808V32.0862C218.574 33.3317 218.033 34.1121 217.13 34.1121ZM217.13 33.6852C217.729 33.6852 218.082 33.0706 218.082 32.0862V32.0808C218.082 31.0964 217.729 30.4872 217.13 30.4872C216.532 30.4872 216.184 31.0964 216.184 32.0808V32.0862C216.184 33.0706 216.532 33.6852 217.13 33.6852Z" fill="black"/>
<path opacity="0.3" d="M213.718 58.6151C212.907 58.6151 212.382 58.1637 212.331 57.5436L212.328 57.511H212.799L212.801 57.5382C212.842 57.9243 213.196 58.1908 213.718 58.1908C214.232 58.1908 214.582 57.9026 214.582 57.4865V57.4811C214.582 56.9998 214.237 56.7305 213.688 56.7305H213.196V56.3172H213.666C214.134 56.3172 214.46 56.0289 214.46 55.6374V55.6319C214.46 55.2213 214.191 54.9847 213.712 54.9847C213.25 54.9847 212.921 55.2295 212.88 55.6265L212.877 55.6537H212.407L212.41 55.6265C212.472 54.9874 212.978 54.5605 213.712 54.5605C214.46 54.5605 214.952 54.9766 214.952 55.5721V55.5775C214.952 56.0616 214.61 56.3933 214.12 56.4967V56.5076C214.691 56.5565 215.08 56.9127 215.08 57.4702V57.4757C215.08 58.131 214.504 58.6151 213.718 58.6151ZM217.06 58.6151C216.157 58.6151 215.621 57.8346 215.621 56.5891V56.5837C215.621 55.3382 216.157 54.5605 217.06 54.5605C217.963 54.5605 218.504 55.3382 218.504 56.5837V56.5891C218.504 57.8346 217.963 58.6151 217.06 58.6151ZM217.06 58.1881C217.658 58.1881 218.012 57.5736 218.012 56.5891V56.5837C218.012 55.5993 217.658 54.9901 217.06 54.9901C216.462 54.9901 216.113 55.5993 216.113 56.5837V56.5891C216.113 57.5736 216.462 58.1881 217.06 58.1881Z" fill="black"/>
<path opacity="0.3" d="M212.396 83.0537V82.7165L213.777 81.2752C214.308 80.7232 214.43 80.5111 214.43 80.1848V80.1793C214.427 79.7796 214.126 79.4913 213.699 79.4913C213.209 79.4913 212.845 79.8285 212.845 80.25V80.2636H212.372V80.2473C212.372 79.5675 212.959 79.0644 213.69 79.0644C214.4 79.0644 214.92 79.5403 214.92 80.1549V80.1603C214.92 80.59 214.721 80.9136 214 81.6505L213.068 82.6077V82.6186H214.985V83.0537H212.396ZM216.918 83.119C216.016 83.119 215.48 82.3385 215.48 81.093V81.0876C215.48 79.8421 216.016 79.0644 216.918 79.0644C217.821 79.0644 218.362 79.8421 218.362 81.0876V81.093C218.362 82.3385 217.821 83.119 216.918 83.119ZM216.918 82.692C217.517 82.692 217.87 82.0775 217.87 81.093V81.0876C217.87 80.1032 217.517 79.4941 216.918 79.4941C216.32 79.4941 215.972 80.1032 215.972 81.0876V81.093C215.972 82.0775 216.32 82.692 216.918 82.692Z" fill="black"/>
<path opacity="0.3" d="M213.397 107.557V104.152H213.386L212.347 104.875V104.383L213.391 103.633H213.87V107.557H213.397ZM216.233 107.622C215.33 107.622 214.795 106.841 214.795 105.596V105.591C214.795 104.345 215.33 103.567 216.233 103.567C217.136 103.567 217.677 104.345 217.677 105.591V105.596C217.677 106.841 217.136 107.622 216.233 107.622ZM216.233 107.195C216.831 107.195 217.185 106.58 217.185 105.596V105.591C217.185 104.606 216.831 103.997 216.233 103.997C215.635 103.997 215.287 104.606 215.287 105.591V105.596C215.287 106.58 215.635 107.195 216.233 107.195Z" fill="black"/>
<path opacity="0.3" d="M213.764 132.126C212.861 132.126 212.325 131.345 212.325 130.1V130.094C212.325 128.849 212.861 128.071 213.764 128.071C214.667 128.071 215.208 128.849 215.208 130.094V130.1C215.208 131.345 214.667 132.126 213.764 132.126ZM213.764 131.699C214.362 131.699 214.716 131.084 214.716 130.1V130.094C214.716 129.11 214.362 128.501 213.764 128.501C213.166 128.501 212.818 129.11 212.818 130.094V130.1C212.818 131.084 213.166 131.699 213.764 131.699Z" fill="black"/>
<circle cx="51.5912" cy="161" r="1.59122" fill="#EDAE40"/>
<path d="M58.6847 161.044C58.9087 161.044 59.1061 161.017 59.2767 160.964C59.4501 160.908 59.5941 160.831 59.7087 160.732C59.8261 160.631 59.9141 160.511 59.9727 160.372C60.0314 160.233 60.0607 160.08 60.0607 159.912C60.0607 159.571 59.9487 159.313 59.7247 159.14C59.5007 158.967 59.1647 158.88 58.7167 158.88H57.8687V161.044H58.6847ZM61.3327 164H60.6447C60.5034 164 60.3994 163.945 60.3327 163.836L58.8447 161.788C58.7994 161.724 58.7501 161.679 58.6967 161.652C58.6461 161.623 58.5661 161.608 58.4567 161.608H57.8687V164H57.0967V158.268H58.7167C59.0794 158.268 59.3927 158.305 59.6567 158.38C59.9207 158.452 60.1381 158.557 60.3087 158.696C60.4821 158.835 60.6101 159.003 60.6927 159.2C60.7754 159.395 60.8167 159.613 60.8167 159.856C60.8167 160.059 60.7847 160.248 60.7207 160.424C60.6567 160.6 60.5634 160.759 60.4407 160.9C60.3207 161.039 60.1727 161.157 59.9967 161.256C59.8234 161.355 59.6261 161.429 59.4047 161.48C59.5034 161.536 59.5887 161.617 59.6607 161.724L61.3327 164ZM64.3986 161.532C64.3986 161.367 64.3746 161.216 64.3266 161.08C64.2812 160.941 64.2132 160.823 64.1226 160.724C64.0346 160.623 63.9266 160.545 63.7986 160.492C63.6706 160.436 63.5252 160.408 63.3626 160.408C63.0212 160.408 62.7506 160.508 62.5506 160.708C62.3532 160.905 62.2306 161.18 62.1826 161.532H64.3986ZM64.9746 163.432C64.8866 163.539 64.7812 163.632 64.6586 163.712C64.5359 163.789 64.4039 163.853 64.2626 163.904C64.1239 163.955 63.9799 163.992 63.8306 164.016C63.6812 164.043 63.5332 164.056 63.3866 164.056C63.1066 164.056 62.8479 164.009 62.6106 163.916C62.3759 163.82 62.1719 163.681 61.9986 163.5C61.8279 163.316 61.6946 163.089 61.5986 162.82C61.5026 162.551 61.4546 162.241 61.4546 161.892C61.4546 161.609 61.4972 161.345 61.5826 161.1C61.6706 160.855 61.7959 160.643 61.9586 160.464C62.1212 160.283 62.3199 160.141 62.5546 160.04C62.7892 159.936 63.0532 159.884 63.3466 159.884C63.5892 159.884 63.8132 159.925 64.0186 160.008C64.2266 160.088 64.4052 160.205 64.5546 160.36C64.7066 160.512 64.8252 160.701 64.9106 160.928C64.9959 161.152 65.0386 161.408 65.0386 161.696C65.0386 161.808 65.0266 161.883 65.0026 161.92C64.9786 161.957 64.9332 161.976 64.8666 161.976H62.1586C62.1666 162.232 62.2012 162.455 62.2626 162.644C62.3266 162.833 62.4146 162.992 62.5266 163.12C62.6386 163.245 62.7719 163.34 62.9266 163.404C63.0812 163.465 63.2546 163.496 63.4466 163.496C63.6252 163.496 63.7786 163.476 63.9066 163.436C64.0372 163.393 64.1492 163.348 64.2426 163.3C64.3359 163.252 64.4132 163.208 64.4746 163.168C64.5386 163.125 64.5932 163.104 64.6386 163.104C64.6972 163.104 64.7426 163.127 64.7746 163.172L64.9746 163.432ZM69.2992 159.948L67.6472 164H67.0072L65.3552 159.948H65.9352C65.9939 159.948 66.0419 159.963 66.0792 159.992C66.1165 160.021 66.1419 160.056 66.1552 160.096L67.1832 162.704C67.2152 162.803 67.2432 162.899 67.2672 162.992C67.2912 163.085 67.3139 163.179 67.3352 163.272C67.3565 163.179 67.3792 163.085 67.4032 162.992C67.4272 162.899 67.4565 162.803 67.4912 162.704L68.5312 160.096C68.5472 160.053 68.5739 160.019 68.6112 159.992C68.6485 159.963 68.6925 159.948 68.7432 159.948H69.2992ZM72.5548 161.532C72.5548 161.367 72.5308 161.216 72.4828 161.08C72.4375 160.941 72.3695 160.823 72.2788 160.724C72.1908 160.623 72.0828 160.545 71.9548 160.492C71.8268 160.436 71.6815 160.408 71.5188 160.408C71.1775 160.408 70.9068 160.508 70.7068 160.708C70.5095 160.905 70.3868 161.18 70.3388 161.532H72.5548ZM73.1308 163.432C73.0428 163.539 72.9375 163.632 72.8148 163.712C72.6921 163.789 72.5601 163.853 72.4188 163.904C72.2801 163.955 72.1361 163.992 71.9868 164.016C71.8375 164.043 71.6895 164.056 71.5428 164.056C71.2628 164.056 71.0041 164.009 70.7668 163.916C70.5321 163.82 70.3281 163.681 70.1548 163.5C69.9841 163.316 69.8508 163.089 69.7548 162.82C69.6588 162.551 69.6108 162.241 69.6108 161.892C69.6108 161.609 69.6535 161.345 69.7388 161.1C69.8268 160.855 69.9521 160.643 70.1148 160.464C70.2775 160.283 70.4761 160.141 70.7108 160.04C70.9455 159.936 71.2095 159.884 71.5028 159.884C71.7455 159.884 71.9695 159.925 72.1748 160.008C72.3828 160.088 72.5615 160.205 72.7108 160.36C72.8628 160.512 72.9815 160.701 73.0668 160.928C73.1521 161.152 73.1948 161.408 73.1948 161.696C73.1948 161.808 73.1828 161.883 73.1588 161.92C73.1348 161.957 73.0895 161.976 73.0228 161.976H70.3148C70.3228 162.232 70.3575 162.455 70.4188 162.644C70.4828 162.833 70.5708 162.992 70.6828 163.12C70.7948 163.245 70.9281 163.34 71.0828 163.404C71.2375 163.465 71.4108 163.496 71.6028 163.496C71.7815 163.496 71.9348 163.476 72.0628 163.436C72.1935 163.393 72.3055 163.348 72.3988 163.3C72.4921 163.252 72.5695 163.208 72.6308 163.168C72.6948 163.125 72.7495 163.104 72.7948 163.104C72.8535 163.104 72.8988 163.127 72.9308 163.172L73.1308 163.432ZM74.7414 160.536C74.8294 160.437 74.9227 160.348 75.0214 160.268C75.12 160.188 75.224 160.12 75.3334 160.064C75.4454 160.005 75.5627 159.961 75.6854 159.932C75.8107 159.9 75.9454 159.884 76.0894 159.884C76.3107 159.884 76.5054 159.921 76.6734 159.996C76.844 160.068 76.9854 160.172 77.0974 160.308C77.212 160.441 77.2987 160.603 77.3574 160.792C77.416 160.981 77.4454 161.191 77.4454 161.42V164H76.7294V161.42C76.7294 161.113 76.6587 160.876 76.5174 160.708C76.3787 160.537 76.1667 160.452 75.8814 160.452C75.6707 160.452 75.4734 160.503 75.2894 160.604C75.108 160.705 74.94 160.843 74.7854 161.016V164H74.0694V159.948H74.4974C74.5987 159.948 74.6614 159.997 74.6854 160.096L74.7414 160.536ZM81.8623 159.948V164H81.4383C81.337 164 81.273 163.951 81.2463 163.852L81.1903 163.416C81.0143 163.611 80.817 163.768 80.5983 163.888C80.3796 164.005 80.129 164.064 79.8463 164.064C79.625 164.064 79.429 164.028 79.2583 163.956C79.0903 163.881 78.949 163.777 78.8343 163.644C78.7196 163.511 78.633 163.349 78.5743 163.16C78.5183 162.971 78.4903 162.761 78.4903 162.532V159.948H79.2023V162.532C79.2023 162.839 79.2716 163.076 79.4103 163.244C79.5516 163.412 79.7663 163.496 80.0543 163.496C80.265 163.496 80.461 163.447 80.6423 163.348C80.8263 163.247 80.9956 163.108 81.1503 162.932V159.948H81.8623ZM85.7032 161.532C85.7032 161.367 85.6792 161.216 85.6312 161.08C85.5859 160.941 85.5179 160.823 85.4272 160.724C85.3392 160.623 85.2312 160.545 85.1032 160.492C84.9752 160.436 84.8299 160.408 84.6672 160.408C84.3259 160.408 84.0552 160.508 83.8552 160.708C83.6579 160.905 83.5352 161.18 83.4872 161.532H85.7032ZM86.2792 163.432C86.1912 163.539 86.0859 163.632 85.9632 163.712C85.8406 163.789 85.7086 163.853 85.5672 163.904C85.4286 163.955 85.2846 163.992 85.1352 164.016C84.9859 164.043 84.8379 164.056 84.6912 164.056C84.4112 164.056 84.1526 164.009 83.9152 163.916C83.6806 163.82 83.4766 163.681 83.3032 163.5C83.1326 163.316 82.9992 163.089 82.9032 162.82C82.8072 162.551 82.7592 162.241 82.7592 161.892C82.7592 161.609 82.8019 161.345 82.8872 161.1C82.9752 160.855 83.1006 160.643 83.2632 160.464C83.4259 160.283 83.6246 160.141 83.8592 160.04C84.0939 159.936 84.3579 159.884 84.6512 159.884C84.8939 159.884 85.1179 159.925 85.3232 160.008C85.5312 160.088 85.7099 160.205 85.8592 160.36C86.0112 160.512 86.1299 160.701 86.2152 160.928C86.3006 161.152 86.3432 161.408 86.3432 161.696C86.3432 161.808 86.3312 161.883 86.3072 161.92C86.2832 161.957 86.2379 161.976 86.1712 161.976H83.4632C83.4712 162.232 83.5059 162.455 83.5672 162.644C83.6312 162.833 83.7192 162.992 83.8312 163.12C83.9432 163.245 84.0766 163.34 84.2312 163.404C84.3859 163.465 84.5592 163.496 84.7512 163.496C84.9299 163.496 85.0832 163.476 85.2112 163.436C85.3419 163.393 85.4539 163.348 85.5472 163.3C85.6406 163.252 85.7179 163.208 85.7792 163.168C85.8432 163.125 85.8979 163.104 85.9432 163.104C86.0019 163.104 86.0472 163.127 86.0792 163.172L86.2792 163.432Z" fill="black"/>
<circle cx="108.051" cy="161" r="1.59122" fill="#1D4374"/>
<path d="M117.58 162.816C117.623 162.816 117.66 162.833 117.692 162.868L118 163.2C117.766 163.472 117.48 163.684 117.144 163.836C116.811 163.988 116.407 164.064 115.932 164.064C115.522 164.064 115.148 163.993 114.812 163.852C114.476 163.708 114.19 163.508 113.952 163.252C113.715 162.993 113.531 162.684 113.4 162.324C113.27 161.964 113.204 161.568 113.204 161.136C113.204 160.704 113.272 160.308 113.408 159.948C113.544 159.588 113.735 159.279 113.98 159.02C114.228 158.761 114.524 158.561 114.868 158.42C115.212 158.276 115.592 158.204 116.008 158.204C116.416 158.204 116.776 158.269 117.088 158.4C117.4 158.531 117.675 158.708 117.912 158.932L117.656 159.288C117.64 159.315 117.619 159.337 117.592 159.356C117.568 159.372 117.535 159.38 117.492 159.38C117.444 159.38 117.386 159.355 117.316 159.304C117.247 159.251 117.156 159.192 117.044 159.128C116.932 159.064 116.792 159.007 116.624 158.956C116.456 158.903 116.25 158.876 116.004 158.876C115.708 158.876 115.438 158.928 115.192 159.032C114.947 159.133 114.735 159.281 114.556 159.476C114.38 159.671 114.243 159.908 114.144 160.188C114.046 160.468 113.996 160.784 113.996 161.136C113.996 161.493 114.047 161.812 114.148 162.092C114.252 162.372 114.392 162.609 114.568 162.804C114.747 162.996 114.956 163.143 115.196 163.244C115.439 163.345 115.7 163.396 115.98 163.396C116.151 163.396 116.304 163.387 116.44 163.368C116.579 163.347 116.706 163.315 116.82 163.272C116.938 163.229 117.046 163.176 117.144 163.112C117.246 163.045 117.346 162.967 117.444 162.876C117.49 162.836 117.535 162.816 117.58 162.816ZM120.362 159.884C120.658 159.884 120.925 159.933 121.162 160.032C121.399 160.131 121.602 160.271 121.77 160.452C121.938 160.633 122.066 160.853 122.154 161.112C122.245 161.368 122.29 161.655 122.29 161.972C122.29 162.292 122.245 162.58 122.154 162.836C122.066 163.092 121.938 163.311 121.77 163.492C121.602 163.673 121.399 163.813 121.162 163.912C120.925 164.008 120.658 164.056 120.362 164.056C120.063 164.056 119.794 164.008 119.554 163.912C119.317 163.813 119.114 163.673 118.946 163.492C118.778 163.311 118.649 163.092 118.558 162.836C118.47 162.58 118.426 162.292 118.426 161.972C118.426 161.655 118.47 161.368 118.558 161.112C118.649 160.853 118.778 160.633 118.946 160.452C119.114 160.271 119.317 160.131 119.554 160.032C119.794 159.933 120.063 159.884 120.362 159.884ZM120.362 163.5C120.762 163.5 121.061 163.367 121.258 163.1C121.455 162.831 121.554 162.456 121.554 161.976C121.554 161.493 121.455 161.117 121.258 160.848C121.061 160.579 120.762 160.444 120.362 160.444C120.159 160.444 119.982 160.479 119.83 160.548C119.681 160.617 119.555 160.717 119.454 160.848C119.355 160.979 119.281 161.14 119.23 161.332C119.182 161.521 119.158 161.736 119.158 161.976C119.158 162.456 119.257 162.831 119.454 163.1C119.654 163.367 119.957 163.5 120.362 163.5ZM125.553 160.616C125.521 160.675 125.472 160.704 125.405 160.704C125.365 160.704 125.32 160.689 125.269 160.66C125.218 160.631 125.156 160.599 125.081 160.564C125.009 160.527 124.922 160.493 124.821 160.464C124.72 160.432 124.6 160.416 124.461 160.416C124.341 160.416 124.233 160.432 124.137 160.464C124.041 160.493 123.958 160.535 123.889 160.588C123.822 160.641 123.77 160.704 123.733 160.776C123.698 160.845 123.681 160.921 123.681 161.004C123.681 161.108 123.71 161.195 123.769 161.264C123.83 161.333 123.91 161.393 124.009 161.444C124.108 161.495 124.22 161.54 124.345 161.58C124.47 161.617 124.598 161.659 124.729 161.704C124.862 161.747 124.992 161.795 125.117 161.848C125.242 161.901 125.354 161.968 125.453 162.048C125.552 162.128 125.63 162.227 125.689 162.344C125.75 162.459 125.781 162.597 125.781 162.76C125.781 162.947 125.748 163.12 125.681 163.28C125.614 163.437 125.516 163.575 125.385 163.692C125.254 163.807 125.094 163.897 124.905 163.964C124.716 164.031 124.497 164.064 124.249 164.064C123.966 164.064 123.71 164.019 123.481 163.928C123.252 163.835 123.057 163.716 122.897 163.572L123.065 163.3C123.086 163.265 123.112 163.239 123.141 163.22C123.17 163.201 123.208 163.192 123.253 163.192C123.301 163.192 123.352 163.211 123.405 163.248C123.458 163.285 123.522 163.327 123.597 163.372C123.674 163.417 123.768 163.459 123.877 163.496C123.986 163.533 124.122 163.552 124.285 163.552C124.424 163.552 124.545 163.535 124.649 163.5C124.753 163.463 124.84 163.413 124.909 163.352C124.978 163.291 125.029 163.22 125.061 163.14C125.096 163.06 125.113 162.975 125.113 162.884C125.113 162.772 125.082 162.68 125.021 162.608C124.962 162.533 124.884 162.471 124.785 162.42C124.686 162.367 124.573 162.321 124.445 162.284C124.32 162.244 124.19 162.203 124.057 162.16C123.926 162.117 123.797 162.069 123.669 162.016C123.544 161.96 123.432 161.891 123.333 161.808C123.234 161.725 123.154 161.624 123.093 161.504C123.034 161.381 123.005 161.233 123.005 161.06C123.005 160.905 123.037 160.757 123.101 160.616C123.165 160.472 123.258 160.347 123.381 160.24C123.504 160.131 123.654 160.044 123.833 159.98C124.012 159.916 124.216 159.884 124.445 159.884C124.712 159.884 124.95 159.927 125.161 160.012C125.374 160.095 125.558 160.209 125.713 160.356L125.553 160.616ZM127.898 164.064C127.578 164.064 127.331 163.975 127.158 163.796C126.987 163.617 126.902 163.36 126.902 163.024V160.544H126.414C126.371 160.544 126.335 160.532 126.306 160.508C126.277 160.481 126.262 160.441 126.262 160.388V160.104L126.926 160.02L127.09 158.768C127.098 158.728 127.115 158.696 127.142 158.672C127.171 158.645 127.209 158.632 127.254 158.632H127.614V160.028H128.786V160.544H127.614V162.976C127.614 163.147 127.655 163.273 127.738 163.356C127.821 163.439 127.927 163.48 128.058 163.48C128.133 163.48 128.197 163.471 128.25 163.452C128.306 163.431 128.354 163.408 128.394 163.384C128.434 163.36 128.467 163.339 128.494 163.32C128.523 163.299 128.549 163.288 128.57 163.288C128.607 163.288 128.641 163.311 128.67 163.356L128.878 163.696C128.755 163.811 128.607 163.901 128.434 163.968C128.261 164.032 128.082 164.064 127.898 164.064Z" fill="black"/>
<circle cx="150.51" cy="161" r="1.59122" fill="#2AC670"/>
<path d="M157.708 161.24C157.929 161.24 158.124 161.211 158.292 161.152C158.463 161.093 158.605 161.012 158.72 160.908C158.837 160.801 158.925 160.675 158.984 160.528C159.043 160.381 159.072 160.22 159.072 160.044C159.072 159.679 158.959 159.393 158.732 159.188C158.508 158.983 158.167 158.88 157.708 158.88H156.788V161.24H157.708ZM157.708 158.268C158.071 158.268 158.385 158.311 158.652 158.396C158.921 158.479 159.144 158.597 159.32 158.752C159.496 158.907 159.627 159.093 159.712 159.312C159.8 159.531 159.844 159.775 159.844 160.044C159.844 160.311 159.797 160.555 159.704 160.776C159.611 160.997 159.473 161.188 159.292 161.348C159.113 161.508 158.891 161.633 158.624 161.724C158.36 161.812 158.055 161.856 157.708 161.856H156.788V164H156.016V158.268H157.708ZM161.25 160.76C161.378 160.483 161.536 160.267 161.722 160.112C161.909 159.955 162.137 159.876 162.406 159.876C162.492 159.876 162.573 159.885 162.65 159.904C162.73 159.923 162.801 159.952 162.862 159.992L162.81 160.524C162.794 160.591 162.754 160.624 162.69 160.624C162.653 160.624 162.598 160.616 162.526 160.6C162.454 160.584 162.373 160.576 162.282 160.576C162.154 160.576 162.04 160.595 161.938 160.632C161.84 160.669 161.75 160.725 161.67 160.8C161.593 160.872 161.522 160.963 161.458 161.072C161.397 161.179 161.341 161.301 161.29 161.44V164H160.574V159.948H160.982C161.06 159.948 161.113 159.963 161.142 159.992C161.172 160.021 161.192 160.072 161.202 160.144L161.25 160.76ZM165.032 159.884C165.328 159.884 165.595 159.933 165.832 160.032C166.07 160.131 166.272 160.271 166.44 160.452C166.608 160.633 166.736 160.853 166.824 161.112C166.915 161.368 166.96 161.655 166.96 161.972C166.96 162.292 166.915 162.58 166.824 162.836C166.736 163.092 166.608 163.311 166.44 163.492C166.272 163.673 166.07 163.813 165.832 163.912C165.595 164.008 165.328 164.056 165.032 164.056C164.734 164.056 164.464 164.008 164.224 163.912C163.987 163.813 163.784 163.673 163.616 163.492C163.448 163.311 163.319 163.092 163.228 162.836C163.14 162.58 163.096 162.292 163.096 161.972C163.096 161.655 163.14 161.368 163.228 161.112C163.319 160.853 163.448 160.633 163.616 160.452C163.784 160.271 163.987 160.131 164.224 160.032C164.464 159.933 164.734 159.884 165.032 159.884ZM165.032 163.5C165.432 163.5 165.731 163.367 165.928 163.1C166.126 162.831 166.224 162.456 166.224 161.976C166.224 161.493 166.126 161.117 165.928 160.848C165.731 160.579 165.432 160.444 165.032 160.444C164.83 160.444 164.652 160.479 164.5 160.548C164.351 160.617 164.226 160.717 164.124 160.848C164.026 160.979 163.951 161.14 163.9 161.332C163.852 161.521 163.828 161.736 163.828 161.976C163.828 162.456 163.927 162.831 164.124 163.1C164.324 163.367 164.627 163.5 165.032 163.5ZM168.05 164V160.556L167.602 160.504C167.543 160.491 167.496 160.471 167.462 160.444C167.427 160.415 167.41 160.373 167.41 160.32V160.028H168.05V159.804C168.05 159.556 168.088 159.329 168.166 159.124C168.243 158.916 168.359 158.737 168.514 158.588C168.668 158.439 168.86 158.323 169.09 158.24C169.322 158.157 169.59 158.116 169.894 158.116C169.995 158.116 170.099 158.123 170.206 158.136C170.312 158.149 170.404 158.169 170.482 158.196L170.454 158.568C170.451 158.595 170.44 158.613 170.422 158.624C170.406 158.635 170.383 158.641 170.354 158.644C170.324 158.647 170.287 158.648 170.242 158.648C170.199 158.645 170.15 158.644 170.094 158.644C169.619 158.644 169.275 158.743 169.062 158.94C168.848 159.135 168.742 159.429 168.742 159.824V160.028H171.19V164H170.474V160.544H168.762V164H168.05ZM173.6 164.064C173.28 164.064 173.033 163.975 172.86 163.796C172.689 163.617 172.604 163.36 172.604 163.024V160.544H172.116C172.073 160.544 172.037 160.532 172.008 160.508C171.978 160.481 171.964 160.441 171.964 160.388V160.104L172.628 160.02L172.792 158.768C172.8 158.728 172.817 158.696 172.844 158.672C172.873 158.645 172.91 158.632 172.956 158.632H173.316V160.028H174.488V160.544H173.316V162.976C173.316 163.147 173.357 163.273 173.44 163.356C173.522 163.439 173.629 163.48 173.76 163.48C173.834 163.48 173.898 163.471 173.952 163.452C174.008 163.431 174.056 163.408 174.096 163.384C174.136 163.36 174.169 163.339 174.196 163.32C174.225 163.299 174.25 163.288 174.272 163.288C174.309 163.288 174.342 163.311 174.372 163.356L174.58 163.696C174.457 163.811 174.309 163.901 174.136 163.968C173.962 164.032 173.784 164.064 173.6 164.064Z" fill="black"/>
<rect x="160.084" y="6.92182" width="57.7544" height="12.4115" rx="2.22771" stroke="#E5E5E5" stroke-width="0.318244"/>
<path d="M167.472 14.674V15.1279H165.208V11.1375H165.746V14.674H167.472ZM169.481 13.8581C169.252 13.8656 169.057 13.8841 168.896 13.9138C168.736 13.9417 168.605 13.9788 168.503 14.0252C168.403 14.0716 168.33 14.1264 168.283 14.1895C168.239 14.2526 168.216 14.3232 168.216 14.4011C168.216 14.4754 168.229 14.5394 168.253 14.5933C168.277 14.6471 168.309 14.6917 168.35 14.7269C168.393 14.7604 168.442 14.7854 168.498 14.8021C168.555 14.817 168.616 14.8244 168.681 14.8244C168.769 14.8244 168.849 14.8161 168.921 14.7993C168.993 14.7808 169.061 14.7548 169.124 14.7214C169.189 14.688 169.25 14.648 169.308 14.6016C169.367 14.5552 169.425 14.5023 169.481 14.4429V13.8581ZM167.879 12.7053C168.035 12.5549 168.203 12.4426 168.384 12.3684C168.564 12.2941 168.763 12.257 168.982 12.257C169.14 12.257 169.28 12.283 169.403 12.3349C169.525 12.3869 169.628 12.4593 169.712 12.5521C169.795 12.645 169.858 12.7573 169.901 12.8891C169.944 13.0209 169.965 13.1657 169.965 13.3235V15.1279H169.745C169.697 15.1279 169.66 15.1205 169.634 15.1057C169.608 15.0889 169.587 15.0574 169.573 15.011L169.517 14.7437C169.443 14.8123 169.37 14.8736 169.3 14.9274C169.229 14.9794 169.155 15.024 169.077 15.0611C168.999 15.0964 168.915 15.1233 168.826 15.1419C168.739 15.1623 168.642 15.1725 168.534 15.1725C168.424 15.1725 168.321 15.1576 168.225 15.1279C168.128 15.0964 168.044 15.05 167.971 14.9887C167.901 14.9274 167.844 14.8504 167.802 14.7576C167.761 14.6629 167.74 14.5515 167.74 14.4234C167.74 14.312 167.771 14.2053 167.832 14.1032C167.893 13.9992 167.993 13.9073 168.13 13.8275C168.267 13.7477 168.447 13.6827 168.668 13.6326C168.888 13.5806 169.159 13.5509 169.481 13.5435V13.3235C169.481 13.1044 169.433 12.9392 169.339 12.8278C169.244 12.7146 169.106 12.658 168.924 12.658C168.801 12.658 168.698 12.6737 168.615 12.7053C168.533 12.735 168.461 12.7693 168.4 12.8083C168.341 12.8455 168.289 12.8798 168.244 12.9114C168.202 12.9411 168.159 12.9559 168.116 12.9559C168.083 12.9559 168.054 12.9476 168.03 12.9309C168.006 12.9123 167.985 12.89 167.969 12.864L167.879 12.7053ZM172.363 12.7721C172.341 12.813 172.307 12.8334 172.26 12.8334C172.232 12.8334 172.201 12.8232 172.165 12.8028C172.13 12.7823 172.087 12.7601 172.035 12.7359C171.984 12.7099 171.924 12.6867 171.854 12.6663C171.783 12.644 171.699 12.6329 171.603 12.6329C171.519 12.6329 171.444 12.644 171.377 12.6663C171.311 12.6867 171.253 12.7155 171.205 12.7526C171.158 12.7898 171.122 12.8334 171.096 12.8835C171.072 12.9318 171.06 12.9847 171.06 13.0422C171.06 13.1146 171.08 13.175 171.121 13.2232C171.164 13.2715 171.22 13.3133 171.288 13.3485C171.357 13.3838 171.435 13.4154 171.522 13.4432C171.609 13.4692 171.699 13.498 171.79 13.5295C171.882 13.5593 171.972 13.5927 172.06 13.6298C172.147 13.6669 172.225 13.7133 172.294 13.769C172.362 13.8247 172.417 13.8934 172.458 13.9751C172.501 14.0549 172.522 14.1515 172.522 14.2647C172.522 14.3946 172.499 14.5153 172.452 14.6267C172.406 14.7362 172.337 14.8318 172.246 14.9135C172.155 14.9933 172.044 15.0565 171.912 15.1029C171.78 15.1493 171.628 15.1725 171.455 15.1725C171.259 15.1725 171.08 15.1409 170.921 15.0778C170.761 15.0128 170.626 14.9302 170.514 14.83L170.631 14.6406C170.646 14.6165 170.664 14.5979 170.684 14.5849C170.704 14.5719 170.73 14.5654 170.762 14.5654C170.795 14.5654 170.831 14.5784 170.868 14.6044C170.905 14.6304 170.949 14.6592 171.001 14.6907C171.055 14.7223 171.12 14.7511 171.196 14.7771C171.273 14.8031 171.367 14.8161 171.48 14.8161C171.577 14.8161 171.661 14.804 171.734 14.7799C171.806 14.7539 171.867 14.7195 171.915 14.6768C171.963 14.6341 171.998 14.5849 172.021 14.5292C172.045 14.4735 172.057 14.4141 172.057 14.351C172.057 14.273 172.035 14.209 171.993 14.1589C171.952 14.1069 171.897 14.0633 171.828 14.028C171.76 13.9909 171.681 13.9593 171.592 13.9333C171.505 13.9055 171.415 13.8767 171.322 13.847C171.231 13.8173 171.141 13.7839 171.052 13.7468C170.964 13.7078 170.886 13.6595 170.818 13.6019C170.749 13.5444 170.693 13.4739 170.651 13.3903C170.61 13.3049 170.589 13.2019 170.589 13.0812C170.589 12.9736 170.612 12.8705 170.656 12.7721C170.701 12.6719 170.766 12.5846 170.851 12.5104C170.936 12.4343 171.041 12.3739 171.166 12.3294C171.29 12.2848 171.432 12.2625 171.592 12.2625C171.777 12.2625 171.944 12.2922 172.09 12.3516C172.239 12.4092 172.367 12.489 172.475 12.5911L172.363 12.7721ZM173.996 15.1725C173.773 15.1725 173.601 15.1103 173.48 14.9859C173.362 14.8615 173.302 14.6824 173.302 14.4485V12.722H172.962C172.933 12.722 172.908 12.7137 172.887 12.6969C172.867 12.6784 172.857 12.6505 172.857 12.6134V12.4157L173.319 12.3572L173.433 11.4856C173.439 11.4578 173.451 11.4355 173.469 11.4188C173.49 11.4002 173.516 11.391 173.547 11.391H173.798V12.3628H174.614V12.722H173.798V14.4151C173.798 14.5339 173.827 14.6221 173.884 14.6796C173.942 14.7372 174.016 14.7659 174.107 14.7659C174.159 14.7659 174.204 14.7594 174.241 14.7464C174.28 14.7316 174.313 14.7158 174.341 14.6991C174.369 14.6824 174.392 14.6675 174.411 14.6545C174.431 14.6397 174.449 14.6323 174.463 14.6323C174.489 14.6323 174.513 14.648 174.533 14.6796L174.678 14.9163C174.592 14.9961 174.489 15.0592 174.369 15.1057C174.248 15.1502 174.124 15.1725 173.996 15.1725ZM177.767 14.7604C177.901 14.7604 178.022 14.739 178.129 14.6963C178.239 14.6536 178.332 14.5942 178.408 14.5181C178.486 14.442 178.545 14.3519 178.586 14.248C178.629 14.144 178.65 14.0308 178.65 13.9083C178.65 13.7783 178.63 13.6614 178.589 13.5574C178.548 13.4516 178.49 13.3625 178.413 13.2901C178.339 13.2158 178.25 13.1592 178.146 13.1202C178.042 13.0812 177.928 13.0617 177.804 13.0617C177.67 13.0617 177.549 13.0849 177.442 13.1313C177.334 13.1759 177.242 13.2372 177.166 13.3151C177.092 13.3912 177.034 13.4804 176.993 13.5825C176.954 13.6827 176.935 13.7876 176.935 13.8971C176.935 14.0252 176.953 14.1422 176.991 14.248C177.028 14.3538 177.081 14.4448 177.152 14.5209C177.224 14.597 177.312 14.6564 177.414 14.6991C177.518 14.7399 177.636 14.7604 177.767 14.7604ZM177.478 12.6329C177.443 12.6775 177.408 12.7211 177.375 12.7638C177.343 12.8046 177.313 12.8455 177.283 12.8863C177.378 12.8213 177.482 12.7712 177.595 12.7359C177.708 12.7007 177.831 12.683 177.965 12.683C178.127 12.683 178.279 12.7099 178.422 12.7638C178.565 12.8158 178.689 12.8928 178.795 12.9949C178.903 13.0951 178.988 13.2195 179.051 13.368C179.114 13.5147 179.146 13.6827 179.146 13.8721C179.146 14.0558 179.112 14.2266 179.046 14.3844C178.979 14.5422 178.885 14.6796 178.764 14.7966C178.646 14.9135 178.502 15.0054 178.333 15.0722C178.166 15.1391 177.981 15.1725 177.779 15.1725C177.578 15.1725 177.396 15.1409 177.233 15.0778C177.069 15.0128 176.93 14.9219 176.815 14.8049C176.702 14.6861 176.614 14.5432 176.551 14.3761C176.489 14.2071 176.459 14.0187 176.459 13.8108C176.459 13.6363 176.497 13.4507 176.573 13.2539C176.651 13.0552 176.774 12.8436 176.943 12.619L177.957 11.2573C177.983 11.2239 178.018 11.196 178.063 11.1737C178.109 11.1496 178.162 11.1375 178.221 11.1375H178.661L177.478 12.6329ZM181.206 15.1279V12.3071H181.504C181.575 12.3071 181.618 12.3414 181.635 12.4101L181.671 12.6997C181.775 12.5716 181.892 12.4667 182.022 12.3851C182.152 12.3034 182.302 12.2625 182.473 12.2625C182.662 12.2625 182.816 12.3154 182.933 12.4213C183.051 12.5271 183.137 12.67 183.189 12.8501C183.23 12.748 183.282 12.6598 183.345 12.5856C183.41 12.5113 183.482 12.45 183.562 12.4018C183.642 12.3535 183.726 12.3182 183.815 12.296C183.906 12.2737 183.998 12.2625 184.091 12.2625C184.239 12.2625 184.371 12.2867 184.486 12.3349C184.603 12.3814 184.702 12.45 184.782 12.541C184.863 12.632 184.925 12.7443 184.968 12.8779C185.011 13.0098 185.032 13.161 185.032 13.3318V15.1279H184.534V13.3318C184.534 13.1109 184.485 12.9438 184.389 12.8306C184.292 12.7155 184.153 12.658 183.971 12.658C183.89 12.658 183.812 12.6728 183.737 12.7025C183.665 12.7304 183.601 12.7721 183.545 12.8278C183.49 12.8835 183.445 12.9541 183.412 13.0395C183.38 13.123 183.364 13.2205 183.364 13.3318V15.1279H182.866V13.3318C182.866 13.1054 182.82 12.9364 182.729 12.825C182.638 12.7137 182.506 12.658 182.331 12.658C182.209 12.658 182.095 12.6914 181.991 12.7582C181.887 12.8232 181.792 12.9123 181.705 13.0255V15.1279H181.206ZM186.975 12.2625C187.181 12.2625 187.366 12.2969 187.531 12.3656C187.697 12.4343 187.838 12.5317 187.955 12.658C188.072 12.7842 188.161 12.9374 188.222 13.1174C188.285 13.2956 188.317 13.4952 188.317 13.7161C188.317 13.9389 188.285 14.1394 188.222 14.3176C188.161 14.4958 188.072 14.648 187.955 14.7743C187.838 14.9005 187.697 14.998 187.531 15.0667C187.366 15.1335 187.181 15.1669 186.975 15.1669C186.767 15.1669 186.579 15.1335 186.412 15.0667C186.247 14.998 186.106 14.9005 185.989 14.7743C185.872 14.648 185.782 14.4958 185.719 14.3176C185.657 14.1394 185.627 13.9389 185.627 13.7161C185.627 13.4952 185.657 13.2956 185.719 13.1174C185.782 12.9374 185.872 12.7842 185.989 12.658C186.106 12.5317 186.247 12.4343 186.412 12.3656C186.579 12.2969 186.767 12.2625 186.975 12.2625ZM186.975 14.7799C187.253 14.7799 187.461 14.687 187.598 14.5014C187.736 14.3139 187.804 14.0531 187.804 13.7189C187.804 13.3829 187.736 13.1211 187.598 12.9336C187.461 12.7461 187.253 12.6524 186.975 12.6524C186.833 12.6524 186.71 12.6765 186.604 12.7248C186.5 12.7731 186.413 12.8427 186.342 12.9336C186.274 13.0246 186.222 13.1369 186.187 13.2706C186.153 13.4024 186.136 13.5518 186.136 13.7189C186.136 14.0531 186.205 14.3139 186.342 14.5014C186.482 14.687 186.692 14.7799 186.975 14.7799ZM189.413 12.7164C189.475 12.6477 189.539 12.5856 189.608 12.5299C189.677 12.4742 189.749 12.4268 189.825 12.3878C189.903 12.347 189.985 12.3164 190.07 12.296C190.158 12.2737 190.251 12.2625 190.352 12.2625C190.506 12.2625 190.641 12.2885 190.758 12.3405C190.877 12.3906 190.975 12.463 191.053 12.5577C191.133 12.6505 191.194 12.7628 191.234 12.8947C191.275 13.0265 191.296 13.1722 191.296 13.3318V15.1279H190.797V13.3318C190.797 13.1184 190.748 12.9531 190.65 12.8362C190.553 12.7174 190.406 12.658 190.207 12.658C190.06 12.658 189.923 12.6932 189.795 12.7638C189.669 12.8343 189.552 12.9299 189.444 13.0506V15.1279H188.945V12.3071H189.243C189.314 12.3071 189.358 12.3414 189.374 12.4101L189.413 12.7164ZM192.879 15.1725C192.656 15.1725 192.484 15.1103 192.364 14.9859C192.245 14.8615 192.186 14.6824 192.186 14.4485V12.722H191.846C191.816 12.722 191.791 12.7137 191.771 12.6969C191.75 12.6784 191.74 12.6505 191.74 12.6134V12.4157L192.202 12.3572L192.316 11.4856C192.322 11.4578 192.334 11.4355 192.353 11.4188C192.373 11.4002 192.399 11.391 192.431 11.391H192.681V12.3628H193.497V12.722H192.681V14.4151C192.681 14.5339 192.71 14.6221 192.768 14.6796C192.825 14.7372 192.899 14.7659 192.99 14.7659C193.042 14.7659 193.087 14.7594 193.124 14.7464C193.163 14.7316 193.196 14.7158 193.224 14.6991C193.252 14.6824 193.275 14.6675 193.294 14.6545C193.314 14.6397 193.332 14.6323 193.347 14.6323C193.373 14.6323 193.396 14.648 193.416 14.6796L193.561 14.9163C193.476 14.9961 193.373 15.0592 193.252 15.1057C193.131 15.1502 193.007 15.1725 192.879 15.1725ZM194.507 12.683C194.628 12.5549 194.762 12.4528 194.908 12.3767C195.055 12.3006 195.224 12.2625 195.415 12.2625C195.569 12.2625 195.705 12.2885 195.822 12.3405C195.941 12.3906 196.039 12.463 196.117 12.5577C196.197 12.6505 196.257 12.7628 196.298 12.8947C196.339 13.0265 196.359 13.1722 196.359 13.3318V15.1279H195.861V13.3318C195.861 13.1184 195.811 12.9531 195.713 12.8362C195.617 12.7174 195.469 12.658 195.27 12.658C195.124 12.658 194.986 12.6932 194.858 12.7638C194.732 12.8343 194.615 12.9299 194.507 13.0506V15.1279H194.009V11.0262H194.507V12.683ZM198.757 12.7721C198.735 12.813 198.701 12.8334 198.654 12.8334C198.626 12.8334 198.595 12.8232 198.56 12.8028C198.524 12.7823 198.481 12.7601 198.429 12.7359C198.379 12.7099 198.318 12.6867 198.248 12.6663C198.177 12.644 198.094 12.6329 197.997 12.6329C197.914 12.6329 197.838 12.644 197.772 12.6663C197.705 12.6867 197.647 12.7155 197.599 12.7526C197.553 12.7898 197.516 12.8334 197.49 12.8835C197.466 12.9318 197.454 12.9847 197.454 13.0422C197.454 13.1146 197.475 13.175 197.515 13.2232C197.558 13.2715 197.614 13.3133 197.682 13.3485C197.751 13.3838 197.829 13.4154 197.916 13.4432C198.004 13.4692 198.093 13.498 198.184 13.5295C198.277 13.5593 198.367 13.5927 198.454 13.6298C198.541 13.6669 198.619 13.7133 198.688 13.769C198.756 13.8247 198.811 13.8934 198.852 13.9751C198.895 14.0549 198.916 14.1515 198.916 14.2647C198.916 14.3946 198.893 14.5153 198.846 14.6267C198.8 14.7362 198.731 14.8318 198.64 14.9135C198.549 14.9933 198.438 15.0565 198.306 15.1029C198.174 15.1493 198.022 15.1725 197.85 15.1725C197.653 15.1725 197.475 15.1409 197.315 15.0778C197.155 15.0128 197.02 14.9302 196.908 14.83L197.025 14.6406C197.04 14.6165 197.058 14.5979 197.078 14.5849C197.099 14.5719 197.125 14.5654 197.156 14.5654C197.19 14.5654 197.225 14.5784 197.262 14.6044C197.299 14.6304 197.344 14.6592 197.396 14.6907C197.45 14.7223 197.514 14.7511 197.591 14.7771C197.667 14.8031 197.761 14.8161 197.875 14.8161C197.971 14.8161 198.056 14.804 198.128 14.7799C198.2 14.7539 198.261 14.7195 198.309 14.6768C198.357 14.6341 198.393 14.5849 198.415 14.5292C198.439 14.4735 198.451 14.4141 198.451 14.351C198.451 14.273 198.43 14.209 198.387 14.1589C198.346 14.1069 198.291 14.0633 198.223 14.028C198.154 13.9909 198.075 13.9593 197.986 13.9333C197.899 13.9055 197.809 13.8767 197.716 13.847C197.625 13.8173 197.535 13.7839 197.446 13.7468C197.359 13.7078 197.281 13.6595 197.212 13.6019C197.143 13.5444 197.087 13.4739 197.045 13.3903C197.004 13.3049 196.984 13.2019 196.984 13.0812C196.984 12.9736 197.006 12.8705 197.05 12.7721C197.095 12.6719 197.16 12.5846 197.245 12.5104C197.331 12.4343 197.436 12.3739 197.56 12.3294C197.684 12.2848 197.826 12.2625 197.986 12.2625C198.172 12.2625 198.338 12.2922 198.484 12.3516C198.633 12.4092 198.761 12.489 198.869 12.5911L198.757 12.7721Z" fill="#050506"/>
<path d="M208.45 10.1436V11.0386" stroke="#818181" stroke-width="0.397805" stroke-miterlimit="10" stroke-linecap="round" stroke-linejoin="round"/>
<path d="M210.837 10.1436V11.0386" stroke="#818181" stroke-width="0.397805" stroke-miterlimit="10" stroke-linecap="round" stroke-linejoin="round"/>
<path d="M207.107 12.2588H212.179" stroke="#818181" stroke-width="0.397805" stroke-miterlimit="10" stroke-linecap="round" stroke-linejoin="round"/>
<path d="M212.329 12.0826V14.6186C212.329 15.5137 211.881 16.1104 210.837 16.1104H208.45C207.406 16.1104 206.958 15.5137 206.958 14.6186V12.0826C206.958 11.1875 207.406 10.5908 208.45 10.5908H210.837C211.881 10.5908 212.329 11.1875 212.329 12.0826Z" stroke="#818181" stroke-width="0.397805" stroke-miterlimit="10" stroke-linecap="round" stroke-linejoin="round"/>
<path d="M209.642 13.6345H209.645" stroke="#818181" stroke-width="0.596707" stroke-linecap="round" stroke-linejoin="round"/>
<path d="M208.538 13.6345H208.541" stroke="#818181" stroke-width="0.596707" stroke-linecap="round" stroke-linejoin="round"/>
<path d="M208.538 14.5291H208.541" stroke="#818181" stroke-width="0.596707" stroke-linecap="round" stroke-linejoin="round"/>
</svg>
