<svg width="44" height="44" viewBox="0 0 44 44" fill="none" xmlns="http://www.w3.org/2000/svg">
<rect x="0.609375" y="0.273438" width="42.9688" height="42.9688" rx="6.44531" fill="#EDAE40"/>
<path fill-rule="evenodd" clip-rule="evenodd" d="M22.0938 32.5C17.3476 32.5 13.5 28.5835 13.5 23.7523C13.5 18.959 16.2428 13.3656 20.5223 11.3653C21.021 11.1322 21.5574 11.0156 22.0938 11.0156V32.5Z" fill="white"/>
<path opacity="0.3" d="M23.6652 11.3653C23.1665 11.1322 22.6301 11.0156 22.0938 11.0156V18.5352L26.8544 13.7747C25.9275 12.7565 24.8559 11.9218 23.6652 11.3653Z" fill="white"/>
<path opacity="0.4" d="M22.0938 18.5352V24.4435L29.1988 17.3382C28.5843 16.0275 27.7938 14.8068 26.8544 13.7747L22.0938 18.5352Z" fill="white"/>
<path opacity="0.6" d="M22.0938 29.8144L30.4845 21.4237C30.2483 20.0375 29.8107 18.6432 29.1988 17.3381L22.0938 24.4433V29.8144Z" fill="white"/>
<path opacity="0.7" d="M30.4845 21.4236L22.0938 29.8143V32.4999C26.84 32.4999 30.6875 28.5834 30.6875 23.7522C30.6875 22.9903 30.6182 22.2082 30.4845 21.4236Z" fill="white"/>
</svg>
