<svg width="44" height="44" viewBox="0 0 44 44" fill="none" xmlns="http://www.w3.org/2000/svg">
<rect x="0.612305" y="0.273438" width="42.9688" height="42.9688" rx="6.44531" fill="#EDAE40"/>
<path opacity="0.5" d="M11.3545 21.7578C11.3545 16.6939 11.3545 14.1619 12.9277 12.5888C14.5008 11.0156 17.0328 11.0156 22.0967 11.0156C27.1605 11.0156 29.6926 11.0156 31.2657 12.5888C32.8389 14.1619 32.8389 16.6939 32.8389 21.7578C32.8389 26.8217 32.8389 29.3537 31.2657 30.9268C29.6926 32.5 27.1605 32.5 22.0967 32.5C17.0328 32.5 14.5008 32.5 12.9277 30.9268C11.3545 29.3537 11.3545 26.8217 11.3545 21.7578Z" fill="white"/>
<path d="M32.8389 14.2383C32.8389 16.0181 31.3961 17.4609 29.6162 17.4609C27.8363 17.4609 26.3936 16.0181 26.3936 14.2383C26.3936 12.4585 27.8363 11.0156 29.6162 11.0156C31.3961 11.0156 32.8389 12.4585 32.8389 14.2383Z" fill="white"/>
<path d="M24.7822 20.415C24.3373 20.415 23.9766 20.0543 23.9766 19.6094C23.9766 19.1644 24.3373 18.8037 24.7822 18.8037H27.4678C27.9127 18.8037 28.2734 19.1644 28.2734 19.6094V22.2949C28.2734 22.7399 27.9127 23.1006 27.4678 23.1006C27.0228 23.1006 26.6621 22.7399 26.6621 22.2949V21.5545L24.5001 23.7163C23.766 24.4504 22.5758 24.4504 21.8417 23.7163L20.1382 22.0128C20.0332 21.908 19.8632 21.908 19.7583 22.0128L17.2953 24.4759C16.9806 24.7905 16.4705 24.7905 16.1559 24.4759C15.8413 24.1613 15.8413 23.6512 16.1559 23.3366L18.619 20.8735C19.3531 20.1394 20.5434 20.1394 21.2775 20.8735L22.981 22.577C23.0859 22.6819 23.2559 22.6819 23.3608 22.577L25.5227 20.415H24.7822Z" fill="white"/>
</svg>
