<svg width="18" height="18" viewBox="0 0 18 18" fill="none" xmlns="http://www.w3.org/2000/svg">
<path fill-rule="evenodd" clip-rule="evenodd" d="M1.94336 11.7174V3.73536C1.94336 2.94891 2.57808 2.31003 3.36305 2.35828C4.06227 2.40125 4.88922 2.4862 5.52409 2.65372C6.27548 2.852 7.16844 3.27431 7.87469 3.64775C8.09462 3.76404 8.32844 3.8447 8.56785 3.89017V14.7603C8.35086 14.7124 8.13917 14.6352 7.93922 14.5287C7.22345 14.1472 6.29856 13.7048 5.52409 13.5004C4.89624 13.3347 4.08054 13.2499 3.38629 13.2064C2.59222 13.1568 1.94336 12.513 1.94336 11.7174ZM4.22219 6.08045C3.93441 6.0085 3.64279 6.18347 3.57085 6.47125C3.49891 6.75903 3.67388 7.05065 3.96166 7.1226L6.82624 7.83873C7.11402 7.91071 7.40563 7.73568 7.47758 7.44793C7.54953 7.16016 7.37456 6.86854 7.08678 6.79659L4.22219 6.08045ZM4.22219 8.94504C3.93441 8.87306 3.64279 9.04809 3.57085 9.33584C3.49891 9.62358 3.67388 9.9152 3.96166 9.98717L6.82624 10.7033C7.11402 10.7753 7.40563 10.6003 7.47758 10.3125C7.54953 10.0248 7.37456 9.73315 7.08678 9.66118L4.22219 8.94504Z" fill="black"/>
<path fill-rule="evenodd" clip-rule="evenodd" d="M9.64258 14.7601C9.8595 14.7122 10.071 14.6351 10.2709 14.5286C10.9867 14.1471 11.9115 13.7046 12.6861 13.5003C13.3139 13.3346 14.1296 13.2497 14.8238 13.2063C15.618 13.1566 16.2668 12.5129 16.2668 11.7172V3.68896C16.2668 2.92094 15.6608 2.29049 14.8932 2.31723C14.085 2.34538 13.0777 2.42915 12.328 2.65359C11.678 2.84818 10.921 3.2385 10.304 3.59555C10.0953 3.71634 9.87225 3.80506 9.64258 3.86132V14.7601ZM14.2488 7.12246C14.5365 7.05052 14.7115 6.7589 14.6396 6.47112C14.5676 6.18334 14.276 6.00837 13.9882 6.08032L11.1236 6.79646C10.8358 6.86841 10.6609 7.16003 10.7328 7.4478C10.8047 7.73555 11.0964 7.91058 11.3842 7.8386L14.2488 7.12246ZM14.2488 9.98704C14.5365 9.91507 14.7115 9.62345 14.6396 9.33571C14.5676 9.04796 14.276 8.87293 13.9882 8.94491L11.1236 9.66105C10.8358 9.73302 10.6609 10.0246 10.7328 10.3124C10.8047 10.6001 11.0964 10.7752 11.3842 10.7032L14.2488 9.98704Z" fill="black"/>
</svg>
