<svg width="44" height="44" viewBox="0 0 44 44" fill="none" xmlns="http://www.w3.org/2000/svg">
<rect x="0.894531" y="0.417969" width="42.9688" height="42.9688" rx="6.44531" fill="#EDAE40"/>
<path opacity="0.5" d="M30.9727 21.9023C30.9727 26.6486 27.1251 30.4961 22.3789 30.4961C17.6327 30.4961 13.7852 26.6486 13.7852 21.9023C13.7852 17.1561 17.6327 13.3086 22.3789 13.3086C27.1251 13.3086 30.9727 17.1561 30.9727 21.9023Z" fill="white"/>
<path d="M22.3791 18.1553C20.3095 18.1553 18.6318 19.833 18.6318 21.9026C18.6318 23.9721 20.3095 25.6499 22.3791 25.6499C24.4487 25.6499 26.1264 23.9721 26.1264 21.9026C26.1264 19.833 24.4487 18.1553 22.3791 18.1553Z" fill="white"/>
<path d="M23.1846 11.1602C23.1846 10.7152 22.8238 10.3545 22.3789 10.3545C21.934 10.3545 21.5732 10.7152 21.5732 11.1602V13.3459C21.8385 13.3212 22.1072 13.3086 22.3789 13.3086C22.6506 13.3086 22.9193 13.3212 23.1846 13.3459V11.1602Z" fill="white"/>
<path d="M30.9346 22.708C30.9593 22.4428 30.9718 22.174 30.9718 21.9023C30.9718 21.6307 30.9593 21.3619 30.9346 21.0967H33.1203C33.5652 21.0967 33.9259 21.4574 33.9259 21.9023C33.9259 22.3473 33.5652 22.708 33.1203 22.708H30.9346Z" fill="white"/>
<path d="M21.5732 30.4587C21.8385 30.4834 22.1072 30.496 22.3789 30.496C22.6506 30.496 22.9193 30.4834 23.1846 30.4587V32.6445C23.1846 33.0894 22.8238 33.4501 22.3789 33.4501C21.934 33.4501 21.5732 33.0894 21.5732 32.6445V30.4587Z" fill="white"/>
<path d="M13.8224 21.0967C13.7978 21.3619 13.7852 21.6307 13.7852 21.9023C13.7852 22.174 13.7978 22.4428 13.8224 22.708H11.6367C11.1918 22.708 10.8311 22.3473 10.8311 21.9023C10.8311 21.4574 11.1918 21.0967 11.6367 21.0967H13.8224Z" fill="white"/>
</svg>
