<svg width="44" height="44" viewBox="0 0 44 44" fill="none" xmlns="http://www.w3.org/2000/svg">
<rect x="0.897461" y="0.417969" width="42.9688" height="42.9688" rx="6.44531" fill="#EDAE40"/>
<g opacity="0.5">
<path d="M17.2306 17.1353C17.5642 16.8409 17.596 16.3317 17.3015 15.9981C17.0071 15.6645 16.498 15.6328 16.1643 15.9272C14.2143 17.6484 12.9824 20.1691 12.9824 22.9766C12.9824 23.4215 13.3431 23.7822 13.7881 23.7822C14.233 23.7822 14.5938 23.4215 14.5938 22.9766C14.5938 20.6506 15.6124 18.5635 17.2306 17.1353Z" fill="white"/>
<path d="M28.5995 15.9272C28.266 15.6328 27.7568 15.6645 27.4624 15.9981C27.1679 16.3317 27.1997 16.8409 27.5333 17.1353C29.1515 18.5635 30.1701 20.6506 30.1701 22.9766C30.1701 23.4215 30.5309 23.7822 30.9758 23.7822C31.4208 23.7822 31.7815 23.4215 31.7815 22.9766C31.7815 20.1691 30.5496 17.6484 28.5995 15.9272Z" fill="white"/>
<path d="M20.4344 30.5193C20.0035 30.4083 19.5643 30.6678 19.4534 31.0987C19.3425 31.5296 19.6019 31.9688 20.0328 32.0797C20.7846 32.2732 21.5719 32.3759 22.382 32.3759C23.1922 32.3759 23.9795 32.2732 24.7312 32.0797C25.1622 31.9688 25.4216 31.5296 25.3107 31.0987C25.1998 30.6678 24.7606 30.4083 24.3297 30.5193C23.708 30.6792 23.0556 30.7645 22.382 30.7645C21.7085 30.7645 21.056 30.6792 20.4344 30.5193Z" fill="white"/>
</g>
<path d="M19.1592 15.457C19.1592 17.2369 20.602 18.6797 22.3818 18.6797C24.1617 18.6797 25.6045 17.2369 25.6045 15.457C25.6045 13.6772 24.1617 12.2344 22.3818 12.2344C20.602 12.2344 19.1592 13.6772 19.1592 15.457Z" fill="white"/>
<path d="M12.1768 28.3477C12.1768 30.1275 13.6196 31.5703 15.3994 31.5703C17.1792 31.5703 18.6221 30.1275 18.6221 28.3477C18.6221 26.5678 17.1792 25.125 15.3994 25.125C13.6196 25.125 12.1768 26.5678 12.1768 28.3477Z" fill="white"/>
<path d="M29.3643 31.5703C27.5844 31.5703 26.1416 30.1275 26.1416 28.3477C26.1416 26.5678 27.5844 25.125 29.3643 25.125C31.1441 25.125 32.5869 26.5678 32.5869 28.3477C32.5869 30.1275 31.1441 31.5703 29.3643 31.5703Z" fill="white"/>
</svg>
