<svg width="44" height="44" viewBox="0 0 44 44" fill="none" xmlns="http://www.w3.org/2000/svg">
<rect x="0.543945" y="0.273438" width="42.9688" height="42.9688" rx="6.44531" fill="#EDAE40"/>
<path opacity="0.5" fill-rule="evenodd" clip-rule="evenodd" d="M24.4762 11.1792C24.0785 11.0156 23.5741 11.0156 22.5654 11.0156C21.5567 11.0156 21.0524 11.0156 20.6546 11.1792C20.1242 11.3972 19.7027 11.8155 19.483 12.3419C19.3827 12.5822 19.3435 12.8617 19.3281 13.2693C19.3055 13.8684 18.996 14.4229 18.4728 14.7227C17.9497 15.0224 17.311 15.0112 16.777 14.7311C16.4136 14.5405 16.1501 14.4345 15.8902 14.4005C15.321 14.3261 14.7453 14.4792 14.2898 14.8261C13.9482 15.0862 13.696 15.5197 13.1917 16.3866C12.6874 17.2536 12.4352 17.687 12.379 18.1107C12.304 18.6757 12.4583 19.247 12.8078 19.6991C12.9673 19.9054 13.1915 20.0788 13.5395 20.2958C14.0511 20.6148 14.3802 21.1583 14.3802 21.7578C14.3802 22.3573 14.051 22.9007 13.5395 23.2196C13.1915 23.4367 12.9673 23.6102 12.8077 23.8166C12.4582 24.2686 12.3039 24.8399 12.3789 25.4048C12.4351 25.8285 12.6873 26.262 13.1916 27.1289C13.6959 27.9958 13.9481 28.4294 14.2897 28.6894C14.7452 29.0363 15.3209 29.1894 15.8901 29.115C16.15 29.0811 16.4134 28.9751 16.7768 28.7845C17.3109 28.5043 17.9496 28.4932 18.4728 28.7929C18.9959 29.0927 19.3055 29.6472 19.3281 30.2464C19.3435 30.654 19.3827 30.9335 19.483 31.1738C19.7027 31.7001 20.1242 32.1184 20.6546 32.3365C21.0524 32.5 21.5567 32.5 22.5654 32.5C23.5741 32.5 24.0785 32.5 24.4762 32.3365C25.0067 32.1184 25.4281 31.7001 25.6478 31.1738C25.7481 30.9335 25.7874 30.654 25.8028 30.2463C25.8254 29.6472 26.1348 29.0927 26.658 28.7929C27.1811 28.4931 27.8199 28.5043 28.354 28.7845C28.7174 28.9751 28.9808 29.081 29.2406 29.1149C29.8099 29.1894 30.3855 29.0363 30.841 28.6894C31.1827 28.4292 31.4348 27.9958 31.9392 27.1288C32.4435 26.2619 32.6956 25.8285 32.7519 25.4048C32.8268 24.8399 32.6725 24.2685 32.3231 23.8164C32.1635 23.6101 31.9393 23.4366 31.5912 23.2196C31.0798 22.9007 30.7507 22.3572 30.7507 21.7577C30.7507 21.1582 31.0798 20.615 31.5912 20.296C31.9394 20.0789 32.1636 19.9055 32.3232 19.6991C32.6726 19.2471 32.8269 18.6757 32.752 18.1108C32.6957 17.6871 32.4436 17.2536 31.9393 16.3867C31.4349 15.5198 31.1828 15.0863 30.8411 14.8262C30.3856 14.4793 29.81 14.3262 29.2407 14.4006C28.9809 14.4345 28.7174 14.5405 28.3541 14.7311C27.82 15.0113 27.1812 15.0225 26.6581 14.7227C26.1349 14.423 25.8254 13.8684 25.8027 13.2693C25.7873 12.8616 25.7481 12.5822 25.6478 12.3419C25.4281 11.8155 25.0067 11.3972 24.4762 11.1792Z" fill="white"/>
<path d="M25.8117 21.7578C25.8117 23.5377 24.358 24.9805 22.5646 24.9805C20.7712 24.9805 19.3174 23.5377 19.3174 21.7578C19.3174 19.9779 20.7712 18.5352 22.5646 18.5352C24.358 18.5352 25.8117 19.9779 25.8117 21.7578Z" fill="white"/>
</svg>
