<svg width="213" height="213" viewBox="0 0 213 213" fill="none" xmlns="http://www.w3.org/2000/svg">
<g id="Icon">
<g id="Border" opacity="0.2">
<rect id="Shape" x="3" y="3" width="206.989" height="206.989" rx="17.2491" stroke="#EDAE40" stroke-width="1.07807"/>
</g>
<g id="Icon_Professional">
<path id="Path" fill-rule="evenodd" clip-rule="evenodd" d="M83.2108 80.6203C83.2108 67.7596 93.6364 57.334 106.497 57.334C119.358 57.334 129.783 67.7596 129.783 80.6203C129.783 89.5776 124.679 97.5821 116.885 101.467L117.417 105.719C130.848 110.321 140.133 123.019 140.133 137.542V142.717C140.133 144.146 138.975 145.305 137.546 145.305H75.4487C74.0197 145.305 72.8613 144.146 72.8613 142.717V137.542C72.8613 123.019 82.1459 110.321 95.5775 105.719L96.109 101.467C88.3155 97.5821 83.2108 89.5776 83.2108 80.6203Z" fill="#EDAE40"/>
<path id="Path_2" opacity="0.3" fill-rule="evenodd" clip-rule="evenodd" d="M60.0037 71.5228C60.0037 73.6637 58.2676 75.3992 56.1259 75.3992C53.9842 75.3992 52.248 73.6637 52.248 71.5228V61.1632C52.248 56.1803 56.2899 52.1411 61.2755 52.1411H71.6372C73.7789 52.1411 75.5151 53.8766 75.5151 56.0175C75.5151 58.1583 73.7789 59.8938 71.6372 59.8938H61.2755C60.5729 59.8938 60.0037 60.4624 60.0037 61.1632V71.5228ZM141.444 59.9187C139.303 59.9187 137.566 58.1832 137.566 56.0424C137.566 53.9015 139.303 52.166 141.444 52.166H151.806C156.792 52.166 160.833 56.2052 160.833 61.1881V71.5477C160.833 73.6886 159.097 75.4241 156.956 75.4241C154.814 75.4241 153.078 73.6886 153.078 71.5477V61.1881C153.078 60.4873 152.509 59.9187 151.806 59.9187H141.444ZM153.049 141.429C153.049 139.288 154.785 137.553 156.927 137.553C159.069 137.553 160.805 139.288 160.805 141.429V151.789C160.805 156.772 156.763 160.811 151.777 160.811H141.416C139.274 160.811 137.538 159.075 137.538 156.934C137.538 154.793 139.274 153.058 141.416 153.058H151.777C152.48 153.058 153.049 152.489 153.049 151.789V141.429ZM71.5551 153.058C73.6968 153.058 75.433 154.793 75.433 156.934C75.433 159.075 73.6968 160.811 71.5551 160.811H61.1934C56.2078 160.811 52.1659 156.772 52.1659 151.789V141.429C52.1659 139.288 53.9021 137.553 56.0438 137.553C58.1855 137.553 59.9216 139.288 59.9216 141.429V151.789C59.9216 152.489 60.4908 153.058 61.1934 153.058H71.5551Z" fill="#EDAE40"/>
</g>
</g>
</svg>
