<svg width="71" height="71" viewBox="0 0 71 71" fill="none" xmlns="http://www.w3.org/2000/svg">
<g id="Icon">
<g id="Border" opacity="0.2">
<rect id="Shape" x="1" y="1" width="68.9965" height="68.9965" rx="17.2491" stroke="#EDAE40" stroke-width="1.07807"/>
</g>
<g id="Icon_Professional">
<path id="Path" fill-rule="evenodd" clip-rule="evenodd" d="M27.7369 26.8734C27.7369 22.5865 31.2121 19.1113 35.499 19.1113C39.7859 19.1113 43.2611 22.5865 43.2611 26.8734C43.2611 29.8592 41.5596 32.5274 38.9617 33.8223L39.1389 35.2397C43.6161 36.7737 46.711 41.0064 46.711 45.8475V47.5724C46.711 48.0487 46.3248 48.4348 45.8485 48.4348H25.1496C24.6732 48.4348 24.2871 48.0487 24.2871 47.5724V45.8475C24.2871 41.0064 27.382 36.7737 31.8592 35.2397L32.0363 33.8223C29.4385 32.5274 27.7369 29.8592 27.7369 26.8734Z" fill="#EDAE40"/>
<path id="Path_2" opacity="0.3" fill-rule="evenodd" clip-rule="evenodd" d="M20.0012 23.8409C20.0012 24.5546 19.4225 25.1331 18.7086 25.1331C17.9947 25.1331 17.416 24.5546 17.416 23.8409V20.3877C17.416 18.7268 18.7633 17.3804 20.4252 17.3804H23.8791C24.593 17.3804 25.1717 17.9589 25.1717 18.6725C25.1717 19.3861 24.593 19.9646 23.8791 19.9646H20.4252C20.191 19.9646 20.0012 20.1541 20.0012 20.3877V23.8409ZM47.1481 19.9729C46.4342 19.9729 45.8555 19.3944 45.8555 18.6808C45.8555 17.9672 46.4342 17.3887 47.1481 17.3887H50.602C52.2639 17.3887 53.6111 18.7351 53.6111 20.396V23.8492C53.6111 24.5629 53.0324 25.1414 52.3185 25.1414C51.6046 25.1414 51.0259 24.5629 51.0259 23.8492V20.396C51.0259 20.1624 50.8362 19.9729 50.602 19.9729H47.1481ZM51.0164 47.143C51.0164 46.4294 51.5951 45.8509 52.309 45.8509C53.0229 45.8509 53.6016 46.4294 53.6016 47.143V50.5962C53.6016 52.2572 52.2543 53.6036 50.5924 53.6036H47.1385C46.4246 53.6036 45.8459 53.0251 45.8459 52.3114C45.8459 51.5978 46.4246 51.0193 47.1385 51.0193H50.5924C50.8266 51.0193 51.0164 50.8298 51.0164 50.5962V47.143ZM23.8517 51.0193C24.5656 51.0193 25.1443 51.5978 25.1443 52.3114C25.1443 53.0251 24.5656 53.6036 23.8517 53.6036H20.3978C18.7359 53.6036 17.3886 52.2572 17.3886 50.5962V47.143C17.3886 46.4294 17.9674 45.8509 18.6813 45.8509C19.3952 45.8509 19.9739 46.4294 19.9739 47.143V50.5962C19.9739 50.8298 20.1636 51.0193 20.3978 51.0193H23.8517Z" fill="#EDAE40"/>
</g>
</g>
</svg>
